<svg xmlns="http://www.w3.org/2000/svg" width="73.678" height="66.056" viewBox="0 0 73.678 66.056"><path id="Path_1053" data-name="Path 1053" d="M91.677 28.263a2.3 2.3 0 00-2.3-2.153H75.238v-2.5a2.3 2.3 0 00-2.3-2.3H36.742a2.3 2.3 0 00-2.3 2.3v2.5H20.3a2.3 2.3 0 00-2.3 2.153V29.3a28.031 28.031 0 0014.332 24.658l7.31 4.121a20.072 20.072 0 008.749 5.675v7.759h-7.045a2.3 2.3 0 00-2.3 2.3v11.25a2.3 2.3 0 002.3 2.3H68.33a2.3 2.3 0 002.3-2.3V73.816a2.3 2.3 0 00-2.3-2.3h-7.045v-7.761a20.072 20.072 0 008.749-5.675l7.31-4.121A28.031 28.031 0 0091.677 29.3zm-52.6-2.3h31.556v18.67a15.39 15.39 0 01-3.523 9.82 2.3 2.3 0 00-.817.909 15.414 15.414 0 01-11.132 4.731h-.645a15.414 15.414 0 01-11.132-4.754 2.3 2.3 0 00-.817-.909 15.39 15.39 0 01-3.523-9.82zM34.6 49.952a23.437 23.437 0 01-12-19.236h11.839v13.917a20.251 20.251 0 00.829 5.756zm31.428 32.809H43.649v-6.643h22.379zM56.68 71.514H53V64.7c.5 0 1 .081 1.52.081h.645a9.464 9.464 0 001.52-.081zM75.1 49.952l-.668.38a20.251 20.251 0 00.829-5.756V30.715h11.811a23.438 23.438 0 01-12 19.236z" transform="translate(-17.999 -21.31)"/></svg>