<svg xmlns="http://www.w3.org/2000/svg" width="58.912" height="47.534" viewBox="0 0 58.912 47.534"><g id="Group_692" data-name="Group 692"><path id="Path_1060" data-name="Path 1060" d="M13.806 42.008h31.3V18.1a.925.925 0 01.924-.924.984.984 0 01.258.039l5.221 1.088 2.239-10.421-14.254-5.643a10 10 0 01-2.888 5.784 10.119 10.119 0 01-14.3 0 10.046 10.046 0 01-2.888-5.784L5.165 7.882l2.246 10.426L12.7 17.2a.911.911 0 011.08.712.772.772 0 01.023.188zm39.5-23.325L54.8 19l2.137-9.854-1.448-.571zM3.435 8.571l-1.448.571L4.116 19l1.495-.313zM20.451.023a50.953 50.953 0 009.009.783 53.269 53.269 0 009.009-.783.893.893 0 01.531.04l19.334 7.655a.917.917 0 01.556 1.049L56.4 20.28a.924.924 0 01-1.088.7l-8.367-1.753V46.61a.919.919 0 01-.916.924H12.89a.925.925 0 01-.924-.924V19.231l-8.359 1.753a.932.932 0 01-1.1-.7L.03 8.8a.917.917 0 01.548-1.08L19.872.078A1.008 1.008 0 0120.248 0a.853.853 0 01.203.023zm17.22 1.988a55.7 55.7 0 01-8.211.634 53.484 53.484 0 01-8.211-.626 8.156 8.156 0 002.356 4.7 8.284 8.284 0 005.855 2.415 8.312 8.312 0 005.855-2.411 8.224 8.224 0 002.356-4.711zm7.436 41.836h-31.3v1.839h31.3z" fill="#a70033"/></g></svg>