<svg xmlns="http://www.w3.org/2000/svg" width="200" height="30.807" viewBox="0 0 200 30.807">
  <g id="Group_226" data-name="Group 226" transform="translate(-1908.926 -960.81)">
    <g id="Group_215" data-name="Group 215">
      <g id="Group_210" data-name="Group 210">
        <path id="Path_349" data-name="Path 349" d="M1917.718,966.549h3.274c1.781,0,3.026.8,3.026,2.328a2.174,2.174,0,0,1-1.034,1.893v.025a2,2,0,0,1,1.4,2c0,1.943-1.619,2.652-3.387,2.652h-3.274Zm3.3,3.449a.754.754,0,0,0,.785-.822.725.725,0,0,0-.823-.76H1919.9V970Zm.187,3.586a.884.884,0,0,0,.946-.934.856.856,0,0,0-.934-.909h-1.32v1.843Z" fill="#b5b5b5"/>
      </g>
      <g id="Group_211" data-name="Group 211">
        <path id="Path_350" data-name="Path 350" d="M1929.868,966.4a4.46,4.46,0,0,1,4.657,4.545,4.657,4.657,0,1,1-9.314,0A4.46,4.46,0,0,1,1929.868,966.4Zm0,7.209a2.465,2.465,0,0,0,2.4-2.664,2.407,2.407,0,1,0-4.806,0A2.465,2.465,0,0,0,1929.868,973.608Z" fill="#b5b5b5"/>
      </g>
      <g id="Group_212" data-name="Group 212">
        <path id="Path_351" data-name="Path 351" d="M1936.283,972.675a3.588,3.588,0,0,0,2.142.921c.609,0,.921-.274.921-.623,0-1.257-3.935-1.058-3.935-3.847,0-1.643,1.357-2.727,3.225-2.727a4.206,4.206,0,0,1,2.789,1.009l-.922,1.78a3.213,3.213,0,0,0-1.967-.784c-.659,0-.946.274-.946.635,0,1.27,3.935.971,3.935,3.785,0,1.494-1.108,2.777-3.163,2.777a4.613,4.613,0,0,1-3.225-1.27Z" fill="#b5b5b5"/>
      </g>
      <g id="Group_213" data-name="Group 213">
        <path id="Path_352" data-name="Path 352" d="M1946.981,966.4a4.788,4.788,0,0,1,3.337,1.258l-1.008,1.644a3.637,3.637,0,0,0-2.229-.91,2.365,2.365,0,0,0-2.515,2.541,2.487,2.487,0,0,0,2.515,2.676,3.514,3.514,0,0,0,2.366-1.095l1.12,1.594a4.854,4.854,0,0,1-3.586,1.494,4.425,4.425,0,0,1-4.669-4.62A4.485,4.485,0,0,1,1946.981,966.4Z" fill="#b5b5b5"/>
      </g>
      <g id="Group_214" data-name="Group 214">
        <path id="Path_353" data-name="Path 353" d="M1955.579,966.4a4.459,4.459,0,0,1,4.656,4.545,4.656,4.656,0,1,1-9.313,0A4.459,4.459,0,0,1,1955.579,966.4Zm0,7.209a2.465,2.465,0,0,0,2.4-2.664,2.407,2.407,0,1,0-4.806,0A2.464,2.464,0,0,0,1955.579,973.608Z" fill="#b5b5b5"/>
      </g>
    </g>
    <g id="Group_224" data-name="Group 224">
      <g id="Group_216" data-name="Group 216">
        <path id="Path_354" data-name="Path 354" d="M1976.741,966.7h1.233v8.791h-1.233Z" fill="#b5b5b5"/>
      </g>
      <g id="Group_217" data-name="Group 217">
        <path id="Path_355" data-name="Path 355" d="M1980.17,966.7h1.22l3.922,5.7c.312.485.723,1.282.723,1.282h.024s-.074-.784-.074-1.282v-5.7h1.22v8.791H1986l-3.922-5.7c-.311-.485-.722-1.282-.722-1.282h-.025s.075.784.075,1.282v5.7h-1.233Z" fill="#b5b5b5"/>
      </g>
      <g id="Group_218" data-name="Group 218">
        <path id="Path_356" data-name="Path 356" d="M1991.438,967.769h-3.025V966.7h7.271v1.071h-3.025v7.72h-1.221Z" fill="#b5b5b5"/>
      </g>
      <g id="Group_219" data-name="Group 219">
        <path id="Path_357" data-name="Path 357" d="M1996.891,966.7h5.118v1.071h-3.885v2.752h3.15v1.07h-3.15v2.827h4.1v1.071h-5.329Z" fill="#b5b5b5"/>
      </g>
      <g id="Group_220" data-name="Group 220">
        <path id="Path_358" data-name="Path 358" d="M2003.619,966.7h2.789a3.816,3.816,0,0,1,1.632.237,2.378,2.378,0,0,1,1.394,2.3,2.463,2.463,0,0,1-1.569,2.416v.025a2.916,2.916,0,0,1,.249.4l1.868,3.412h-1.394l-1.856-3.5h-1.88v3.5h-1.233Zm3,4.221a1.5,1.5,0,0,0,1.569-1.618,1.4,1.4,0,0,0-.822-1.383,2.523,2.523,0,0,0-1.058-.149h-1.457v3.15Z" fill="#b5b5b5"/>
      </g>
      <g id="Group_221" data-name="Group 221">
        <path id="Path_359" data-name="Path 359" d="M2011.342,966.7h1.221l3.922,5.7c.311.485.722,1.282.722,1.282h.025s-.075-.784-.075-1.282v-5.7h1.22v8.791h-1.208l-3.921-5.7c-.312-.485-.723-1.282-.723-1.282h-.025s.075.784.075,1.282v5.7h-1.233Z" fill="#b5b5b5"/>
      </g>
      <g id="Group_222" data-name="Group 222">
        <path id="Path_360" data-name="Path 360" d="M2020.595,966.7h5.117v1.071h-3.884v2.752h3.149v1.07h-3.149v2.827h4.1v1.071h-5.329Z" fill="#b5b5b5"/>
      </g>
      <g id="Group_223" data-name="Group 223">
        <path id="Path_361" data-name="Path 361" d="M2029.733,967.769h-3.025V966.7h7.271v1.071h-3.026v7.72h-1.22Z" fill="#b5b5b5"/>
      </g>
    </g>
    <g id="Group_225" data-name="Group 225">
      <path id="Path_362" data-name="Path 362" d="M2042.462,970.857v-.025a2.057,2.057,0,0,0,1.1-1.893,2.256,2.256,0,0,0-2.552-2.241h-3.076v8.791h3.15c1.544,0,2.839-.847,2.839-2.5A2.113,2.113,0,0,0,2042.462,970.857Zm-3.3-3.088h1.83a1.207,1.207,0,0,1,1.307,1.3,1.244,1.244,0,0,1-1.294,1.332h-1.843Zm1.98,6.649h-1.98v-3h1.98a1.415,1.415,0,0,1,1.506,1.494A1.4,1.4,0,0,1,2041.143,974.418Z" fill="#b5b5b5"/>
      <path id="Path_363" data-name="Path 363" d="M2049.547,966.549a4.4,4.4,0,0,0-4.52,4.482,4.514,4.514,0,1,0,9.027,0A4.386,4.386,0,0,0,2049.547,966.549Zm0,7.956a3.285,3.285,0,0,1-3.25-3.474,3.246,3.246,0,1,1,6.487,0A3.283,3.283,0,0,1,2049.547,974.505Z" fill="#b5b5b5"/>
      <path id="Path_364" data-name="Path 364" d="M2061.325,972.351a2.224,2.224,0,0,1-4.445.012V966.7h-1.233v5.678a3.461,3.461,0,0,0,6.911,0V966.7h-1.233Z" fill="#b5b5b5"/>
      <path id="Path_365" data-name="Path 365" d="M2066.742,975.489h1.22v-7.72h3.025V966.7h-7.271v1.071h3.025Z" fill="#b5b5b5"/>
      <rect id="Rectangle_105" data-name="Rectangle 105" width="1.233" height="8.79" transform="translate(2072.194 966.698)" fill="#b5b5b5"/>
      <path id="Path_366" data-name="Path 366" d="M2084.116,971.044a4.507,4.507,0,0,0-9.014,0,4.454,4.454,0,0,0,4.495,4.594,4.3,4.3,0,0,0,2.789-.959l0-.005c1.067,1.077,1.553,2.095,1.358,2.882-.226.91-1.333,1.4-2.222,1.656a5.358,5.358,0,0,0-3.208,2.189.528.528,0,0,0,.922.516,4.447,4.447,0,0,1,2.574-1.689c2.1-.6,2.767-1.645,2.959-2.418.293-1.18-.284-2.524-1.654-3.9A4.565,4.565,0,0,0,2084.116,971.044Zm-4.519,3.461a3.3,3.3,0,0,1-3.225-3.461,3.24,3.24,0,1,1,6.474,0,3.568,3.568,0,0,1-.647,2.066l-1.009-1.033-.709.772,1.033,1.009A3.048,3.048,0,0,1,2079.6,974.505Z" fill="#b5b5b5"/>
      <path id="Path_367" data-name="Path 367" d="M2091.427,972.351a2.223,2.223,0,0,1-4.444.012V966.7h-1.233v5.678a3.461,3.461,0,0,0,6.91,0V966.7h-1.233Z" fill="#b5b5b5"/>
      <path id="Path_368" data-name="Path 368" d="M2096.038,974.418v-2.826h3.15v-1.071h-3.15v-2.752h3.885V966.7h-5.117v8.79h5.329v-1.071Z" fill="#b5b5b5"/>
      <path id="Path_369" data-name="Path 369" d="M2081.276,981.289a.528.528,0,0,0-.614.425l-.605,3.334-10.811,5.163-2.986-6.172,10.811-5.162,1.316.7a.528.528,0,0,0,.5-.932l-1.787-.954-12.249,5.849,3.905,8.074L2081,985.768l.7-3.866A.527.527,0,0,0,2081.276,981.289Z" fill="#b5b5b5"/>
      <path id="Path_370" data-name="Path 370" d="M2077.792,981.185a1.126,1.126,0,0,1,.125-.05.528.528,0,1,0-.326-1,2.1,2.1,0,0,0-.257.1,2.018,2.018,0,1,0,2.474,3.053.528.528,0,0,0-.835-.647.942.942,0,0,1-.341.276.962.962,0,0,1-.84-1.731Z" fill="#b5b5b5"/>
    </g>
    <path id="Path_371" data-name="Path 371" d="M1908.926,960.81v20.38H2062.6v-1.056h-93.634V961.866h138.9v18.268h-22.089v1.056h23.145V960.81Zm58.985,19.324h-57.929V961.866h57.929Z" fill="#b5b5b5"/>
  </g>
</svg>
