<svg xmlns="http://www.w3.org/2000/svg" width="189.28" height="55" viewBox="0 0 189.28 55"><g id="Group_960" data-name="Group 960" transform="translate(-99 -15)"><g id="Group_812" data-name="Group 812" transform="translate(299.703 -481.078)"><g id="Group_801" data-name="Group 801"><g id="Group_796" data-name="Group 796"><path id="Path_1143" data-name="Path 1143" d="M-167.428 499.522h1.964c1.069 0 1.816.478 1.816 1.4a1.305 1.305 0 01-.62 1.135v.015a1.2 1.2 0 01.836 1.2c0 1.165-.971 1.591-2.032 1.591h-1.964zm1.979 2.069a.452.452 0 00.471-.493.435.435 0 00-.493-.456h-.65v.949zm.112 2.152a.531.531 0 00.568-.561.513.513 0 00-.56-.545h-.792v1.106z" fill="#231f20"/></g><g id="Group_797" data-name="Group 797"><path id="Path_1144" data-name="Path 1144" d="M-160.138 499.432a2.676 2.676 0 012.794 2.727 2.708 2.708 0 01-2.794 2.794 2.708 2.708 0 01-2.794-2.794 2.676 2.676 0 012.794-2.727zm0 4.325a1.479 1.479 0 001.442-1.6 1.443 1.443 0 00-1.442-1.532 1.443 1.443 0 00-1.442 1.532 1.479 1.479 0 001.442 1.6z" fill="#231f20"/></g><g id="Group_798" data-name="Group 798"><path id="Path_1145" data-name="Path 1145" d="M-156.289 503.2a2.148 2.148 0 001.285.553c.366 0 .553-.164.553-.374 0-.754-2.361-.635-2.361-2.308a1.722 1.722 0 011.934-1.636 2.523 2.523 0 011.674.6l-.553 1.068a1.93 1.93 0 00-1.18-.47c-.4 0-.568.164-.568.381 0 .762 2.361.582 2.361 2.271a1.7 1.7 0 01-1.9 1.666 2.767 2.767 0 01-1.935-.762z" fill="#231f20"/></g><g id="Group_799" data-name="Group 799"><path id="Path_1146" data-name="Path 1146" d="M-149.87 499.432a2.875 2.875 0 012 .754l-.605.987a2.184 2.184 0 00-1.337-.546 1.419 1.419 0 00-1.509 1.524 1.492 1.492 0 001.509 1.606 2.108 2.108 0 001.419-.657l.672.956a2.909 2.909 0 01-2.151.9 2.655 2.655 0 01-2.8-2.772 2.691 2.691 0 012.802-2.752z" fill="#231f20"/></g><g id="Group_800" data-name="Group 800"><path id="Path_1147" data-name="Path 1147" d="M-144.712 499.432a2.675 2.675 0 012.794 2.727 2.708 2.708 0 01-2.794 2.794 2.708 2.708 0 01-2.794-2.794 2.676 2.676 0 012.794-2.727zm0 4.325a1.479 1.479 0 001.442-1.6 1.443 1.443 0 00-1.442-1.532 1.443 1.443 0 00-1.442 1.532 1.479 1.479 0 001.442 1.6z" fill="#231f20"/></g></g><g id="Group_810" data-name="Group 810"><g id="Group_802" data-name="Group 802"><path id="Path_1148" data-name="Path 1148" d="M-132.015 499.611h.74v5.274h-.74z" fill="#231f20"/></g><g id="Group_803" data-name="Group 803"><path id="Path_1149" data-name="Path 1149" d="M-129.957 499.611h.732l2.353 3.422c.187.291.434.769.434.769h.015s-.045-.47-.045-.769v-3.422h.732v5.274h-.725l-2.353-3.421c-.187-.291-.433-.769-.433-.769h-.015s.045.47.045.769v3.421h-.74z" fill="#231f20"/></g><g id="Group_804" data-name="Group 804"><path id="Path_1150" data-name="Path 1150" d="M-123.2 500.254h-1.815v-.643h4.362v.643h-1.815v4.631h-.732z" fill="#231f20"/></g><g id="Group_805" data-name="Group 805"><path id="Path_1151" data-name="Path 1151" d="M-119.924 499.611h3.07v.643h-2.331v1.646h1.89v.642h-1.89v1.7h2.458v.642h-3.2z" fill="#231f20"/></g><g id="Group_806" data-name="Group 806"><path id="Path_1152" data-name="Path 1152" d="M-115.887 499.611h1.673a2.294 2.294 0 01.979.142 1.426 1.426 0 01.836 1.382 1.477 1.477 0 01-.941 1.449v.015a1.811 1.811 0 01.15.24l1.12 2.046h-.836l-1.114-2.1h-1.128v2.1h-.739zm1.8 2.533a.9.9 0 00.942-.971.843.843 0 00-.494-.83 1.52 1.52 0 00-.635-.089h-.874v1.89z" fill="#231f20"/></g><g id="Group_807" data-name="Group 807"><path id="Path_1153" data-name="Path 1153" d="M-111.254 499.611h.733l2.353 3.422c.187.291.433.769.433.769h.015s-.045-.47-.045-.769v-3.422h.732v5.274h-.724l-2.353-3.421c-.187-.291-.434-.769-.434-.769h-.015s.045.47.045.769v3.421h-.74z" fill="#231f20"/></g><g id="Group_808" data-name="Group 808"><path id="Path_1154" data-name="Path 1154" d="M-105.7 499.611h3.07v.643h-2.331v1.646h1.89v.642h-1.89v1.7h2.458v.642h-3.2z" fill="#231f20"/></g><g id="Group_809" data-name="Group 809"><path id="Path_1155" data-name="Path 1155" d="M-100.219 500.254h-1.815v-.643h4.363v.643h-1.816v4.631h-.732z" fill="#231f20"/></g></g><g id="Group_811" data-name="Group 811" fill="#231f20"><path id="Path_1156" data-name="Path 1156" d="M-92.582 502.106v-.014a1.236 1.236 0 00.658-1.136 1.354 1.354 0 00-1.532-1.345H-95.3v5.274h1.89a1.52 1.52 0 001.7-1.5 1.268 1.268 0 00-.872-1.279zm-1.979-1.852h1.1a.724.724 0 01.784.777.746.746 0 01-.777.8h-1.1zm1.188 3.989h-1.188v-1.8h1.188a.848.848 0 01.9.9.84.84 0 01-.9.9z"/><path id="Path_1157" data-name="Path 1157" d="M-88.331 499.522a2.638 2.638 0 00-2.712 2.689 2.677 2.677 0 002.712 2.764 2.671 2.671 0 002.7-2.764 2.631 2.631 0 00-2.7-2.689zm0 4.773a1.971 1.971 0 01-1.95-2.084 1.935 1.935 0 011.95-2.017 1.933 1.933 0 011.942 2.017 1.969 1.969 0 01-1.942 2.089z"/><path id="Path_1158" data-name="Path 1158" d="M-81.264 503a1.211 1.211 0 01-1.33 1.292 1.215 1.215 0 01-1.337-1.285v-3.4h-.74v3.407a1.915 1.915 0 002.085 1.957 1.9 1.9 0 002.062-1.957v-3.407h-.74z"/><path id="Path_1159" data-name="Path 1159" d="M-78.014 504.885h.732v-4.632h1.815v-.643h-4.363v.643h1.815z"/><path id="Rectangle_212" data-name="Rectangle 212" transform="translate(-74.742 499.611)" d="M0 0h.74v5.274H0z"/><path id="Path_1160" data-name="Path 1160" d="M-67.589 502.218a2.631 2.631 0 00-2.712-2.7 2.636 2.636 0 00-2.7 2.7 2.672 2.672 0 002.7 2.757 2.583 2.583 0 001.673-.575c.64.646.932 1.256.815 1.729-.136.546-.8.842-1.334.994a3.211 3.211 0 00-1.924 1.313.317.317 0 00.122.431.309.309 0 00.154.041.317.317 0 00.277-.163 2.672 2.672 0 011.545-1.013c1.258-.358 1.66-.987 1.775-1.451a2.582 2.582 0 00-.992-2.338 2.743 2.743 0 00.601-1.725zM-70.3 504.3a1.979 1.979 0 01-1.935-2.077 1.939 1.939 0 011.935-2.024 1.942 1.942 0 011.95 2.024 2.151 2.151 0 01-.388 1.241l-.606-.62-.425.463.619.605a1.827 1.827 0 01-1.15.388z"/><path id="Path_1161" data-name="Path 1161" d="M-63.2 503a1.21 1.21 0 01-1.329 1.292 1.215 1.215 0 01-1.337-1.285v-3.4h-.74v3.407a1.914 1.914 0 002.084 1.957 1.9 1.9 0 002.062-1.957v-3.407h-.74z"/><path id="Path_1162" data-name="Path 1162" d="M-60.436 504.243v-1.7h1.89v-.643h-1.89v-1.651h2.331v-.643h-3.07v5.274h3.2v-.642z"/><path id="Path_1163" data-name="Path 1163" d="M-69.294 508.365a.318.318 0 00-.368.256l-.363 2-6.486 3.1-1.792-3.7 6.486-3.1.79.422a.317.317 0 00.429-.13.317.317 0 00-.131-.429l-1.072-.572-7.349 3.509 2.343 4.844 7.348-3.509.42-2.319a.317.317 0 00-.255-.372z"/><path id="Path_1164" data-name="Path 1164" d="M-71.384 508.3a.591.591 0 01.075-.03.317.317 0 00.2-.4.316.316 0 00-.4-.2 1.252 1.252 0 00-.155.062 1.2 1.2 0 00-.616.692 1.2 1.2 0 00.054.925 1.2 1.2 0 00.692.616 1.217 1.217 0 00.4.068 1.2 1.2 0 00.526-.122 1.2 1.2 0 00.43-.348.317.317 0 00-.057-.444.317.317 0 00-.444.056.57.57 0 01-.2.166.577.577 0 01-.441.026.573.573 0 01-.33-.294.573.573 0 01-.025-.441.568.568 0 01.291-.332z"/></g><path id="Path_1165" data-name="Path 1165" d="M-172.7 496.078v12.228h92.2v-.633h-56.18v-10.961h83.342v10.961h-13.253v.633H-52.7v-12.228zm35.391 11.6h-34.761v-10.966h34.758z" fill="#231f20"/></g><g id="Group_761" data-name="Group 761" transform="translate(-27.107 -1406.857)"><path id="Path_1086" data-name="Path 1086" d="M128.407 1470.943c3.778-4.8 4.074-11.829 4.074-17.443v-4.244h11.9v21.687h2.562v5.914h-1.38v-4.6H127.52v4.6h-1.413v-5.914zm14.555 0v-20.372h-9.1v2.891c0 6.046-.526 12.881-3.844 17.481z"/><path id="Path_1087" data-name="Path 1087" d="M161.312 1448.862a11.613 11.613 0 0111.629 11.594v.136a11.639 11.639 0 11-23.262.867q-.016-.433 0-.867a11.61 11.61 0 0111.492-11.729zm0 22.442a10.354 10.354 0 0010.157-10.55v-.162a10.156 10.156 0 00-20.306-.467v.467a10.355 10.355 0 009.989 10.708z"/><path id="Path_1088" data-name="Path 1088" d="M187.843 1448.862a12.1 12.1 0 018.214 2.891l-.855 1.052a11.4 11.4 0 00-7.327-2.6c-5.849 0-9.955 4.436-9.955 10.383 0 5.98 4.074 10.712 10.054 10.712a11.2 11.2 0 007.787-3.122l.887.985a12.044 12.044 0 01-8.674 3.483c-6.9 0-11.532-5.389-11.532-12.059s4.731-11.725 11.401-11.725z"/><path id="Path_1089" data-name="Path 1089" d="M208.675 1451.886v20.371h-1.412v-20.371zm-9.988-1.315v-1.315h18.564v1.315z"/><path id="Path_1090" data-name="Path 1090" d="M225.715 1449.256h1.508l8.614 23h-1.508l-2.99-7.951h-9.759l-2.96 7.951h-1.508zm5.127 13.735l-3.484-9.332c-.36-.985-.853-2.759-.853-2.759h-.066s-.493 1.774-.855 2.759l-3.519 9.332z"/><path id="Path_1091" data-name="Path 1091" d="M240.861 1449.256h7.722a5.5 5.5 0 015.811 5.173 5.569 5.569 0 010 .578 5.25 5.25 0 01-2.99 5.027v.066a5.718 5.718 0 013.91 5.814 6.089 6.089 0 01-5.82 6.345 5.778 5.778 0 01-.587 0h-8.051zm7.688 10.252a4.209 4.209 0 004.371-4.5 4.13 4.13 0 00-4.4-4.436h-6.245v8.937zm.231 11.435a4.682 4.682 0 005.06-5.028 4.826 4.826 0 00-4.547-5.092 4.527 4.527 0 00-.546 0h-6.472v10.121z"/><path id="Path_1092" data-name="Path 1092" d="M261.459 1449.256h1.414v10.252h4.271l6.568-10.252h1.709l-7.057 10.844v.068l7.524 12.091h-1.71l-7.03-11.434h-4.275v11.434h-1.414z"/><path id="Path_1093" data-name="Path 1093" d="M287.03 1449.256h1.508l8.608 23h-1.507l-2.991-7.951h-9.758l-2.958 7.951h-1.507zm5.125 13.735l-3.482-9.332c-.362-.985-.855-2.759-.855-2.759h-.065s-.492 1.774-.854 2.759l-3.516 9.332z"/><path id="Path_1094" data-name="Path 1094" d="M315.387 1464.306h-14.4l-.414-1.315h14.4z"/><path id="Path_1095" data-name="Path 1095" d="M312.712 1457.353h-14.4l-.413-1.314h14.391z"/><path id="Path_1096" data-name="Path 1096" d="M309.917 1450.571h-14.4l-.413-1.315H309.5z"/></g></g></svg>