<svg xmlns="http://www.w3.org/2000/svg" width="40" height="40" viewBox="0 0 40 40">
  <g id="Group_731" data-name="Group 731" transform="translate(-397.537 -42.542)">
    <path id="Path_1080" data-name="Path 1080" d="M429.412,62a8.056,8.056,0,0,1-.491,2.913,6.609,6.609,0,0,1-1.251,2.074,4.953,4.953,0,0,1-1.583,1.22,4.293,4.293,0,0,1-1.757.411,5.061,5.061,0,0,1-2.312-.459,3.432,3.432,0,0,1-1.362-1.172,21.029,21.029,0,0,1-2.137,1,6.008,6.008,0,0,1-2.328.475,3.894,3.894,0,0,1-2.771-1,3.6,3.6,0,0,1-1.108-2.707,3.079,3.079,0,0,1,.459-1.726,3.883,3.883,0,0,1,1.124-1.124,4.758,4.758,0,0,1,1.425-.633,5.729,5.729,0,0,1,1.378-.19h3.452v-.713a1.977,1.977,0,0,0-.824-1.947,3.976,3.976,0,0,0-2.09-.507,6.036,6.036,0,0,0-1.377.19,4.643,4.643,0,0,0-1.726.934l-1.156-1.583a7.207,7.207,0,0,1,2.264-1.251,7.083,7.083,0,0,1,2.074-.317,5.653,5.653,0,0,1,3.69,1.093,4.008,4.008,0,0,1,1.33,3.277v4.75a1.583,1.583,0,0,0,.506,1.283,2.315,2.315,0,0,0,1.409.38,2.522,2.522,0,0,0,1.125-.285,2.959,2.959,0,0,0,1.013-.887,4.725,4.725,0,0,0,.744-1.488,6.939,6.939,0,0,0,.285-2.09,11.553,11.553,0,0,0-.649-3.864,8.528,8.528,0,0,0-1.853-2.8A8.616,8.616,0,0,0,422,53.311a10.008,10.008,0,0,0-3.832-.744,11.782,11.782,0,0,0-4.211.76,10.716,10.716,0,0,0-3.341,2.059,9.641,9.641,0,0,0-2.28,3.04,10.3,10.3,0,0,0-.839,4.132,9.766,9.766,0,0,0,.744,3.784,9.137,9.137,0,0,0,5.177,5.114,11.222,11.222,0,0,0,4.085.729,9.923,9.923,0,0,0,1.837-.174,11.825,11.825,0,0,0,2.185-.681l.7,1.916a11.126,11.126,0,0,1-2.692.744,17.558,17.558,0,0,1-2.011.142,13.424,13.424,0,0,1-4.861-.855,11.478,11.478,0,0,1-3.752-2.391,10.6,10.6,0,0,1-2.454-3.641,11.95,11.95,0,0,1-.95-4.639,12.215,12.215,0,0,1,1-4.956,11.706,11.706,0,0,1,2.692-3.689,12.416,12.416,0,0,1,3.974-2.439,14.141,14.141,0,0,1,5-.871,12.2,12.2,0,0,1,4.75.871,10.213,10.213,0,0,1,5.748,5.906A13.6,13.6,0,0,1,429.412,62Zm-9.262.934h-3.99a2.355,2.355,0,0,0-.808.238,1.69,1.69,0,0,0-.633.554,1.815,1.815,0,0,0,.316,2.248,2.327,2.327,0,0,0,1.473.443,3.853,3.853,0,0,0,.95-.126,6.406,6.406,0,0,0,.95-.333,8.729,8.729,0,0,0,.887-.443l.775-.428Z" fill="#707070"/>
    <path id="Path_1081" data-name="Path 1081" d="M417.537,43.542a19,19,0,1,1-19,19,19,19,0,0,1,19-19Z" fill="none" stroke="#707070" stroke-miterlimit="10" stroke-width="2"/>
  </g>
</svg>
