<svg xmlns="http://www.w3.org/2000/svg" width="29" height="29" viewBox="0 0 29 29">
  <g id="Group_228" data-name="Group 228" transform="translate(-758.128 -301.057)">
    <g id="Group_21" data-name="Group 21" transform="translate(763.363 306.278)">
      <g id="Layer_1-2" data-name="Layer 1-2">
        <g id="Group_20" data-name="Group 20">
          <path id="Path_25" data-name="Path 25" d="M783.893,323.829l-1.452,1.453a5.761,5.761,0,0,1-4.169,1.548,13.194,13.194,0,0,1-8.846-4.032,14.164,14.164,0,0,1-3.832-6.813c-.56-2.608-.1-4.824,1.322-6.236l1.424-1.471h.833a16.967,16.967,0,0,1,3.429,4.717l.137.315-2.787,2.172a14.33,14.33,0,0,0,6.723,6.771l2.172-2.8.315.138a16.986,16.986,0,0,1,4.717,3.428Zm-15.114-14.68-1.232,1.236c-1.191,1.191-1.572,3.114-1.078,5.412a13.26,13.26,0,0,0,3.573,6.371,12.477,12.477,0,0,0,8.218,3.771,4.9,4.9,0,0,0,3.574-1.286l1.232-1.24a17.269,17.269,0,0,0-3.886-2.857l-2.155,2.769-.31-.114a14.956,14.956,0,0,1-7.727-7.7l-.131-.315,2.775-2.157A17.352,17.352,0,0,0,768.779,309.149Z" transform="translate(-765.363 -308.278)" fill="#fff"/>
        </g>
      </g>
    </g>
    <circle id="Ellipse_48" data-name="Ellipse 48" cx="14" cy="14" r="14" transform="translate(758.628 301.557)" fill="none" stroke="#fff" stroke-miterlimit="10" stroke-width="1"/>
  </g>
</svg>
