<svg xmlns="http://www.w3.org/2000/svg" width="76.619" height="74.297" viewBox="0 0 76.619 74.297">
  <path id="Path_1056" data-name="Path 1056" d="M34.827,67.332a1.161,1.161,0,0,1,0,2.322A34.827,34.827,0,1,1,69.653,34.827a1.161,1.161,0,0,1-2.322,0,32.5,32.5,0,1,0-32.5,32.5ZM62.688,74.3A13.931,13.931,0,1,1,76.619,60.366,13.931,13.931,0,0,1,62.688,74.3Zm0-2.322A11.609,11.609,0,1,0,51.079,60.366,11.609,11.609,0,0,0,62.688,71.975Zm4.984-15.912A1.161,1.161,0,0,1,69.313,57.7L62.348,64.67a1.16,1.16,0,0,1-1.641,0l-3.483-3.483a1.161,1.161,0,0,1,1.641-1.641l2.662,2.662ZM47.6,34.827a1.161,1.161,0,0,1,0,2.322H33.666A1.161,1.161,0,0,1,32.5,35.988v-20.9a1.161,1.161,0,0,1,2.322,0V34.827Z"/>
</svg>
