<svg xmlns="http://www.w3.org/2000/svg" width="42.053" height="39.038" viewBox="0 0 42.053 39.038">
  <g id="Group_682" data-name="Group 682" transform="translate(-196.197 -1275.435)">
    <g id="Group_678" data-name="Group 678" transform="translate(201.426 1288.817)">
      <path id="Path_1049" data-name="Path 1049" d="M227.869,1294.075H199.432a1.576,1.576,0,0,1-1.58-1.58V1281.25a1.578,1.578,0,0,1,1.58-1.58h28.438a1.58,1.58,0,0,1,1.58,1.58v11.245A1.578,1.578,0,0,1,227.869,1294.075Zm-26.858-3.16H226.29v-8.086H201.012Z" transform="translate(-197.852 -1279.67)" fill="#a70033"/>
    </g>
    <g id="Group_679" data-name="Group 679" transform="translate(201.802 1282.124)">
      <path id="Path_1050" data-name="Path 1050" d="M227.988,1287.4H199.551a1.581,1.581,0,0,1-1.58-1.58v-6.692a1.579,1.579,0,0,1,1.58-1.58h28.438a1.577,1.577,0,0,1,1.58,1.58v6.692A1.579,1.579,0,0,1,227.988,1287.4Zm-26.858-3.16h25.278v-3.533H201.131Z" transform="translate(-197.971 -1277.552)" fill="#a70033"/>
    </g>
    <g id="Group_680" data-name="Group 680" transform="translate(201.802 1275.435)">
      <path id="Path_1051" data-name="Path 1051" d="M217.966,1285.283H199.551a1.58,1.58,0,0,1-1.58-1.58v-6.689a1.578,1.578,0,0,1,1.58-1.58h18.415a1.576,1.576,0,0,1,1.58,1.58v6.689A1.578,1.578,0,0,1,217.966,1285.283Zm-16.835-3.16h15.255v-3.529H201.131Z" transform="translate(-197.971 -1275.434)" fill="#a70033"/>
    </g>
    <g id="Group_681" data-name="Group 681" transform="translate(196.197 1300.062)">
      <path id="Path_1052" data-name="Path 1052" d="M236.67,1297.641H197.777a1.579,1.579,0,0,1-1.58-1.58v-11.252a1.578,1.578,0,0,1,1.58-1.58H236.67a1.578,1.578,0,0,1,1.58,1.58v11.252A1.579,1.579,0,0,1,236.67,1297.641Zm-37.313-3.16H235.09v-8.093H199.357Z" transform="translate(-196.197 -1283.229)" fill="#a70033"/>
    </g>
  </g>
</svg>
