<svg xmlns="http://www.w3.org/2000/svg" width="73.678" height="66.056" viewBox="0 0 73.678 66.056">
  <path id="Path_1053" data-name="Path 1053" d="M91.677,28.263a2.3,2.3,0,0,0-2.3-2.153H75.238v-2.5a2.3,2.3,0,0,0-2.3-2.3H36.742a2.3,2.3,0,0,0-2.3,2.3v2.5H20.3A2.3,2.3,0,0,0,18,28.263V29.3A28.031,28.031,0,0,0,32.332,53.958l7.31,4.121a20.072,20.072,0,0,0,8.749,5.675v7.759H41.346a2.3,2.3,0,0,0-2.3,2.3V85.063a2.3,2.3,0,0,0,2.3,2.3H68.33a2.3,2.3,0,0,0,2.3-2.3V73.816a2.3,2.3,0,0,0-2.3-2.3H61.285V63.755a20.072,20.072,0,0,0,8.749-5.675l7.31-4.121A28.031,28.031,0,0,0,91.677,29.3Zm-52.6-2.3H70.633V44.633a15.39,15.39,0,0,1-3.523,9.82,2.3,2.3,0,0,0-.817.909,15.414,15.414,0,0,1-11.132,4.731h-.645a15.414,15.414,0,0,1-11.132-4.754,2.3,2.3,0,0,0-.817-.909,15.39,15.39,0,0,1-3.523-9.82ZM34.6,49.952a23.437,23.437,0,0,1-12-19.236H34.439V44.633a20.251,20.251,0,0,0,.829,5.756ZM66.028,82.761H43.649V76.118H66.028ZM56.68,71.514H53V64.7c.5,0,1,.081,1.52.081h.645a9.464,9.464,0,0,0,1.52-.081ZM75.1,49.952l-.668.38a20.251,20.251,0,0,0,.829-5.756V30.715H87.072a23.438,23.438,0,0,1-12,19.236Z" transform="translate(-17.999 -21.31)"/>
</svg>
