<svg id="Group_639" data-name="Group 639" xmlns="http://www.w3.org/2000/svg" width="25.789" height="23.857" viewBox="0 0 25.789 23.857">
  <path id="Path_1024" data-name="Path 1024" d="M27.855,20.373a2.447,2.447,0,0,0-.516-1.52,2.458,2.458,0,0,0,.95-1.982,2.491,2.491,0,0,0-2.5-2.5c-.977,0-2.389,0-3.61.027-.543.027-1.656.027-3.2-.027.652-1.982,1.466-4.506,1.629-5.375a2.441,2.441,0,0,0-1.846-2.85,2.578,2.578,0,0,0-3.2,1.3c-.76,1.873-3.149,6.271-5.728,7.872a.72.72,0,0,0-.163.136,2.034,2.034,0,0,0-1.3-.489H4.536A2.033,2.033,0,0,0,2.5,17.006v9.963a2.033,2.033,0,0,0,2.036,2.036H8.309a2.116,2.116,0,0,0,1.574-.733,9.5,9.5,0,0,0,5.375,1.6h9.23a2.491,2.491,0,0,0,2.5-2.5,2.447,2.447,0,0,0-.516-1.52,2.524,2.524,0,0,0,.434-3.5A2.539,2.539,0,0,0,27.855,20.373ZM8.879,27a.545.545,0,0,1-.543.543h-3.8A.545.545,0,0,1,3.993,27v-9.99a.545.545,0,0,1,.543-.543H8.309a.545.545,0,0,1,.543.543V27Zm16.912-9.121H25.71a.68.68,0,0,0-.679.624v.109a.716.716,0,0,0,.516.76h0a1.04,1.04,0,0,1,.787.869,1.013,1.013,0,0,1-1,1.113h-.081a.68.68,0,0,0-.679.624v.109a.716.716,0,0,0,.516.76h0a1.04,1.04,0,0,1,.787.869,1.013,1.013,0,0,1-1,1.113h-.081a.68.68,0,0,0-.679.624v.109a.716.716,0,0,0,.516.76h0a1.04,1.04,0,0,1,.787.869,1.013,1.013,0,0,1-1,1.113h-9.23a7.135,7.135,0,0,1-4.886-1.656l.027-9.773a.433.433,0,0,1,.217-.38c3.149-1.927,5.7-6.977,6.325-8.578.19-.461.842-.57,1.384-.407a.982.982,0,0,1,.814,1.14c-.109.6-.679,2.5-1.574,5.158a1.7,1.7,0,0,0-.081.516,1.534,1.534,0,0,0,1.52,1.52h3.23c1.167-.027,2.579-.027,3.529-.027a1.046,1.046,0,0,1,1.032.814A.949.949,0,0,1,25.792,17.875Z" transform="translate(-2.5 -6.017)" fill="#72c463"/>
  <circle id="Ellipse_65" data-name="Ellipse 65" cx="0.768" cy="0.768" r="0.768" transform="translate(4.222 18.443)" fill="#72c463"/>
</svg>
