<svg xmlns="http://www.w3.org/2000/svg" width="210" height="50" viewBox="0 0 210 50">
  <g id="Group_956" data-name="Group 956" transform="translate(-200 -800)">
    <g id="Group_955" data-name="Group 955" transform="translate(200 822.199)">
      <path id="Path_863" data-name="Path 863" d="M211.776,842.176v2.843h-1.343v-2.843c-6.217,0-10.433-3.4-10.433-9.121,0-5.325,3.658-8.644,9.184-9.074v1.191c-4.8.4-7.779,3.159-7.779,7.884,0,5.123,3.5,7.935,9.029,7.935V821.216h1.342v2.718c6.186,0,10.434,3.4,10.434,9.121,0,5.324-3.659,8.643-9.184,9.074v-1.191c4.8-.4,7.778-3.159,7.778-7.885,0-5.122-3.5-7.934-9.028-7.934v17.056Z" transform="translate(-200 -821.216)"/>
      <path id="Path_864" data-name="Path 864" d="M236.64,822.4a11.039,11.039,0,0,1,11.058,11.02v.132a11.065,11.065,0,1,1-22.116,0A11.04,11.04,0,0,1,236.508,822.4Zm0,21.335a9.844,9.844,0,0,0,9.652-10.183,9.655,9.655,0,1,0-19.305,0A9.845,9.845,0,0,0,236.64,843.738Z" transform="translate(-200 -821.216)"/>
      <path id="Path_865" data-name="Path 865" d="M258.319,825.277v19.367h-1.343V825.277Zm-9.5-1.249v-1.25h17.649v1.25Z" transform="translate(-200 -821.216)"/>
      <path id="Path_866" data-name="Path 866" d="M324.072,825.277v19.367h-1.343V825.277Zm-9.5-1.249v-1.25h17.649v1.25Z" transform="translate(-200 -821.216)"/>
      <path id="Path_867" data-name="Path 867" d="M278.654,822.4a11.041,11.041,0,0,1,11.059,11.02c0,.044,0,.088,0,.132a11.065,11.065,0,1,1-22.115,0A11.038,11.038,0,0,1,278.523,822.4Zm0,21.335a9.844,9.844,0,0,0,9.653-10.183,9.655,9.655,0,1,0-19.3,0A9.844,9.844,0,0,0,278.654,843.738Z" transform="translate(-200 -821.216)"/>
      <path id="Path_868" data-name="Path 868" d="M304.268,822.4a11.5,11.5,0,0,1,7.809,2.749l-.812,1a10.845,10.845,0,0,0-6.966-2.468c-5.558,0-9.465,4.217-9.465,9.871,0,5.685,3.874,10.183,9.559,10.183a10.649,10.649,0,0,0,7.4-2.968l.844.938a11.459,11.459,0,0,1-8.247,3.311c-6.56,0-10.965-5.123-10.965-11.464S297.927,822.4,304.268,822.4Z" transform="translate(-200 -821.216)"/>
      <path id="Path_869" data-name="Path 869" d="M336.907,842.708a4.867,4.867,0,0,0,2.561,1.061c1.593,0,2.218-1.343,3-3.436l-8.746-17.557h1.5l6.622,13.307c.625,1.25,1.25,2.812,1.25,2.812h.062s.53-1.562,1-2.812l5-13.307h1.468l-7.341,18.93c-.75,1.905-1.9,3.31-3.81,3.31a5.97,5.97,0,0,1-3.28-1.249Z" transform="translate(-200 -821.216)"/>
      <path id="Path_870" data-name="Path 870" d="M352.15,843.4c3.593-4.561,3.873-11.246,3.873-16.587v-4.03h11.309V843.4h2.437v5.622h-1.312v-4.373h-17.15v4.373h-1.345V843.4Zm13.838,0V824.028h-8.652v2.749c0,5.748-.5,12.245-3.655,16.619Z" transform="translate(-200 -821.216)"/>
      <path id="Path_871" data-name="Path 871" d="M374.485,822.778h1.343v17.149c0,1.094-.156,2.749-.156,2.749h.062s1.187-1.842,1.906-2.842l12.338-17.056h1.252v21.867h-1.343v-17.15c0-1.093.156-2.748.156-2.748h-.063s-1.093,1.749-1.812,2.748l-12.432,17.15h-1.25Z" transform="translate(-200 -821.216)"/>
      <path id="Path_872" data-name="Path 872" d="M401.067,835.648c.281-.469.5-.781.5-.781V834.8c-3.093-.75-4.624-3-4.624-6.122a5.606,5.606,0,0,1,3.03-5.25,8.314,8.314,0,0,1,3.936-.656H410v21.866h-1.343v-9.681h-5.591l-5.873,9.683H395.6Zm7.59-1.937v-9.683h-4.685a6.894,6.894,0,0,0-3.062.437,4.439,4.439,0,0,0-2.561,4.217c0,2.968,1.812,5.029,4.685,5.029Z" transform="translate(-200 -821.216)"/>
    </g>
    <g id="Group_535" data-name="Group 535" transform="translate(251.919 800)">
      <g id="Group_524" data-name="Group 524" transform="translate(4.664 2.965)">
        <g id="Group_519" data-name="Group 519" transform="translate(0 0.082)">
          <path id="Path_873" data-name="Path 873" d="M256.583,803.047h1.738c.946,0,1.606.423,1.606,1.235a1.154,1.154,0,0,1-.548,1.005v.013a1.058,1.058,0,0,1,.74,1.064c0,1.031-.859,1.407-1.8,1.407h-1.738Zm1.752,1.831a.4.4,0,0,0,.418-.381.539.539,0,0,0,0-.056.385.385,0,0,0-.362-.406.468.468,0,0,0-.075,0h-.573v.838Zm.1,1.9a.469.469,0,0,0,.5-.434.324.324,0,0,0,0-.062.453.453,0,0,0-.423-.483.436.436,0,0,0-.072,0h-.7v.978Z" transform="translate(-256.583 -803.047)" fill="#231f20"/>
        </g>
        <g id="Group_520" data-name="Group 520" transform="translate(3.979)">
          <path id="Path_874" data-name="Path 874" d="M263.035,802.968a2.367,2.367,0,0,1,2.469,2.261c0,.05,0,.1,0,.151a2.472,2.472,0,0,1-4.944,0,2.368,2.368,0,0,1,2.32-2.414C262.933,802.965,262.984,802.965,263.035,802.968Zm0,3.827a1.309,1.309,0,0,0,1.279-1.338c0-.026,0-.051,0-.077a1.28,1.28,0,1,0-2.552,0,1.31,1.31,0,0,0,1.2,1.411Z" transform="translate(-260.562 -802.965)" fill="#231f20"/>
        </g>
        <g id="Group_521" data-name="Group 521" transform="translate(9.249 0.003)">
          <path id="Path_875" data-name="Path 875" d="M266.44,806.3a1.905,1.905,0,0,0,1.137.489c.324,0,.489-.146.489-.331,0-.667-2.088-.561-2.088-2.042a1.523,1.523,0,0,1,1.711-1.448,2.237,2.237,0,0,1,1.481.536l-.489.945a1.711,1.711,0,0,0-1.044-.416c-.351,0-.5.145-.5.337,0,.674,2.089.516,2.089,2.009a1.5,1.5,0,0,1-1.679,1.474,2.443,2.443,0,0,1-1.712-.674Z" transform="translate(-265.832 -802.969)" fill="#231f20"/>
        </g>
        <g id="Group_522" data-name="Group 522" transform="translate(13.054 0)">
          <path id="Path_876" data-name="Path 876" d="M272.119,802.968a2.541,2.541,0,0,1,1.771.667l-.536.873a1.933,1.933,0,0,0-1.182-.483,1.256,1.256,0,0,0-1.336,1.169,1.215,1.215,0,0,0,0,.181,1.32,1.32,0,0,0,1.215,1.417c.04,0,.08,0,.12,0a1.864,1.864,0,0,0,1.255-.582l.6.846a2.576,2.576,0,0,1-1.9.794,2.349,2.349,0,0,1-2.477-2.213,2.555,2.555,0,0,1,2.327-2.675C272.018,802.965,272.068,802.966,272.119,802.968Z" transform="translate(-269.637 -802.966)" fill="#231f20"/>
        </g>
        <g id="Group_523" data-name="Group 523" transform="translate(17.626)">
          <path id="Path_877" data-name="Path 877" d="M276.683,802.968a2.366,2.366,0,0,1,2.468,2.261c0,.05,0,.1,0,.151a2.472,2.472,0,0,1-4.944,0,2.367,2.367,0,0,1,2.318-2.414C276.579,802.965,276.631,802.965,276.683,802.968Zm0,3.827a1.309,1.309,0,0,0,1.279-1.338c0-.025,0-.051,0-.077a1.279,1.279,0,1,0-2.55-.2,1.128,1.128,0,0,0,0,.2,1.309,1.309,0,0,0,1.2,1.411Z" transform="translate(-274.209 -802.965)" fill="#231f20"/>
        </g>
      </g>
      <g id="Group_533" data-name="Group 533" transform="translate(35.997 3.121)">
        <g id="Group_525" data-name="Group 525" transform="translate(0 0.005)">
          <path id="Path_878" data-name="Path 878" d="M287.916,803.126h.655v4.666h-.655Z" transform="translate(-287.916 -803.126)" fill="#231f20"/>
        </g>
        <g id="Group_526" data-name="Group 526" transform="translate(1.821 0.005)">
          <path id="Path_879" data-name="Path 879" d="M289.737,803.126h.647l2.082,3.027c.165.258.384.681.384.681h.012s-.039-.417-.039-.681v-3.027h.648v4.666h-.641l-2.082-3.027c-.165-.257-.383-.68-.383-.68h-.014s.04.416.04.68v3.027h-.654Z" transform="translate(-289.737 -803.126)" fill="#231f20"/>
        </g>
        <g id="Group_527" data-name="Group 527" transform="translate(6.194 0.005)">
          <path id="Path_880" data-name="Path 880" d="M295.718,803.7H294.11v-.569h3.859v.569h-1.606v4.1h-.648Z" transform="translate(-294.11 -803.126)" fill="#231f20"/>
        </g>
        <g id="Group_528" data-name="Group 528" transform="translate(10.694 0.005)">
          <path id="Path_881" data-name="Path 881" d="M298.612,803.126h2.715v.569h-2.063v1.46h1.672v.568h-1.672v1.5h2.175v.569H298.61Z" transform="translate(-298.61 -803.126)" fill="#231f20"/>
        </g>
        <g id="Group_529" data-name="Group 529" transform="translate(14.265)">
          <path id="Path_882" data-name="Path 882" d="M302.183,803.126h1.481a2.031,2.031,0,0,1,.866.126,1.263,1.263,0,0,1,.74,1.221,1.307,1.307,0,0,1-.833,1.282v.013a1.6,1.6,0,0,1,.132.212l.991,1.811h-.741l-.985-1.858h-1v1.858h-.655Zm1.593,2.241a.8.8,0,0,0,.835-.752.951.951,0,0,0,0-.107.745.745,0,0,0-.436-.734,1.345,1.345,0,0,0-.562-.079h-.773v1.672Z" transform="translate(-302.181 -803.121)" fill="#231f20"/>
        </g>
        <g id="Group_530" data-name="Group 530" transform="translate(18.367 0.005)">
          <path id="Path_883" data-name="Path 883" d="M306.283,803.126h.648l2.081,3.027c.166.258.384.681.384.681h.013s-.04-.417-.04-.681v-3.027h.648v4.666h-.641l-2.082-3.027c-.165-.257-.383-.68-.383-.68H306.9s.04.416.04.68v3.027h-.655Z" transform="translate(-306.283 -803.126)" fill="#231f20"/>
        </g>
        <g id="Group_531" data-name="Group 531" transform="translate(23.278 0.005)">
          <path id="Path_884" data-name="Path 884" d="M311.194,803.126h2.717v.569h-2.062v1.46h1.672v.568h-1.672v1.5h2.174v.569h-2.829Z" transform="translate(-311.194 -803.126)" fill="#231f20"/>
        </g>
        <g id="Group_532" data-name="Group 532" transform="translate(26.523 0.005)">
          <path id="Path_885" data-name="Path 885" d="M316.045,803.7h-1.606v-.569h3.86v.569h-1.607v4.1h-.647Z" transform="translate(-314.439 -803.126)" fill="#231f20"/>
        </g>
      </g>
      <g id="Group_534" data-name="Group 534" transform="translate(68.477 3.046)">
        <path id="Path_886" data-name="Path 886" d="M322.8,805.333v-.012a1.092,1.092,0,0,0,.582-1.005,1.2,1.2,0,0,0-1.355-1.191H320.4v4.666h1.672a1.345,1.345,0,0,0,1.507-1.328A1.123,1.123,0,0,0,322.8,805.333ZM321.05,803.7h.971a.639.639,0,0,1,.693.582.731.731,0,0,1,0,.105.662.662,0,0,1-.616.7c-.024,0-.048,0-.072,0h-.977Zm1.051,3.529H321.05v-1.593H322.1a.751.751,0,0,1,.8.7.779.779,0,0,1,0,.1.744.744,0,0,1-.683.8A.764.764,0,0,1,322.1,807.224Z" transform="translate(-320.396 -803.046)" fill="#231f20"/>
        <path id="Path_887" data-name="Path 887" d="M326.562,803.047a2.335,2.335,0,0,0-2.4,2.267c0,.038,0,.075,0,.113a2.4,2.4,0,1,0,4.791.112c0-.037,0-.075,0-.112a2.328,2.328,0,0,0-2.276-2.38Zm0,4.223a1.743,1.743,0,0,1-1.728-1.758c0-.029,0-.057,0-.085a1.723,1.723,0,0,1,3.444-.111q0,.056,0,.111a1.741,1.741,0,0,1-1.637,1.84Z" transform="translate(-320.396 -803.046)" fill="#231f20"/>
        <path id="Path_888" data-name="Path 888" d="M332.814,806.127a1.18,1.18,0,0,1-2.359.007v-3.008H329.8v3.014a1.837,1.837,0,0,0,3.668,0v-3.014h-.655Z" transform="translate(-320.396 -803.046)" fill="#231f20"/>
        <path id="Path_889" data-name="Path 889" d="M335.69,807.792h.648v-4.1h1.606v-.569h-3.86v.569h1.606Z" transform="translate(-320.396 -803.046)" fill="#231f20"/>
        <rect id="Rectangle_141" data-name="Rectangle 141" width="0.654" height="4.666" transform="translate(18.188 0.08)" fill="#231f20"/>
        <path id="Path_890" data-name="Path 890" d="M344.912,805.433a2.393,2.393,0,0,0-4.785,0,2.364,2.364,0,0,0,2.289,2.437c.032,0,.065,0,.1,0a2.291,2.291,0,0,0,1.481-.508l0,0c.566.574.824,1.112.721,1.53-.12.485-.706.745-1.18.879a2.841,2.841,0,0,0-1.7,1.162.279.279,0,0,0,.107.381h0a.275.275,0,0,0,.137.036.28.28,0,0,0,.244-.143,2.359,2.359,0,0,1,1.368-.9c1.113-.317,1.469-.873,1.571-1.283a2.288,2.288,0,0,0-.878-2.069A2.428,2.428,0,0,0,344.912,805.433Zm-2.4,1.837a1.75,1.75,0,0,1-1.713-1.787l0-.05a1.72,1.72,0,0,1,3.436-.174,1.689,1.689,0,0,1,0,.174,1.894,1.894,0,0,1-.343,1.1l-.536-.548-.376.409.548.536a1.618,1.618,0,0,1-1.016.343Z" transform="translate(-320.396 -803.046)" fill="#231f20"/>
        <path id="Path_891" data-name="Path 891" d="M348.793,806.127a1.18,1.18,0,0,1-2.359.007v-3.008h-.655v3.014a1.837,1.837,0,0,0,3.669,0v-3.014h-.655Z" transform="translate(-320.396 -803.046)" fill="#231f20"/>
        <path id="Path_892" data-name="Path 892" d="M351.24,807.224v-1.5h1.673v-.569H351.24V803.7H353.3v-.569h-2.716v4.666h2.828v-.568Z" transform="translate(-320.396 -803.046)" fill="#231f20"/>
        <path id="Path_893" data-name="Path 893" d="M343.4,810.871a.28.28,0,0,0-.325.226l-.321,1.77-5.739,2.74-1.585-3.276,5.738-2.74.7.373a.281.281,0,1,0,.265-.495h0l-.949-.506-6.5,3.1,2.073,4.285,6.5-3.1.372-2.052a.281.281,0,0,0-.226-.326Z" transform="translate(-320.396 -803.046)" fill="#231f20"/>
        <path id="Path_894" data-name="Path 894" d="M341.555,810.817a.419.419,0,0,1,.066-.027.281.281,0,0,0-.172-.534,1.154,1.154,0,0,0-.137.055,1.071,1.071,0,1,0,1.313,1.621.28.28,0,0,0-.441-.343.511.511,0,1,1-.806-.627.523.523,0,0,1,.18-.146Z" transform="translate(-320.396 -803.046)" fill="#231f20"/>
      </g>
      <path id="Path_895" data-name="Path 895" d="M251.919,800v10.818h81.572v-.561h-49.7v-9.7h73.732v9.7H345.8v.561h12.286V800Zm31.31,10.258H252.481v-9.7h30.748Z" transform="translate(-251.919 -800)" fill="#231f20"/>
    </g>
  </g>
</svg>
