<svg xmlns="http://www.w3.org/2000/svg" width="429.916" height="106.753" viewBox="0 0 429.916 106.753">
  <g id="Group_582" data-name="Group 582" transform="translate(-92.541 -252.68)">
    <path id="Path_950" data-name="Path 950" d="M98.079,348.865c8.577-10.889,9.248-26.849,9.248-39.6v-9.621h27v49.222h5.817v13.424H137.01V351.848H96.065v10.441H92.859V348.865Zm33.039,0V302.627H110.459v6.562c0,13.723-1.193,29.235-8.725,39.676Z" transform="translate(-0.019 -2.856)"/>
    <path id="Path_951" data-name="Path 951" d="M176.23,298.69a26.356,26.356,0,0,1,26.4,26.625c0,15.362-11.857,27.37-26.4,27.37s-26.4-12.008-26.4-27.37A26.356,26.356,0,0,1,176.23,298.69Zm0,50.937c12.753,0,23.045-10.59,23.045-24.312,0-13.35-10.292-23.567-23.045-23.567s-23.044,10.217-23.044,23.567C153.186,339.037,163.477,349.627,176.23,349.627Z" transform="translate(-3.484 -2.798)"/>
    <path id="Path_952" data-name="Path 952" d="M240.381,298.69c6.563,0,13.723,1.939,18.645,6.563l-1.939,2.386c-4.251-3.8-10.739-5.892-16.631-5.892-13.275,0-22.6,10.068-22.6,23.567,0,13.573,9.247,24.312,22.821,24.312a25.439,25.439,0,0,0,17.676-7.085l2.013,2.238a27.346,27.346,0,0,1-19.688,7.905c-15.661,0-26.177-12.231-26.177-27.37S225.242,298.69,240.381,298.69Z" transform="translate(-7.416 -2.798)"/>
    <path id="Path_953" data-name="Path 953" d="M290.935,305.611v46.237h-3.207V305.611Zm-22.672-2.984v-2.984H310.4v2.984Z" transform="translate(-10.685 -2.856)"/>
    <path id="Path_954" data-name="Path 954" d="M332.319,299.643h3.432l19.539,52.205h-3.431L345.073,333.8h-22.15l-6.712,18.048H312.78Zm11.635,31.174-7.905-21.18c-.82-2.237-1.939-6.264-1.939-6.264h-.149s-1.119,4.027-1.939,6.264l-7.979,21.18Z" transform="translate(-13.392 -2.856)"/>
    <path id="Path_955" data-name="Path 955" d="M370.185,299.643h17.526c7.607,0,13.2,5.072,13.2,13.052,0,5.667-2.759,9.471-6.787,11.41v.149c5.146,1.416,8.875,6.488,8.875,13.2,0,8.726-6.19,14.394-14.543,14.394H370.185Zm17.452,23.269c5.816,0,9.919-4.027,9.919-10.217,0-6.116-3.878-10.068-9.994-10.068h-14.17v20.285Zm.522,25.954c7.01,0,11.484-4.326,11.484-11.411s-4.847-11.56-11.56-11.56H373.392v22.971Z" transform="translate(-16.883 -2.856)"/>
    <path id="Path_956" data-name="Path 956" d="M419.966,299.643h3.207v23.269h9.7l14.915-23.269h3.878l-16.034,24.612v.148l17.079,27.445h-3.879l-15.96-25.954h-9.7v25.954h-3.207Z" transform="translate(-19.91 -2.856)"/>
    <path id="Path_957" data-name="Path 957" d="M480.5,299.643h3.432l19.54,52.205h-3.432L493.25,333.8H471.1l-6.711,18.048h-3.431Zm11.635,31.174-7.905-21.18c-.82-2.237-1.939-6.264-1.939-6.264h-.149s-1.118,4.027-1.938,6.264l-7.979,21.18Z" transform="translate(-22.402 -2.856)"/>
    <g id="Group_581" data-name="Group 581" transform="translate(92.541 252.68)">
      <g id="Group_570" data-name="Group 570" transform="translate(8.887 5.649)">
        <g id="Group_565" data-name="Group 565" transform="translate(0 0.151)">
          <path id="Path_958" data-name="Path 958" d="M102,258.856h3.31c1.8,0,3.058.806,3.058,2.354a2.2,2.2,0,0,1-1.044,1.913v.025a2.017,2.017,0,0,1,1.41,2.026c0,1.964-1.636,2.68-3.423,2.68H102Zm3.335,3.486a.761.761,0,0,0,.793-.83.732.732,0,0,0-.83-.768h-1.1v1.6Zm.189,3.624a.893.893,0,0,0,.956-.944.865.865,0,0,0-.944-.919h-1.334v1.862Z" transform="translate(-102.003 -258.856)" fill="#231f20"/>
        </g>
        <g id="Group_566" data-name="Group 566" transform="translate(7.575)">
          <path id="Path_959" data-name="Path 959" d="M114.775,258.7a4.508,4.508,0,0,1,4.707,4.594,4.707,4.707,0,1,1-9.414,0A4.508,4.508,0,0,1,114.775,258.7Zm0,7.287a2.492,2.492,0,0,0,2.429-2.694,2.434,2.434,0,1,0-4.858,0A2.493,2.493,0,0,0,114.775,265.982Z" transform="translate(-110.068 -258.695)" fill="#231f20"/>
        </g>
        <g id="Group_567" data-name="Group 567" transform="translate(17.608)">
          <path id="Path_960" data-name="Path 960" d="M121.909,265.038a3.627,3.627,0,0,0,2.165.932c.616,0,.932-.277.932-.629,0-1.272-3.977-1.07-3.977-3.889,0-1.661,1.371-2.757,3.259-2.757a4.251,4.251,0,0,1,2.819,1.02l-.932,1.8a3.246,3.246,0,0,0-1.988-.793c-.667,0-.956.277-.956.641,0,1.284,3.977.981,3.977,3.826,0,1.51-1.12,2.806-3.2,2.806a4.655,4.655,0,0,1-3.26-1.284Z" transform="translate(-120.751 -258.695)" fill="#231f20"/>
        </g>
        <g id="Group_568" data-name="Group 568" transform="translate(24.86)">
          <path id="Path_961" data-name="Path 961" d="M133.192,258.7a4.836,4.836,0,0,1,3.373,1.272l-1.018,1.661a3.686,3.686,0,0,0-2.253-.919,2.39,2.39,0,0,0-2.542,2.568,2.514,2.514,0,0,0,2.542,2.706,3.551,3.551,0,0,0,2.391-1.107l1.133,1.611a4.91,4.91,0,0,1-3.625,1.51,4.472,4.472,0,0,1-4.719-4.669A4.534,4.534,0,0,1,133.192,258.7Z" transform="translate(-128.473 -258.695)" fill="#231f20"/>
        </g>
        <g id="Group_569" data-name="Group 569" transform="translate(33.563)">
          <path id="Path_962" data-name="Path 962" d="M142.446,258.7a4.508,4.508,0,0,1,4.707,4.594,4.707,4.707,0,1,1-9.414,0A4.508,4.508,0,0,1,142.446,258.7Zm0,7.287a2.492,2.492,0,0,0,2.429-2.694,2.433,2.433,0,1,0-4.858,0A2.492,2.492,0,0,0,142.446,265.982Z" transform="translate(-137.739 -258.695)" fill="#231f20"/>
        </g>
      </g>
      <g id="Group_579" data-name="Group 579" transform="translate(68.548 5.952)">
        <g id="Group_571" data-name="Group 571">
          <path id="Path_963" data-name="Path 963" d="M165.527,259.017h1.246V267.9h-1.246Z" transform="translate(-165.527 -259.017)" fill="#231f20"/>
        </g>
        <g id="Group_572" data-name="Group 572" transform="translate(3.467)">
          <path id="Path_964" data-name="Path 964" d="M169.218,259.017h1.233l3.964,5.764c.315.491.731,1.3.731,1.3h.024s-.075-.794-.075-1.3v-5.764h1.233V267.9h-1.221l-3.964-5.765c-.315-.49-.73-1.3-.73-1.3h-.025s.075.793.075,1.3V267.9h-1.245Z" transform="translate(-169.218 -259.017)" fill="#231f20"/>
        </g>
        <g id="Group_573" data-name="Group 573" transform="translate(11.798)">
          <path id="Path_965" data-name="Path 965" d="M181.147,260.1h-3.058v-1.082h7.35V260.1h-3.058v7.8h-1.234Z" transform="translate(-178.089 -259.017)" fill="#231f20"/>
        </g>
        <g id="Group_574" data-name="Group 574" transform="translate(20.368)">
          <path id="Path_966" data-name="Path 966" d="M187.214,259.017h5.173V260.1h-3.928v2.782h3.185v1.082h-3.185v2.857H192.6V267.9h-5.386Z" transform="translate(-187.214 -259.017)" fill="#231f20"/>
        </g>
        <g id="Group_575" data-name="Group 575" transform="translate(27.169)">
          <path id="Path_967" data-name="Path 967" d="M194.455,259.017h2.819a3.858,3.858,0,0,1,1.648.239,2.4,2.4,0,0,1,1.41,2.329,2.488,2.488,0,0,1-1.585,2.441v.025a3.056,3.056,0,0,1,.252.4l1.888,3.449h-1.41l-1.875-3.537h-1.9V267.9h-1.246Zm3.034,4.267a1.514,1.514,0,0,0,1.586-1.636,1.42,1.42,0,0,0-.831-1.4,2.543,2.543,0,0,0-1.07-.151H195.7v3.185Z" transform="translate(-194.455 -259.017)" fill="#231f20"/>
        </g>
        <g id="Group_576" data-name="Group 576" transform="translate(34.976)">
          <path id="Path_968" data-name="Path 968" d="M202.767,259.017H204l3.963,5.764c.316.491.731,1.3.731,1.3h.025s-.076-.794-.076-1.3v-5.764h1.233V267.9h-1.221l-3.963-5.765c-.316-.49-.731-1.3-.731-1.3h-.025s.076.793.076,1.3V267.9h-1.246Z" transform="translate(-202.767 -259.017)" fill="#231f20"/>
        </g>
        <g id="Group_577" data-name="Group 577" transform="translate(44.328)">
          <path id="Path_969" data-name="Path 969" d="M212.725,259.017H217.9V260.1h-3.926v2.782h3.184v1.082h-3.184v2.857h4.14V267.9h-5.386Z" transform="translate(-212.725 -259.017)" fill="#231f20"/>
        </g>
        <g id="Group_578" data-name="Group 578" transform="translate(50.507)">
          <path id="Path_970" data-name="Path 970" d="M222.363,260.1H219.3v-1.082h7.35V260.1H223.6v7.8h-1.233Z" transform="translate(-219.304 -259.017)" fill="#231f20"/>
        </g>
      </g>
      <g id="Group_580" data-name="Group 580" transform="translate(130.399 5.8)">
        <path id="Path_971" data-name="Path 971" d="M235.963,263.221V263.2a2.079,2.079,0,0,0,1.107-1.913,2.281,2.281,0,0,0-2.58-2.265h-3.109V267.9h3.184c1.561,0,2.87-.857,2.87-2.53A2.136,2.136,0,0,0,235.963,263.221Zm-3.335-3.122h1.85a1.219,1.219,0,0,1,1.321,1.309,1.258,1.258,0,0,1-1.308,1.347h-1.862Zm2,6.721h-2v-3.033h2a1.43,1.43,0,0,1,1.522,1.51A1.414,1.414,0,0,1,234.63,266.82Z" transform="translate(-231.382 -258.866)" fill="#231f20"/>
        <path id="Path_972" data-name="Path 972" d="M243.589,258.856a4.444,4.444,0,0,0-4.569,4.531,4.563,4.563,0,1,0,9.124,0A4.433,4.433,0,0,0,243.589,258.856Zm0,8.042a3.32,3.32,0,0,1-3.285-3.512,3.281,3.281,0,1,1,6.557,0A3.317,3.317,0,0,1,243.589,266.9Z" transform="translate(-231.846 -258.856)" fill="#231f20"/>
        <path id="Path_973" data-name="Path 973" d="M256.189,264.731a2.248,2.248,0,0,1-4.493.012v-5.726h-1.245v5.738a3.5,3.5,0,0,0,6.985,0v-5.738h-1.246Z" transform="translate(-232.542 -258.866)" fill="#231f20"/>
        <path id="Path_974" data-name="Path 974" d="M262.194,267.9h1.234v-7.8h3.058v-1.083h-7.35V260.1h3.058Z" transform="translate(-233.07 -258.866)" fill="#231f20"/>
        <rect id="Rectangle_141" data-name="Rectangle 141" width="1.246" height="8.885" transform="translate(34.635 0.151)" fill="#231f20"/>
        <path id="Path_975" data-name="Path 975" d="M280.5,263.4a4.556,4.556,0,0,0-9.112,0,4.5,4.5,0,0,0,4.544,4.643,4.353,4.353,0,0,0,2.819-.968l0-.006c1.078,1.089,1.569,2.117,1.372,2.912-.228.92-1.348,1.419-2.247,1.675a5.413,5.413,0,0,0-3.242,2.213.535.535,0,0,0,.206.727.528.528,0,0,0,.26.068.534.534,0,0,0,.466-.273,4.5,4.5,0,0,1,2.6-1.707c2.12-.6,2.8-1.662,2.99-2.444.3-1.193-.287-2.552-1.671-3.94A4.618,4.618,0,0,0,280.5,263.4Zm-4.568,3.5a3.334,3.334,0,0,1-3.259-3.5,3.275,3.275,0,1,1,6.544,0,3.613,3.613,0,0,1-.655,2.089l-1.02-1.044-.717.78,1.044,1.019A3.08,3.08,0,0,1,275.932,266.9Z" transform="translate(-233.815 -258.856)" fill="#231f20"/>
        <path id="Path_976" data-name="Path 976" d="M288.587,264.731a2.247,2.247,0,0,1-4.492.012v-5.726h-1.246v5.738a3.5,3.5,0,0,0,6.985,0v-5.738h-1.246Z" transform="translate(-234.512 -258.866)" fill="#231f20"/>
        <path id="Path_977" data-name="Path 977" d="M293.84,266.82v-2.857h3.184v-1.082H293.84V260.1h3.927v-1.083h-5.173V267.9h5.387V266.82Z" transform="translate(-235.104 -258.866)" fill="#231f20"/>
        <path id="Path_978" data-name="Path 978" d="M276.958,274.485a.533.533,0,0,0-.62.43l-.611,3.37L264.8,283.5l-3.018-6.239,10.927-5.218,1.331.711a.534.534,0,0,0,.5-.942l-1.806-.965-12.381,5.913,3.946,8.161,12.38-5.912.709-3.908A.534.534,0,0,0,276.958,274.485Z" transform="translate(-233.144 -259.585)" fill="#231f20"/>
        <path id="Path_979" data-name="Path 979" d="M274.179,274.538a1.1,1.1,0,0,1,.126-.051.534.534,0,1,0-.329-1.015,2.088,2.088,0,0,0-.26.1,2.04,2.04,0,0,0,.218,3.762,2.032,2.032,0,0,0,1.559-.091,2.019,2.019,0,0,0,.723-.585.534.534,0,0,0-.843-.654.971.971,0,0,1-1.088.321.972.972,0,0,1-.106-1.792Z" transform="translate(-233.886 -259.743)" fill="#231f20"/>
      </g>
      <path id="Path_980" data-name="Path 980" d="M92.541,252.68v20.6H247.877v-1.068H153.232V253.747h140.4v18.465H271.308v1.068h23.4v-20.6Zm59.623,19.532H93.608V253.747h58.556Z" transform="translate(-92.541 -252.68)" fill="#231f20"/>
    </g>
    <path id="Path_981" data-name="Path 981" d="M548.115,335.819H515.44l-.939-2.983h32.675Z" transform="translate(-25.658 -4.874)"/>
    <path id="Path_982" data-name="Path 982" d="M541.652,319.017H508.977l-.939-2.983h32.675Z" transform="translate(-25.265 -3.852)"/>
    <path id="Path_983" data-name="Path 983" d="M534.9,302.626H502.223l-.939-2.983h32.675Z" transform="translate(-24.854 -2.856)"/>
  </g>
</svg>
