<svg xmlns="http://www.w3.org/2000/svg" width="440" height="102.703" viewBox="0 0 440 102.703">
  <g id="Group_742" data-name="Group 742" transform="translate(-595 2)">
    <g id="Group_536" data-name="Group 536" transform="translate(7.997 -748.327)">
      <path id="Path_863" data-name="Path 863" d="M611.676,834.7v5.955h-2.813V834.7c-13.026,0-21.86-7.134-21.86-19.112,0-11.157,7.665-18.11,19.242-19.011v2.495c-10.06.838-16.3,6.617-16.3,16.518,0,10.734,7.33,16.625,18.916,16.625V790.78h2.813v5.694c12.96,0,21.86,7.134,21.86,19.111,0,11.156-7.665,18.11-19.242,19.012v-2.5c10.06-.837,16.3-6.617,16.3-16.519,0-10.733-7.33-16.625-18.916-16.625V834.7Z"/>
      <path id="Path_864" data-name="Path 864" d="M663.772,793.267a23.13,23.13,0,0,1,23.17,23.09c0,.092,0,.184,0,.276,0,13.483-10.407,24.02-23.169,24.02S640.6,830.116,640.6,816.633A23.13,23.13,0,0,1,663.5,793.268Zm0,44.7c11.192,0,20.224-9.294,20.224-21.337,0-11.716-9.033-20.682-20.224-20.682s-20.224,8.965-20.224,20.682C643.548,828.676,652.581,837.97,663.772,837.97Z"/>
      <path id="Path_865" data-name="Path 865" d="M709.2,799.289v40.577H706.38V799.289Zm-19.9-2.618v-2.619h36.979v2.619Z"/>
      <path id="Path_866" data-name="Path 866" d="M846.964,799.289v40.577H844.15V799.289Zm-19.9-2.618v-2.619h36.979v2.619Z"/>
      <path id="Path_867" data-name="Path 867" d="M751.8,793.267a23.13,23.13,0,0,1,23.17,23.09c0,.092,0,.184,0,.276,0,13.483-10.406,24.02-23.168,24.02s-23.169-10.537-23.169-24.02a23.131,23.131,0,0,1,22.893-23.365Zm0,44.7c11.191,0,20.224-9.294,20.224-21.337,0-11.716-9.033-20.682-20.224-20.682s-20.225,8.965-20.225,20.682C731.579,828.676,740.611,837.97,751.8,837.97Z"/>
      <path id="Path_868" data-name="Path 868" d="M805.47,793.267c5.76,0,12.043,1.7,16.36,5.76l-1.7,2.094c-3.732-3.338-9.428-5.17-14.6-5.17-11.647,0-19.831,8.835-19.831,20.682,0,11.911,8.115,21.337,20.027,21.337a22.326,22.326,0,0,0,15.511-6.219l1.768,1.964a24,24,0,0,1-17.279,6.937c-13.745,0-22.973-10.733-22.973-24.02S792.184,793.267,805.47,793.267Z"/>
      <path id="Path_869" data-name="Path 869" d="M873.855,835.81c1.047.719,3.143,2.224,5.368,2.224,3.337,0,4.646-2.814,6.285-7.2l-18.326-36.788h3.143L884.2,821.929c1.309,2.619,2.618,5.892,2.618,5.892h.132s1.109-3.273,2.094-5.892l10.472-27.882h3.076L887.211,833.71c-1.571,3.992-3.992,6.937-7.984,6.937a12.525,12.525,0,0,1-6.872-2.617Z"/>
      <path id="Path_870" data-name="Path 870" d="M905.794,837.25c7.527-9.556,8.115-23.563,8.115-34.754v-8.444H937.6v43.2h5.107v11.78h-2.749v-9.163H904.026v9.163h-2.818V837.25Zm28.994,0V796.672H916.659v5.76c0,12.043-1.047,25.656-7.657,34.82Z"/>
      <path id="Path_871" data-name="Path 871" d="M952.59,794.052H955.4v35.933c0,2.291-.327,5.759-.327,5.759h.13s2.487-3.861,3.993-5.955l25.853-35.736h2.621v45.815h-2.813V803.937c0-2.292.327-5.76.327-5.76h-.131s-2.292,3.665-3.8,5.76l-26.05,35.931h-2.618Z"/>
      <path id="Path_872" data-name="Path 872" d="M1008.286,821.018c.588-.983,1.047-1.637,1.047-1.637v-.131c-6.48-1.572-9.687-6.286-9.687-12.828,0-5.237,2.552-9.1,6.348-11,1.832-.917,3.992-1.375,8.247-1.375H1027v45.816h-2.815V819.578h-11.713l-12.3,20.289h-3.337Zm15.9-4.059V796.671h-9.817c-3.666,0-5.106.327-6.414.917a9.3,9.3,0,0,0-5.367,8.835c0,6.218,3.8,10.537,9.817,10.537Z"/>
      <g id="Group_535" data-name="Group 535">
        <g id="Group_524" data-name="Group 524">
          <g id="Group_519" data-name="Group 519">
            <path id="Path_873" data-name="Path 873" d="M597.418,752.711h3.642c1.981,0,3.364.887,3.364,2.588a2.415,2.415,0,0,1-1.149,2.1v.028a2.217,2.217,0,0,1,1.551,2.229c0,2.16-1.8,2.949-3.766,2.949h-3.642Zm3.67,3.836a.837.837,0,0,0,.875-.8.765.765,0,0,0,0-.117.806.806,0,0,0-.758-.851.825.825,0,0,0-.157.006h-1.2v1.756Zm.208,3.989a.983.983,0,0,0,1.051-.91.791.791,0,0,0,0-.129.951.951,0,0,0-.886-1.013.854.854,0,0,0-.152,0h-1.467v2.05Z" fill="#231f20"/>
          </g>
          <g id="Group_520" data-name="Group 520">
            <path id="Path_874" data-name="Path 874" d="M610.936,752.545a4.959,4.959,0,0,1,5.172,4.738c.005.1.006.211,0,.317a5.179,5.179,0,1,1-10.358,0,4.962,4.962,0,0,1,4.861-5.059C610.722,752.539,610.829,752.54,610.936,752.545Zm0,8.018a2.742,2.742,0,0,0,2.681-2.8c0-.053,0-.107-.009-.16a2.68,2.68,0,1,0-5.345-.41,2.554,2.554,0,0,0,0,.41,2.744,2.744,0,0,0,2.514,2.955C610.83,760.559,610.883,760.562,610.936,760.563Z" fill="#231f20"/>
          </g>
          <g id="Group_521" data-name="Group 521">
            <path id="Path_875" data-name="Path 875" d="M618.071,759.529a3.986,3.986,0,0,0,2.382,1.024c.678,0,1.024-.3,1.024-.692,0-1.4-4.376-1.177-4.376-4.28,0-1.828,1.51-3.032,3.587-3.032a4.682,4.682,0,0,1,3.1,1.122l-1.026,1.981a3.565,3.565,0,0,0-2.186-.872c-.734,0-1.053.3-1.053.7,0,1.413,4.375,1.081,4.375,4.21,0,1.664-1.232,3.089-3.517,3.089a5.123,5.123,0,0,1-3.587-1.413Z" fill="#231f20"/>
          </g>
          <g id="Group_522" data-name="Group 522">
            <path id="Path_876" data-name="Path 876" d="M629.969,752.545a5.329,5.329,0,0,1,3.711,1.4l-1.122,1.829a4.049,4.049,0,0,0-2.479-1.01,2.636,2.636,0,0,0-2.8,2.826,2.767,2.767,0,0,0,2.547,2.97c.083.007.167.009.25.008a3.906,3.906,0,0,0,2.631-1.219l1.246,1.773a5.4,5.4,0,0,1-3.988,1.664,4.915,4.915,0,0,1-5.193-5.139,4.991,4.991,0,0,1,4.877-5.1C629.757,752.54,629.863,752.541,629.969,752.545Z" fill="#231f20"/>
          </g>
          <g id="Group_523" data-name="Group 523">
            <path id="Path_877" data-name="Path 877" d="M639.531,752.545a4.96,4.96,0,0,1,5.172,4.738c.005.1.006.211,0,.317a5.179,5.179,0,1,1-10.358,0,4.959,4.959,0,0,1,4.857-5.059C639.314,752.539,639.422,752.54,639.531,752.545Zm0,8.018a2.742,2.742,0,0,0,2.681-2.8c0-.054,0-.107-.008-.161a2.681,2.681,0,1,0-5.345,0,2.742,2.742,0,0,0,2.51,2.955C639.423,760.559,639.477,760.562,639.531,760.563Z" fill="#231f20"/>
          </g>
        </g>
        <g id="Group_533" data-name="Group 533">
          <g id="Group_525" data-name="Group 525">
            <path id="Path_878" data-name="Path 878" d="M663.067,752.878h1.372v9.776h-1.372Z" fill="#231f20"/>
          </g>
          <g id="Group_526" data-name="Group 526">
            <path id="Path_879" data-name="Path 879" d="M666.882,752.878h1.357l4.362,6.341c.346.54.8,1.427.8,1.427h.026s-.083-.873-.083-1.427v-6.341h1.358v9.776h-1.343L669,756.312c-.345-.54-.8-1.427-.8-1.427h-.028s.083.872.083,1.427v6.342h-1.37Z" fill="#231f20"/>
          </g>
          <g id="Group_527" data-name="Group 527">
            <path id="Path_880" data-name="Path 880" d="M679.414,754.068h-3.37v-1.19h8.087v1.19h-3.365v8.585h-1.358Z" fill="#231f20"/>
          </g>
          <g id="Group_528" data-name="Group 528">
            <path id="Path_881" data-name="Path 881" d="M685.478,752.878h5.688v1.19h-4.321v3.061h3.5v1.19h-3.5v3.143H691.4v1.19h-5.927Z" fill="#231f20"/>
          </g>
          <g id="Group_529" data-name="Group 529">
            <path id="Path_882" data-name="Path 882" d="M692.96,752.878h3.1a4.252,4.252,0,0,1,1.815.262,2.645,2.645,0,0,1,1.551,2.559,2.741,2.741,0,0,1-1.745,2.687v.027a3.416,3.416,0,0,1,.277.443l2.077,3.795h-1.554l-2.064-3.892h-2.091v3.892h-1.371Zm3.338,4.693A1.662,1.662,0,0,0,698.046,756a1.7,1.7,0,0,0,0-.225,1.56,1.56,0,0,0-.914-1.537,2.808,2.808,0,0,0-1.177-.166h-1.62v3.5Z" fill="#231f20"/>
          </g>
          <g id="Group_530" data-name="Group 530">
            <path id="Path_883" data-name="Path 883" d="M701.55,752.878h1.358l4.361,6.341c.347.54.8,1.427.8,1.427h.027s-.084-.873-.084-1.427v-6.341h1.358v9.776h-1.343l-4.362-6.342c-.345-.54-.8-1.427-.8-1.427h-.027s.083.872.083,1.427v6.342h-1.371Z" fill="#231f20"/>
          </g>
          <g id="Group_531" data-name="Group 531">
            <path id="Path_884" data-name="Path 884" d="M711.841,752.878h5.691v1.19h-4.32v3.061h3.5v1.19h-3.5v3.143h4.556v1.19h-5.927Z" fill="#231f20"/>
          </g>
          <g id="Group_532" data-name="Group 532">
            <path id="Path_885" data-name="Path 885" d="M722.005,754.068h-3.366v-1.19h8.088v1.19h-3.366v8.585H722Z" fill="#231f20"/>
          </g>
        </g>
        <g id="Group_534" data-name="Group 534">
          <path id="Path_886" data-name="Path 886" d="M736.161,757.5v-.027a2.29,2.29,0,0,0,1.219-2.1c0-1.579-1.178-2.5-2.84-2.5h-3.42v9.776h3.5c1.716,0,3.157-.942,3.157-2.783A2.351,2.351,0,0,0,736.161,757.5Zm-3.67-3.434h2.034a1.347,1.347,0,0,1,1.454,1.44,1.387,1.387,0,0,1-1.29,1.477,1.257,1.257,0,0,1-.151,0h-2.046Zm2.2,7.4h-2.2v-3.337h2.2a1.572,1.572,0,0,1,1.675,1.46,1.816,1.816,0,0,1-1.43,1.877A1.689,1.689,0,0,1,734.693,761.463Z" fill="#231f20"/>
          <path id="Path_887" data-name="Path 887" d="M744.039,752.711a4.89,4.89,0,0,0-5.025,4.75c0,.079,0,.158,0,.236a5.021,5.021,0,1,0,10.039.236c0-.078,0-.157,0-.236a4.878,4.878,0,0,0-4.768-4.986C744.2,752.709,744.121,752.709,744.039,752.711Zm0,8.849a3.652,3.652,0,0,1-3.62-3.685c0-.059,0-.119.005-.178a3.61,3.61,0,0,1,7.216-.231q0,.116,0,.231a3.65,3.65,0,0,1-3.43,3.857Q744.125,761.559,744.039,761.56Z" fill="#231f20"/>
          <path id="Path_888" data-name="Path 888" d="M757.14,759.165a2.474,2.474,0,0,1-4.944.014v-6.3h-1.37v6.314a3.848,3.848,0,0,0,7.685,0v-6.314H757.14Z" fill="#231f20"/>
          <path id="Path_889" data-name="Path 889" d="M763.165,762.654h1.358v-8.586h3.365v-1.191H759.8v1.191h3.364Z" fill="#231f20"/>
          <rect id="Rectangle_141" data-name="Rectangle 141" width="1.371" height="9.776" transform="translate(769.229 752.878)" fill="#231f20"/>
          <path id="Path_890" data-name="Path 890" d="M782.488,757.711a5.013,5.013,0,0,0-10.026,0,4.952,4.952,0,0,0,4.8,5.106c.068,0,.136,0,.2,0a4.793,4.793,0,0,0,3.1-1.066l0-.006c1.187,1.2,1.728,2.33,1.51,3.205-.25,1.017-1.478,1.561-2.471,1.843a5.952,5.952,0,0,0-3.567,2.435.586.586,0,0,0,.224.8h0a.587.587,0,0,0,.8-.225,4.947,4.947,0,0,1,2.865-1.879c2.332-.664,3.077-1.83,3.291-2.689.325-1.313-.317-2.807-1.839-4.334A5.086,5.086,0,0,0,782.488,757.711Zm-5.026,3.849a3.667,3.667,0,0,1-3.59-3.744q0-.052,0-.1a3.605,3.605,0,1,1,7.2-.365c.006.122.006.243,0,.365a3.982,3.982,0,0,1-.72,2.3l-1.122-1.15-.789.859,1.15,1.122a3.4,3.4,0,0,1-2.13.719Z" fill="#231f20"/>
          <path id="Path_891" data-name="Path 891" d="M790.619,759.165a2.473,2.473,0,0,1-4.943.014v-6.3H784.3v6.314a3.849,3.849,0,0,0,7.686,0v-6.314h-1.372Z" fill="#231f20"/>
          <path id="Path_892" data-name="Path 892" d="M795.747,761.463V758.32h3.5v-1.191h-3.5v-3.061h4.321v-1.191h-5.691v9.776H800.3v-1.19Z" fill="#231f20"/>
          <path id="Path_893" data-name="Path 893" d="M779.329,769.1a.587.587,0,0,0-.682.472l-.673,3.709-12.025,5.741-3.321-6.864,12.024-5.741,1.464.782a.588.588,0,0,0,.554-1.037h0l-1.988-1.061-13.623,6.507,4.344,8.978,13.622-6.5.779-4.3a.588.588,0,0,0-.474-.682Z" fill="#231f20"/>
          <path id="Path_894" data-name="Path 894" d="M775.454,768.99a.983.983,0,0,1,.139-.056.588.588,0,0,0-.362-1.118,2.22,2.22,0,0,0-.285.116,2.244,2.244,0,1,0,2.75,3.4.587.587,0,0,0-.924-.719,1.069,1.069,0,1,1-1.313-1.618Z" fill="#231f20"/>
        </g>
        <path id="Path_895" data-name="Path 895" d="M587.644,746.327v22.666H758.558v-1.175H654.421V747.5H808.907v20.317H784.338V769H810.08V746.327Zm65.6,21.492H588.823V747.5h64.424Z" fill="#231f20"/>
      </g>
    </g>
  </g>
</svg>
