<svg xmlns="http://www.w3.org/2000/svg" width="189.28" height="55" viewBox="0 0 189.28 55">
  <g id="Group_960" data-name="Group 960" transform="translate(-99 -15)">
    <g id="Group_812" data-name="Group 812" transform="translate(299.703 -481.078)">
      <g id="Group_801" data-name="Group 801">
        <g id="Group_796" data-name="Group 796">
          <path id="Path_1143" data-name="Path 1143" d="M-167.428,499.522h1.964c1.069,0,1.816.478,1.816,1.4a1.305,1.305,0,0,1-.62,1.135v.015a1.2,1.2,0,0,1,.836,1.2c0,1.165-.971,1.591-2.032,1.591h-1.964Zm1.979,2.069a.452.452,0,0,0,.471-.493.435.435,0,0,0-.493-.456h-.65v.949Zm.112,2.152a.531.531,0,0,0,.568-.561.513.513,0,0,0-.56-.545h-.792v1.106Z" fill="#231f20"/>
        </g>
        <g id="Group_797" data-name="Group 797">
          <path id="Path_1144" data-name="Path 1144" d="M-160.138,499.432a2.676,2.676,0,0,1,2.794,2.727,2.708,2.708,0,0,1-2.794,2.794,2.708,2.708,0,0,1-2.794-2.794A2.676,2.676,0,0,1-160.138,499.432Zm0,4.325a1.479,1.479,0,0,0,1.442-1.6,1.443,1.443,0,0,0-1.442-1.532,1.443,1.443,0,0,0-1.442,1.532A1.479,1.479,0,0,0-160.138,503.757Z" fill="#231f20"/>
        </g>
        <g id="Group_798" data-name="Group 798">
          <path id="Path_1145" data-name="Path 1145" d="M-156.289,503.2a2.148,2.148,0,0,0,1.285.553c.366,0,.553-.164.553-.374,0-.754-2.361-.635-2.361-2.308a1.722,1.722,0,0,1,1.934-1.636,2.523,2.523,0,0,1,1.674.6l-.553,1.068a1.93,1.93,0,0,0-1.18-.47c-.4,0-.568.164-.568.381,0,.762,2.361.582,2.361,2.271a1.7,1.7,0,0,1-1.9,1.666,2.767,2.767,0,0,1-1.935-.762Z" fill="#231f20"/>
        </g>
        <g id="Group_799" data-name="Group 799">
          <path id="Path_1146" data-name="Path 1146" d="M-149.87,499.432a2.875,2.875,0,0,1,2,.754l-.605.987a2.184,2.184,0,0,0-1.337-.546,1.419,1.419,0,0,0-1.509,1.524,1.492,1.492,0,0,0,1.509,1.606,2.108,2.108,0,0,0,1.419-.657l.672.956a2.909,2.909,0,0,1-2.151.9,2.655,2.655,0,0,1-2.8-2.772A2.691,2.691,0,0,1-149.87,499.432Z" fill="#231f20"/>
        </g>
        <g id="Group_800" data-name="Group 800">
          <path id="Path_1147" data-name="Path 1147" d="M-144.712,499.432a2.675,2.675,0,0,1,2.794,2.727,2.708,2.708,0,0,1-2.794,2.794,2.708,2.708,0,0,1-2.794-2.794A2.676,2.676,0,0,1-144.712,499.432Zm0,4.325a1.479,1.479,0,0,0,1.442-1.6,1.443,1.443,0,0,0-1.442-1.532,1.443,1.443,0,0,0-1.442,1.532A1.479,1.479,0,0,0-144.712,503.757Z" fill="#231f20"/>
        </g>
      </g>
      <g id="Group_810" data-name="Group 810">
        <g id="Group_802" data-name="Group 802">
          <path id="Path_1148" data-name="Path 1148" d="M-132.015,499.611h.74v5.274h-.74Z" fill="#231f20"/>
        </g>
        <g id="Group_803" data-name="Group 803">
          <path id="Path_1149" data-name="Path 1149" d="M-129.957,499.611h.732l2.353,3.422c.187.291.434.769.434.769h.015s-.045-.47-.045-.769v-3.422h.732v5.274h-.725l-2.353-3.421c-.187-.291-.433-.769-.433-.769h-.015s.045.47.045.769v3.421h-.74Z" fill="#231f20"/>
        </g>
        <g id="Group_804" data-name="Group 804">
          <path id="Path_1150" data-name="Path 1150" d="M-123.2,500.254h-1.815v-.643h4.362v.643h-1.815v4.631h-.732Z" fill="#231f20"/>
        </g>
        <g id="Group_805" data-name="Group 805">
          <path id="Path_1151" data-name="Path 1151" d="M-119.924,499.611h3.07v.643h-2.331V501.9h1.89v.642h-1.89v1.7h2.458v.642h-3.2Z" fill="#231f20"/>
        </g>
        <g id="Group_806" data-name="Group 806">
          <path id="Path_1152" data-name="Path 1152" d="M-115.887,499.611h1.673a2.294,2.294,0,0,1,.979.142,1.426,1.426,0,0,1,.836,1.382,1.477,1.477,0,0,1-.941,1.449v.015a1.811,1.811,0,0,1,.15.24l1.12,2.046h-.836l-1.114-2.1h-1.128v2.1h-.739Zm1.8,2.533a.9.9,0,0,0,.942-.971.843.843,0,0,0-.494-.83,1.52,1.52,0,0,0-.635-.089h-.874v1.89Z" fill="#231f20"/>
        </g>
        <g id="Group_807" data-name="Group 807">
          <path id="Path_1153" data-name="Path 1153" d="M-111.254,499.611h.733l2.353,3.422c.187.291.433.769.433.769h.015s-.045-.47-.045-.769v-3.422h.732v5.274h-.724l-2.353-3.421c-.187-.291-.434-.769-.434-.769h-.015s.045.47.045.769v3.421h-.74Z" fill="#231f20"/>
        </g>
        <g id="Group_808" data-name="Group 808">
          <path id="Path_1154" data-name="Path 1154" d="M-105.7,499.611h3.07v.643h-2.331V501.9h1.89v.642h-1.89v1.7h2.458v.642h-3.2Z" fill="#231f20"/>
        </g>
        <g id="Group_809" data-name="Group 809">
          <path id="Path_1155" data-name="Path 1155" d="M-100.219,500.254h-1.815v-.643h4.363v.643h-1.816v4.631h-.732Z" fill="#231f20"/>
        </g>
      </g>
      <g id="Group_811" data-name="Group 811">
        <path id="Path_1156" data-name="Path 1156" d="M-92.582,502.106v-.014a1.236,1.236,0,0,0,.658-1.136,1.354,1.354,0,0,0-1.532-1.345H-95.3v5.274h1.89a1.52,1.52,0,0,0,1.7-1.5A1.268,1.268,0,0,0-92.582,502.106Zm-1.979-1.852h1.1a.724.724,0,0,1,.784.777.746.746,0,0,1-.777.8h-1.1Zm1.188,3.989h-1.188v-1.8h1.188a.848.848,0,0,1,.9.9A.84.84,0,0,1-93.373,504.243Z" fill="#231f20"/>
        <path id="Path_1157" data-name="Path 1157" d="M-88.331,499.522a2.638,2.638,0,0,0-2.712,2.689,2.677,2.677,0,0,0,2.712,2.764,2.671,2.671,0,0,0,2.7-2.764A2.631,2.631,0,0,0-88.331,499.522Zm0,4.773a1.971,1.971,0,0,1-1.95-2.084,1.935,1.935,0,0,1,1.95-2.017,1.933,1.933,0,0,1,1.942,2.017A1.969,1.969,0,0,1-88.331,504.3Z" fill="#231f20"/>
        <path id="Path_1158" data-name="Path 1158" d="M-81.264,503a1.211,1.211,0,0,1-1.33,1.292,1.215,1.215,0,0,1-1.337-1.285v-3.4h-.74v3.407a1.915,1.915,0,0,0,2.085,1.957,1.9,1.9,0,0,0,2.062-1.957v-3.407h-.74Z" fill="#231f20"/>
        <path id="Path_1159" data-name="Path 1159" d="M-78.014,504.885h.732v-4.632h1.815v-.643h-4.363v.643h1.815Z" fill="#231f20"/>
        <rect id="Rectangle_212" data-name="Rectangle 212" width="0.74" height="5.274" transform="translate(-74.742 499.611)" fill="#231f20"/>
        <path id="Path_1160" data-name="Path 1160" d="M-67.589,502.218a2.631,2.631,0,0,0-2.712-2.7,2.636,2.636,0,0,0-2.7,2.7,2.672,2.672,0,0,0,2.7,2.757,2.583,2.583,0,0,0,1.673-.575l0,0c.64.646.932,1.256.815,1.729-.136.546-.8.842-1.334.994a3.211,3.211,0,0,0-1.924,1.313.317.317,0,0,0,.122.431.309.309,0,0,0,.154.041.317.317,0,0,0,.277-.163,2.672,2.672,0,0,1,1.545-1.013c1.258-.358,1.66-.987,1.775-1.451a2.582,2.582,0,0,0-.992-2.338A2.743,2.743,0,0,0-67.589,502.218ZM-70.3,504.3a1.979,1.979,0,0,1-1.935-2.077,1.939,1.939,0,0,1,1.935-2.024,1.942,1.942,0,0,1,1.95,2.024,2.151,2.151,0,0,1-.388,1.241l-.606-.62-.425.463.619.605A1.827,1.827,0,0,1-70.3,504.3Z" fill="#231f20"/>
        <path id="Path_1161" data-name="Path 1161" d="M-63.2,503a1.21,1.21,0,0,1-1.329,1.292,1.215,1.215,0,0,1-1.337-1.285v-3.4h-.74v3.407a1.914,1.914,0,0,0,2.084,1.957,1.9,1.9,0,0,0,2.062-1.957v-3.407h-.74Z" fill="#231f20"/>
        <path id="Path_1162" data-name="Path 1162" d="M-60.436,504.243v-1.7h1.89V501.9h-1.89v-1.651h2.331v-.643h-3.07v5.274h3.2v-.642Z" fill="#231f20"/>
        <path id="Path_1163" data-name="Path 1163" d="M-69.294,508.365a.318.318,0,0,0-.368.256l-.363,2-6.486,3.1-1.792-3.7,6.486-3.1.79.422a.317.317,0,0,0,.429-.13.317.317,0,0,0-.131-.429l-1.072-.572-7.349,3.509,2.343,4.844,7.348-3.509.42-2.319A.317.317,0,0,0-69.294,508.365Z" fill="#231f20"/>
        <path id="Path_1164" data-name="Path 1164" d="M-71.384,508.3a.591.591,0,0,1,.075-.03.317.317,0,0,0,.2-.4.316.316,0,0,0-.4-.2,1.252,1.252,0,0,0-.155.062,1.2,1.2,0,0,0-.616.692,1.2,1.2,0,0,0,.054.925,1.2,1.2,0,0,0,.692.616,1.217,1.217,0,0,0,.4.068,1.2,1.2,0,0,0,.526-.122,1.2,1.2,0,0,0,.43-.348.317.317,0,0,0-.057-.444.317.317,0,0,0-.444.056.57.57,0,0,1-.2.166.577.577,0,0,1-.441.026.573.573,0,0,1-.33-.294.573.573,0,0,1-.025-.441A.568.568,0,0,1-71.384,508.3Z" fill="#231f20"/>
      </g>
      <path id="Path_1165" data-name="Path 1165" d="M-172.7,496.078v12.228h92.2v-.633h-56.18V496.712h83.342v10.961H-66.591v.633H-52.7V496.078Zm35.391,11.6H-172.07V496.712h34.758Z" fill="#231f20"/>
    </g>
    <g id="Group_761" data-name="Group 761" transform="translate(-27.107 -1406.857)">
      <path id="Path_1086" data-name="Path 1086" d="M128.407,1470.943c3.778-4.8,4.074-11.829,4.074-17.443v-4.244h11.9v21.687h2.562v5.914h-1.38v-4.6H127.52v4.6h-1.413v-5.914Zm14.555,0v-20.372h-9.1v2.891c0,6.046-.526,12.881-3.844,17.481Z"/>
      <path id="Path_1087" data-name="Path 1087" d="M161.312,1448.862a11.613,11.613,0,0,1,11.629,11.594c0,.045,0,.091,0,.136a11.639,11.639,0,1,1-23.262.867q-.016-.433,0-.867a11.61,11.61,0,0,1,11.492-11.729Zm0,22.442a10.354,10.354,0,0,0,10.157-10.55c0-.054,0-.108,0-.162a10.156,10.156,0,0,0-20.306-.467c0,.156,0,.311,0,.467a10.355,10.355,0,0,0,9.989,10.708Z"/>
      <path id="Path_1088" data-name="Path 1088" d="M187.843,1448.862a12.1,12.1,0,0,1,8.214,2.891l-.855,1.052a11.4,11.4,0,0,0-7.327-2.6c-5.849,0-9.955,4.436-9.955,10.383,0,5.98,4.074,10.712,10.054,10.712a11.2,11.2,0,0,0,7.787-3.122l.887.985a12.044,12.044,0,0,1-8.674,3.483c-6.9,0-11.532-5.389-11.532-12.059S181.173,1448.862,187.843,1448.862Z"/>
      <path id="Path_1089" data-name="Path 1089" d="M208.675,1451.886v20.371h-1.412v-20.371Zm-9.988-1.315v-1.315h18.564v1.315Z"/>
      <path id="Path_1090" data-name="Path 1090" d="M225.715,1449.256h1.508l8.614,23h-1.508l-2.99-7.951H221.58l-2.96,7.951h-1.508Zm5.127,13.735-3.484-9.332c-.36-.985-.853-2.759-.853-2.759h-.066s-.493,1.774-.855,2.759l-3.519,9.332Z"/>
      <path id="Path_1091" data-name="Path 1091" d="M240.861,1449.256h7.722a5.5,5.5,0,0,1,5.811,5.173,5.569,5.569,0,0,1,0,.578,5.25,5.25,0,0,1-2.99,5.027v.066a5.718,5.718,0,0,1,3.91,5.814,6.089,6.089,0,0,1-5.82,6.345,5.778,5.778,0,0,1-.587,0h-8.051Zm7.688,10.252a4.209,4.209,0,0,0,4.371-4.5,4.13,4.13,0,0,0-4.4-4.436h-6.245v8.937Zm.231,11.435a4.682,4.682,0,0,0,5.06-5.028,4.826,4.826,0,0,0-4.547-5.092,4.527,4.527,0,0,0-.546,0h-6.472v10.121Z"/>
      <path id="Path_1092" data-name="Path 1092" d="M261.459,1449.256h1.414v10.252h4.271l6.568-10.252h1.709l-7.057,10.844v.068l7.524,12.091h-1.71l-7.03-11.434h-4.275v11.434h-1.414Z"/>
      <path id="Path_1093" data-name="Path 1093" d="M287.03,1449.256h1.508l8.608,23h-1.507l-2.991-7.951H282.89l-2.958,7.951h-1.507Zm5.125,13.735-3.482-9.332c-.362-.985-.855-2.759-.855-2.759h-.065s-.492,1.774-.854,2.759l-3.516,9.332Z"/>
      <path id="Path_1094" data-name="Path 1094" d="M315.387,1464.306h-14.4l-.414-1.315h14.4Z"/>
      <path id="Path_1095" data-name="Path 1095" d="M312.712,1457.353h-14.4l-.413-1.314h14.391Z"/>
      <path id="Path_1096" data-name="Path 1096" d="M309.917,1450.571h-14.4l-.413-1.315H309.5Z"/>
    </g>
  </g>
</svg>
