<svg xmlns="http://www.w3.org/2000/svg" width="72.744" height="79.962" viewBox="0 0 72.744 79.962">
  <g id="Group_690" data-name="Group 690" transform="translate(-13.433 -10)">
    <path fill="#164FAD" id="Path_1057" data-name="Path 1057" d="M62.753,38.166l-7.62-2.033-4.295-6.591a1.039,1.039,0,0,0-1.676,0l-4.295,6.591-7.62,2.033a1,1,0,0,0-.518,1.6l4.963,6.106-.413,7.845a1,1,0,0,0,1.356.987L50,51.883,57.365,54.7a1,1,0,0,0,1.356-.987l-.413-7.845,4.963-6.106a1,1,0,0,0-.518-1.6Zm-6.24,6.74a1,1,0,0,0-.223.683l.353,6.694-6.286-2.405a1.013,1.013,0,0,0-.714,0l-6.286,2.405.353-6.694a1,1,0,0,0-.223-.683L39.255,39.7l6.5-1.734a1,1,0,0,0,.58-.42L50,31.919l3.667,5.627a1,1,0,0,0,.58.42l6.5,1.734Z"/>
    <path fill="#164FAD" id="Path_1058" data-name="Path 1058" d="M78.989,53.815a14.212,14.212,0,0,1,.318-3.135,14.548,14.548,0,0,1,1.308-2.933,10.9,10.9,0,0,0,1.7-5.028,10.892,10.892,0,0,0-1.705-5.028,14.534,14.534,0,0,1-1.307-2.932,14.218,14.218,0,0,1-.318-3.135,10.906,10.906,0,0,0-1.047-5.269A10.8,10.8,0,0,0,74,22.91a14.853,14.853,0,0,1-2.661-1.934,14.849,14.849,0,0,1-1.933-2.661,10.811,10.811,0,0,0-3.446-3.938,10.91,10.91,0,0,0-5.27-1.047,14.269,14.269,0,0,1-3.134-.318A14.492,14.492,0,0,1,54.626,11.7,10.9,10.9,0,0,0,49.6,10a10.9,10.9,0,0,0-5.028,1.7,14.478,14.478,0,0,1-2.932,1.307,14.224,14.224,0,0,1-3.135.318,10.906,10.906,0,0,0-5.269,1.047,10.8,10.8,0,0,0-3.446,3.938,14.817,14.817,0,0,1-1.934,2.661,14.844,14.844,0,0,1-2.66,1.934,10.791,10.791,0,0,0-3.938,3.445,10.922,10.922,0,0,0-1.048,5.27,14.227,14.227,0,0,1-.317,3.135,14.541,14.541,0,0,1-1.308,2.932,10.9,10.9,0,0,0-1.7,5.028,10.9,10.9,0,0,0,1.7,5.028,14.548,14.548,0,0,1,1.308,2.933,14.269,14.269,0,0,1,.318,3.134,10.906,10.906,0,0,0,1.047,5.269,6.442,6.442,0,0,0,1.158,1.438l-8.84,14.767A1,1,0,0,0,14.4,76.8l14.508.437,6.512,12.13a1,1,0,0,0,.858.526H36.3a1,1,0,0,0,.858-.487l8.922-14.9a8.216,8.216,0,0,0,3.516.933,8.63,8.63,0,0,0,3.805-1.07l9.044,15.107a1,1,0,0,0,.858.486h.023a1,1,0,0,0,.858-.526L70.7,77.306l14.507-.437a1,1,0,0,0,.828-1.513l-9.02-15.068a6.218,6.218,0,0,0,.926-1.2A10.906,10.906,0,0,0,78.989,53.815ZM36.352,86.87,30.4,75.784a1,1,0,0,0-.85-.527l-13.383-.4L24,61.765c.392.264.794.516,1.192.765a14.85,14.85,0,0,1,2.661,1.933,14.816,14.816,0,0,1,1.935,2.662,10.805,10.805,0,0,0,3.445,3.937A10.908,10.908,0,0,0,38.5,72.109a14.272,14.272,0,0,1,3.135.318A13.185,13.185,0,0,1,44.3,73.591ZM70.063,75.324a1,1,0,0,0-.851.527L63.259,86.937,55.181,73.443a11.975,11.975,0,0,1,2.379-1.016,14.278,14.278,0,0,1,3.135-.318,10.906,10.906,0,0,0,5.269-1.047,10.8,10.8,0,0,0,3.446-3.938,14.849,14.849,0,0,1,1.933-2.661A14.85,14.85,0,0,1,74,62.53c.489-.305.981-.616,1.456-.947l7.985,13.338ZM76.99,53.752a9.329,9.329,0,0,1-.78,4.331,9.249,9.249,0,0,1-3.265,2.75,16.555,16.555,0,0,0-3.016,2.216,16.589,16.589,0,0,0-2.216,3.016,9.262,9.262,0,0,1-2.75,3.266,9.332,9.332,0,0,1-4.331.779,15.967,15.967,0,0,0-3.588.385,16.184,16.184,0,0,0-3.357,1.475A9.333,9.333,0,0,1,49.6,73.439a9.337,9.337,0,0,1-4.088-1.469A16.16,16.16,0,0,0,42.155,70.5a15.96,15.96,0,0,0-3.588-.385,9.335,9.335,0,0,1-4.331-.779,9.269,9.269,0,0,1-2.75-3.265,16.6,16.6,0,0,0-2.216-3.017,16.6,16.6,0,0,0-3.017-2.216,9.267,9.267,0,0,1-3.265-2.75,9.328,9.328,0,0,1-.779-4.33,15.96,15.96,0,0,0-.384-3.588,16.243,16.243,0,0,0-1.475-3.357,9.329,9.329,0,0,1-1.471-4.088,9.336,9.336,0,0,1,1.47-4.087,16.222,16.222,0,0,0,1.475-3.358,15.9,15.9,0,0,0,.384-3.588,9.347,9.347,0,0,1,.78-4.331,9.277,9.277,0,0,1,3.265-2.75A16.515,16.515,0,0,0,29.27,22.39a16.555,16.555,0,0,0,2.216-3.016,9.249,9.249,0,0,1,2.75-3.265,9.34,9.34,0,0,1,4.33-.78,15.9,15.9,0,0,0,3.588-.384,16.222,16.222,0,0,0,3.358-1.475A9.336,9.336,0,0,1,49.6,12a9.336,9.336,0,0,1,4.087,1.47,16.222,16.222,0,0,0,3.358,1.475,15.9,15.9,0,0,0,3.588.384,9.322,9.322,0,0,1,4.331.78,9.259,9.259,0,0,1,2.75,3.265,16.555,16.555,0,0,0,2.216,3.016,16.509,16.509,0,0,0,3.016,2.216,9.259,9.259,0,0,1,3.265,2.75,9.332,9.332,0,0,1,.78,4.331,15.888,15.888,0,0,0,.384,3.587,16.2,16.2,0,0,0,1.475,3.358,9.336,9.336,0,0,1,1.47,4.087,9.35,9.35,0,0,1-1.469,4.088,16.085,16.085,0,0,0-1.475,3.357A15.9,15.9,0,0,0,76.99,53.752Z"/>
    <path fill="#164FAD" id="Path_1059" data-name="Path 1059" d="M49.6,18.84a23.879,23.879,0,1,0,16.885,6.994A23.724,23.724,0,0,0,49.6,18.84ZM65.071,58.191A21.881,21.881,0,1,1,71.479,42.72,21.9,21.9,0,0,1,65.071,58.191Z"/>
  </g>
</svg>
