<svg xmlns="http://www.w3.org/2000/svg" width="40" height="40" viewBox="0 0 40 40">
  <g id="Group_732" data-name="Group 732" transform="translate(-455 -42.959)">
    <path id="Path_1082" data-name="Path 1082" d="M475,43.959a19,19,0,1,1-19,19,19,19,0,0,1,19-19Z" fill="none" stroke="#707070" stroke-miterlimit="10" stroke-width="2"/>
    <path id="Path_1083" data-name="Path 1083" d="M485.323,69.767l-1.773,1.742c-3.167,3.167-9.959,1.488-14.25-2.866s-6.017-11.083-2.866-14.25L468.16,52.6a19.274,19.274,0,0,1,3.927,5.367l-3.215,2.455a16.96,16.96,0,0,0,8.582,8.581l2.5-3.166A19.25,19.25,0,0,1,485.323,69.767Z" fill="none" stroke="#707070" stroke-linejoin="round" stroke-width="2"/>
  </g>
</svg>
