<svg xmlns="http://www.w3.org/2000/svg" width="51.476" height="39.055" viewBox="0 0 51.476 39.055">
  <g id="Group_661" data-name="Group 661" transform="translate(-259.125 -1318.483)">
    <g id="Group_660" data-name="Group 660" transform="translate(260.961 1318.848)">
      <path id="Path_1031" data-name="Path 1031" d="M260.443,1318.684c0,.1-.1.1-.1.2v.1c0,.1-.1.2-.1.3h0l-.013,4.173a5.412,5.412,0,0,0,2.075,4.278.608.608,0,0,0-.1.4l-.076,27.129-.995,0a.994.994,0,0,0-.005,1.988l1.988.005,5.366.016,12.222.035,24.146.069,1.988.005a.993.993,0,1,0,.005-1.986l-.993,0,.078-27.227a.371.371,0,0,0-.1-.3,5.417,5.417,0,0,0,2.1-4.266l.013-4.173h0a.367.367,0,0,0-.1-.3l0-.1c0-.1-.1-.1-.1-.2m-29.227,4.685a3.578,3.578,0,0,1-7.156-.02l.009-3.18,7.156.02Zm1.995-3.173,7.156.02-.009,3.18a3.578,3.578,0,0,1-7.156-.022Zm9.143.025,7.154.02-.009,3.18a3.577,3.577,0,0,1-7.154-.02Zm-27.426-.078,7.154.02-.009,3.18a3.577,3.577,0,1,1-7.154-.022Zm7.252,35,.06-20.668,10.236.029-.06,20.67Zm34.383.1-22.159-.063.062-21.663a.939.939,0,0,0-.991-1l-12.222-.035a.938.938,0,0,0-1,.991l-.062,21.661-3.38-.009.076-26.531a4.141,4.141,0,0,0,1.59.3,5.687,5.687,0,0,0,4.578-2.373,5.428,5.428,0,0,0,4.564,2.4,5.687,5.687,0,0,0,4.578-2.373,5.43,5.43,0,0,0,4.563,2.4,5.69,5.69,0,0,0,4.578-2.372,5.429,5.429,0,0,0,4.565,2.4,5.681,5.681,0,0,0,4.576-2.372,5.432,5.432,0,0,0,4.565,2.4,7.723,7.723,0,0,0,1.59-.194Zm2.078-31.792a3.577,3.577,0,1,1-7.154-.022l.009-3.178,7.154.02Z" transform="translate(-260.136 -1318.684)" fill="#931436"/>
      <path id="Path_1032" data-name="Path 1032" d="M290.254,1328.184l-15.5-.043a.938.938,0,0,0-1,.991l-.027,9.439a.938.938,0,0,0,.991,1l15.5.045a.94.94,0,0,0,1-.991l.027-9.441A.941.941,0,0,0,290.254,1328.184Zm-1.022,9.438-13.514-.038.022-7.454,13.514.04Z" transform="translate(-249.055 -1310.975)" fill="#931436"/>
    </g>
    <rect id="Rectangle_192" data-name="Rectangle 192" width="51.476" height="2.065" rx="0.569" transform="translate(259.125 1318.483)" fill="#931436"/>
    <rect id="Rectangle_193" data-name="Rectangle 193" width="51.476" height="2.065" rx="0.569" transform="translate(259.125 1355.472)" fill="#931436"/>
  </g>
</svg>
