<?xml version="1.0" encoding="utf-8"?><svg xmlns="http://www.w3.org/2000/svg" width="73.15" height="74.439" viewBox="0 0 73.15 74.439"><g data-name="Group 689"><g data-name="Group 688" fill="#164FAD"><path data-name="Path 1054" d="M22.315 24.665a1.733 1.733 0 00.465 1.911l13.122 11.733a1.731 1.731 0 002.359-.045l12.158-11.73a1.734 1.734 0 00-1.2-2.981h-6.166V1.734A1.733 1.733 0 0041.319 0h-9.423a1.733 1.733 0 00-1.734 1.734v21.815h-6.226a1.735 1.735 0 00-1.621 1.116zm9.581 2.352a1.733 1.733 0 001.734-1.734V3.468h5.956v21.815a1.733 1.733 0 001.734 1.734h3.6l-7.91 7.633-8.536-7.633h3.42z"/><path data-name="Path 1055" d="M72.279 41.561l-9.621-5.522 9.621-5.524a1.733 1.733 0 00-.087-3.054l-22.6-11.3a1.733 1.733 0 10-1.551 3.1l19.7 9.853-8.632 4.956-5.462-2.732a1.733 1.733 0 10-1.551 3.1l3.191 1.6-18.714 9.359-18.718-9.358 3.6-1.8a1.734 1.734 0 10-1.55-3.1l-5.868 2.934-8.635-4.957 19.7-9.852a1.733 1.733 0 10-1.551-3.1L.959 27.461a1.733 1.733 0 00-.087 3.054l9.626 5.524-9.626 5.522a1.733 1.733 0 00.087 3.054l11.287 5.646v11.147a1.733 1.733 0 00.958 1.55l22.6 11.3a1.664 1.664 0 001.53-.007c.007 0 .015.012.021.008l22.6-11.3a1.732 1.732 0 00.958-1.55V50.261l11.286-5.643a1.734 1.734 0 00.08-3.057zm-58.242-3.555l5.678 2.839 13.194 6.6-8.634 4.954-18.873-9.438zm1.676 13.985l7.842 3.922a1.74 1.74 0 001.638-.046l9.649-5.536v19.57l-19.129-9.564zm41.726 8.346L38.31 69.901V50.329l9.646 5.538a1.744 1.744 0 001.64.046l7.843-3.922zm-8.563-7.941l-8.633-4.955 18.876-9.437 8.629 4.957z"/></g></g></svg>