<?xml version="1.0" encoding="utf-8"?><svg xmlns="http://www.w3.org/2000/svg" width="42.053" height="39.038" viewBox="0 0 42.053 39.038"><g data-name="Group 682"><g data-name="Group 678"><path data-name="Path 1049" d="M35.246 27.787H6.809a1.576 1.576 0 01-1.58-1.58V14.962a1.578 1.578 0 011.58-1.58h28.438a1.58 1.58 0 011.58 1.58v11.245a1.578 1.578 0 01-1.581 1.58zm-26.858-3.16h25.279v-8.086H8.389z" fill="#a70033"/></g><g data-name="Group 679"><path data-name="Path 1050" d="M35.622 16.537H7.185a1.581 1.581 0 01-1.58-1.58V8.265a1.579 1.579 0 011.58-1.58h28.438a1.577 1.577 0 011.58 1.58v6.692a1.579 1.579 0 01-1.581 1.58zm-26.858-3.16h25.278V9.844H8.765z" fill="#a70033"/></g><g data-name="Group 680"><path data-name="Path 1051" d="M25.6 9.849H7.185a1.58 1.58 0 01-1.58-1.58V1.58A1.578 1.578 0 017.185 0H25.6a1.576 1.576 0 011.58 1.58v6.689a1.578 1.578 0 01-1.58 1.58zM8.765 6.689H24.02V3.16H8.765z" fill="#a70033"/></g><g data-name="Group 681"><path data-name="Path 1052" d="M40.473 39.039H1.58A1.579 1.579 0 010 37.459V26.207a1.578 1.578 0 011.58-1.58h38.893a1.578 1.578 0 011.58 1.58v11.252a1.579 1.579 0 01-1.58 1.58zM3.16 35.879h35.733v-8.093H3.16z" fill="#a70033"/></g></g></svg>