<?xml version="1.0" encoding="utf-8"?><svg xmlns="http://www.w3.org/2000/svg" width="73.678" height="66.056" viewBox="0 0 73.678 66.056"><path fill="#164FAD" data-name="Path 1053" d="M73.678 6.953a2.3 2.3 0 00-2.3-2.153H57.239V2.3a2.3 2.3 0 00-2.3-2.3H18.743a2.3 2.3 0 00-2.3 2.3v2.5H2.301a2.3 2.3 0 00-2.3 2.153V7.99a28.031 28.031 0 0014.332 24.658l7.31 4.121a20.072 20.072 0 008.749 5.675v7.759h-7.045a2.3 2.3 0 00-2.3 2.3v11.25a2.3 2.3 0 002.3 2.3h26.984a2.3 2.3 0 002.3-2.3V52.506a2.3 2.3 0 00-2.3-2.3h-7.045v-7.761a20.072 20.072 0 008.749-5.675l7.31-4.121A28.031 28.031 0 0073.678 7.99zm-52.6-2.3h31.556v18.67a15.39 15.39 0 01-3.523 9.82 2.3 2.3 0 00-.817.909 15.414 15.414 0 01-11.132 4.731h-.645a15.414 15.414 0 01-11.132-4.754 2.3 2.3 0 00-.817-.909 15.39 15.39 0 01-3.523-9.82zm-4.477 23.989a23.437 23.437 0 01-12-19.236H16.44v13.917a20.251 20.251 0 00.829 5.756zm31.428 32.809H25.65v-6.643h22.379zm-9.348-11.247h-3.68V43.39c.5 0 1 .081 1.52.081h.645a9.464 9.464 0 001.52-.081zm18.42-21.562l-.668.38a20.251 20.251 0 00.829-5.756V9.405h11.811a23.438 23.438 0 01-12 19.236z"/></svg>