<?xml version="1.0" encoding="utf-8"?><svg xmlns="http://www.w3.org/2000/svg" width="200" height="30.807" viewBox="0 0 200 30.807"><g data-name="Group 226"><g data-name="Group 215"><g data-name="Group 210"><path data-name="Path 349" d="M8.792 5.739h3.274c1.781 0 3.026.8 3.026 2.328a2.174 2.174 0 01-1.034 1.893v.025a2 2 0 011.4 2c0 1.943-1.619 2.652-3.387 2.652H8.797zm3.3 3.449a.754.754 0 00.785-.822.725.725 0 00-.823-.76h-1.08V9.19zm.187 3.586a.884.884 0 00.946-.934.856.856 0 00-.934-.909h-1.32v1.843z" fill="#b5b5b5"/></g><g data-name="Group 211"><path data-name="Path 350" d="M20.942 5.59a4.46 4.46 0 014.657 4.545 4.657 4.657 0 11-9.314 0 4.46 4.46 0 014.657-4.545zm0 7.209a2.465 2.465 0 002.4-2.664 2.407 2.407 0 10-4.806 0 2.465 2.465 0 002.406 2.663z" fill="#b5b5b5"/></g><g data-name="Group 212"><path data-name="Path 351" d="M27.357 11.865a3.588 3.588 0 002.142.921c.609 0 .921-.274.921-.623 0-1.257-3.935-1.058-3.935-3.847 0-1.643 1.357-2.727 3.225-2.727a4.206 4.206 0 012.789 1.009l-.922 1.78a3.213 3.213 0 00-1.967-.784c-.659 0-.946.274-.946.635 0 1.27 3.935.971 3.935 3.785 0 1.494-1.108 2.777-3.163 2.777a4.613 4.613 0 01-3.225-1.27z" fill="#b5b5b5"/></g><g data-name="Group 213"><path data-name="Path 352" d="M38.055 5.59a4.788 4.788 0 013.337 1.258l-1.008 1.644a3.637 3.637 0 00-2.229-.91 2.365 2.365 0 00-2.515 2.541 2.487 2.487 0 002.515 2.676 3.514 3.514 0 002.366-1.095l1.12 1.594a4.854 4.854 0 01-3.586 1.494 4.425 4.425 0 01-4.669-4.62 4.485 4.485 0 014.669-4.582z" fill="#b5b5b5"/></g><g data-name="Group 214"><path data-name="Path 353" d="M46.653 5.59a4.459 4.459 0 014.656 4.545 4.657 4.657 0 11-9.313 0 4.459 4.459 0 014.657-4.545zm0 7.209a2.465 2.465 0 002.4-2.664 2.407 2.407 0 10-4.806 0 2.464 2.464 0 002.406 2.663z" fill="#b5b5b5"/></g></g><g data-name="Group 224"><g data-name="Group 216"><path data-name="Path 354" d="M67.815 5.89h1.233v8.791h-1.233z" fill="#b5b5b5"/></g><g data-name="Group 217"><path data-name="Path 355" d="M71.244 5.89h1.22l3.922 5.7c.312.485.723 1.282.723 1.282h.024s-.074-.784-.074-1.282v-5.7h1.22v8.791h-1.205l-3.922-5.7c-.311-.485-.722-1.282-.722-1.282h-.025s.075.784.075 1.282v5.7h-1.233z" fill="#b5b5b5"/></g><g data-name="Group 218"><path data-name="Path 356" d="M82.512 6.959h-3.025V5.89h7.271v1.071h-3.025v7.72h-1.221z" fill="#b5b5b5"/></g><g data-name="Group 219"><path data-name="Path 357" d="M87.965 5.89h5.118v1.071h-3.885v2.752h3.15v1.07h-3.15v2.827h4.1v1.071h-5.329z" fill="#b5b5b5"/></g><g data-name="Group 220"><path data-name="Path 358" d="M94.693 5.89h2.789a3.816 3.816 0 011.632.237 2.378 2.378 0 011.394 2.3 2.463 2.463 0 01-1.569 2.416v.025a2.916 2.916 0 01.249.4l1.868 3.412h-1.394l-1.856-3.5h-1.88v3.5h-1.233zm3 4.221a1.5 1.5 0 001.569-1.618 1.4 1.4 0 00-.822-1.383 2.523 2.523 0 00-1.058-.149h-1.457v3.15z" fill="#b5b5b5"/></g><g data-name="Group 221"><path data-name="Path 359" d="M102.416 5.89h1.221l3.922 5.7c.311.485.722 1.282.722 1.282h.025s-.075-.784-.075-1.282v-5.7h1.22v8.791h-1.208l-3.921-5.7a19.698 19.698 0 01-.723-1.282h-.025s.075.784.075 1.282v5.7h-1.233z" fill="#b5b5b5"/></g><g data-name="Group 222"><path data-name="Path 360" d="M111.669 5.89h5.117v1.071h-3.884v2.752h3.149v1.07h-3.149v2.827h4.1v1.071h-5.329z" fill="#b5b5b5"/></g><g data-name="Group 223"><path data-name="Path 361" d="M120.807 6.959h-3.025V5.89h7.271v1.071h-3.026v7.72h-1.22z" fill="#b5b5b5"/></g></g><g data-name="Group 225" fill="#b5b5b5"><path data-name="Path 362" d="M133.536 10.047v-.025a2.057 2.057 0 001.1-1.893 2.256 2.256 0 00-2.552-2.241h-3.076v8.791h3.15c1.544 0 2.839-.847 2.839-2.5a2.113 2.113 0 00-1.461-2.132zm-3.3-3.088h1.83a1.207 1.207 0 011.307 1.3 1.244 1.244 0 01-1.294 1.332h-1.843zm1.98 6.649h-1.98v-3h1.98a1.415 1.415 0 011.506 1.494 1.4 1.4 0 01-1.505 1.506z"/><path data-name="Path 363" d="M140.621 5.739a4.4 4.4 0 00-4.52 4.482 4.514 4.514 0 109.027 0 4.386 4.386 0 00-4.507-4.482zm0 7.956a3.285 3.285 0 01-3.25-3.474 3.246 3.246 0 116.487 0 3.283 3.283 0 01-3.237 3.474z"/><path data-name="Path 364" d="M152.399 11.541a2.224 2.224 0 01-4.445.012V5.89h-1.233v5.678a3.461 3.461 0 006.911 0V5.89h-1.233z"/><path data-name="Path 365" d="M157.816 14.679h1.22v-7.72h3.025V5.89h-7.271v1.071h3.025z"/><path data-name="Rectangle 105" d="M163.268 5.888h1.233v8.79h-1.233z"/><path data-name="Path 366" d="M175.19 10.234a4.507 4.507 0 00-9.014 0 4.454 4.454 0 004.495 4.594 4.3 4.3 0 002.789-.959v-.005c1.067 1.077 1.553 2.095 1.358 2.882-.226.91-1.333 1.4-2.222 1.656a5.358 5.358 0 00-3.208 2.189.528.528 0 00.922.516 4.447 4.447 0 012.574-1.689c2.1-.6 2.767-1.645 2.959-2.418.293-1.18-.284-2.524-1.654-3.9a4.565 4.565 0 001.001-2.866zm-4.519 3.461a3.3 3.3 0 01-3.225-3.461 3.24 3.24 0 116.474 0 3.568 3.568 0 01-.647 2.066l-1.009-1.033-.709.772 1.033 1.009a3.048 3.048 0 01-1.914.647z"/><path data-name="Path 367" d="M182.501 11.541a2.223 2.223 0 01-4.444.012V5.89h-1.233v5.678a3.461 3.461 0 006.91 0V5.89h-1.233z"/><path data-name="Path 368" d="M187.112 13.608v-2.826h3.15V9.711h-3.15V6.959h3.885V5.89h-5.117v8.79h5.329v-1.071z"/><path data-name="Path 369" d="M172.35 20.479a.528.528 0 00-.614.425l-.605 3.334-10.811 5.163-2.986-6.172 10.811-5.162 1.316.7a.529.529 0 00.5-.932l-1.787-.954-12.249 5.849 3.905 8.074 12.244-5.846.7-3.866a.527.527 0 00-.424-.613z"/><path data-name="Path 370" d="M168.866 20.375a1.126 1.126 0 01.125-.05.528.528 0 10-.326-1 2.1 2.1 0 00-.257.1 2.018 2.018 0 102.474 3.053.528.528 0 00-.835-.647.942.942 0 01-.341.276.962.962 0 01-.84-1.731z"/></g><path data-name="Path 371" d="M0 0v20.38h153.674v-1.056H60.04V1.056h138.9v18.268h-22.089v1.056h23.145V0zm58.985 19.324H1.056V1.056h57.929z" fill="#b5b5b5"/></g></svg>