<?xml version="1.0" encoding="utf-8"?><svg xmlns="http://www.w3.org/2000/svg" width="210" height="50" viewBox="0 0 210 50"><g data-name="Group 956"><g data-name="Group 955"><path data-name="Path 863" d="M11.776 43.159v2.843h-1.343v-2.843C4.216 43.159 0 39.759 0 34.038c0-5.325 3.658-8.644 9.184-9.074v1.191c-4.8.4-7.779 3.159-7.779 7.884 0 5.123 3.5 7.935 9.029 7.935V22.199h1.342v2.718c6.186 0 10.434 3.4 10.434 9.121 0 5.324-3.659 8.643-9.184 9.074v-1.191c4.8-.4 7.778-3.159 7.778-7.885 0-5.122-3.5-7.934-9.028-7.934v17.056z"/><path data-name="Path 864" d="M36.64 23.383a11.039 11.039 0 0111.058 11.02v.132a11.065 11.065 0 11-22.116 0 11.04 11.04 0 0110.926-11.152zm0 21.335a9.844 9.844 0 009.652-10.183 9.655 9.655 0 10-19.305 0 9.845 9.845 0 009.653 10.186z"/><path data-name="Path 865" d="M58.319 26.26v19.367h-1.343V26.26zm-9.5-1.249v-1.25h17.649v1.25z"/><path data-name="Path 866" d="M124.072 26.26v19.367h-1.343V26.26zm-9.5-1.249v-1.25h17.649v1.25z"/><path data-name="Path 867" d="M78.654 23.383a11.041 11.041 0 0111.059 11.02v.132a11.065 11.065 0 11-22.115 0 11.038 11.038 0 0110.925-11.152zm0 21.335a9.844 9.844 0 009.653-10.183 9.655 9.655 0 10-19.3 0 9.844 9.844 0 009.647 10.186z"/><path data-name="Path 868" d="M104.268 23.383a11.5 11.5 0 017.809 2.749l-.812 1a10.845 10.845 0 00-6.966-2.468c-5.558 0-9.465 4.217-9.465 9.871 0 5.685 3.874 10.183 9.559 10.183a10.649 10.649 0 007.4-2.968l.844.938a11.459 11.459 0 01-8.247 3.311c-6.56 0-10.965-5.123-10.965-11.464s4.502-11.152 10.843-11.152z"/><path data-name="Path 869" d="M136.907 43.691a4.867 4.867 0 002.561 1.061c1.593 0 2.218-1.343 3-3.436l-8.746-17.557h1.5l6.622 13.307a44.062 44.062 0 011.25 2.812h.062s.53-1.562 1-2.812l5-13.307h1.468l-7.341 18.93c-.75 1.905-1.9 3.31-3.81 3.31a5.97 5.97 0 01-3.28-1.249z"/><path data-name="Path 870" d="M152.15 44.383c3.593-4.561 3.873-11.246 3.873-16.587v-4.03h11.309v20.617h2.437v5.622h-1.312v-4.373h-17.15v4.373h-1.345v-5.622zm13.838 0V25.011h-8.652v2.749c0 5.748-.5 12.245-3.655 16.619z"/><path data-name="Path 871" d="M174.485 23.761h1.343V40.91c0 1.094-.156 2.749-.156 2.749h.062s1.187-1.842 1.906-2.842l12.338-17.056h1.252v21.867h-1.343v-17.15c0-1.093.156-2.748.156-2.748h-.063s-1.093 1.749-1.812 2.748l-12.432 17.15h-1.25z"/><path data-name="Path 872" d="M201.067 36.631c.281-.469.5-.781.5-.781v-.067c-3.093-.75-4.624-3-4.624-6.122a5.606 5.606 0 013.03-5.25 8.314 8.314 0 013.936-.656H210v21.866h-1.343V35.94h-5.591l-5.873 9.683H195.6zm7.59-1.937v-9.683h-4.685a6.894 6.894 0 00-3.062.437 4.439 4.439 0 00-2.561 4.217c0 2.968 1.812 5.029 4.685 5.029z"/></g><g data-name="Group 535"><g data-name="Group 524"><g data-name="Group 519"><path data-name="Path 873" d="M56.583 3.047h1.738c.946 0 1.606.423 1.606 1.235a1.154 1.154 0 01-.548 1.005V5.3a1.058 1.058 0 01.74 1.064c0 1.031-.859 1.407-1.8 1.407h-1.738zm1.752 1.831a.4.4 0 00.418-.381.539.539 0 000-.056.385.385 0 00-.362-.406.468.468 0 00-.075 0h-.573v.838zm.1 1.9a.469.469 0 00.5-.434.324.324 0 000-.062.453.453 0 00-.423-.483.436.436 0 00-.072 0h-.7v.978z" fill="#231f20"/></g><g data-name="Group 520"><path data-name="Path 874" d="M63.035 2.968a2.367 2.367 0 012.469 2.261v.151a2.472 2.472 0 01-4.944 0 2.368 2.368 0 012.32-2.414 1.99 1.99 0 01.155.002zm0 3.827a1.309 1.309 0 001.279-1.338V5.38a1.28 1.28 0 10-2.552 0 1.31 1.31 0 001.2 1.411z" fill="#231f20"/></g><g data-name="Group 521"><path data-name="Path 875" d="M66.44 6.299a1.905 1.905 0 001.137.489c.324 0 .489-.146.489-.331 0-.667-2.088-.561-2.088-2.042a1.523 1.523 0 011.711-1.448 2.237 2.237 0 011.481.536l-.489.945a1.711 1.711 0 00-1.044-.416c-.351 0-.5.145-.5.337 0 .674 2.089.516 2.089 2.009a1.5 1.5 0 01-1.679 1.474 2.443 2.443 0 01-1.712-.674z" fill="#231f20"/></g><g data-name="Group 522"><path data-name="Path 876" d="M72.119 2.967a2.541 2.541 0 011.771.667l-.536.873a1.933 1.933 0 00-1.182-.483 1.256 1.256 0 00-1.336 1.169 1.215 1.215 0 000 .181 1.32 1.32 0 001.215 1.417h.12a1.864 1.864 0 001.255-.582l.6.846a2.576 2.576 0 01-1.9.794 2.349 2.349 0 01-2.477-2.213 2.555 2.555 0 012.327-2.675c.042.003.092.004.143.006z" fill="#231f20"/></g><g data-name="Group 523"><path data-name="Path 877" d="M76.683 2.968a2.366 2.366 0 012.468 2.261v.151a2.472 2.472 0 01-4.944 0 2.367 2.367 0 012.318-2.414c.054-.001.106-.001.158.002zm0 3.827a1.309 1.309 0 001.279-1.338V5.38a1.279 1.279 0 10-2.55-.2 1.128 1.128 0 000 .2 1.309 1.309 0 001.2 1.411z" fill="#231f20"/></g></g><g data-name="Group 533"><g data-name="Group 525"><path data-name="Path 878" d="M87.916 3.126h.655v4.666h-.655z" fill="#231f20"/></g><g data-name="Group 526"><path data-name="Path 879" d="M89.737 3.126h.647l2.082 3.027c.165.258.384.681.384.681h.012s-.039-.417-.039-.681V3.126h.648v4.666h-.641l-2.082-3.027c-.165-.257-.383-.68-.383-.68h-.014s.04.416.04.68v3.027h-.654z" fill="#231f20"/></g><g data-name="Group 527"><path data-name="Path 880" d="M95.718 3.7H94.11v-.569h3.859V3.7h-1.606v4.1h-.648z" fill="#231f20"/></g><g data-name="Group 528"><path data-name="Path 881" d="M98.612 3.126h2.715v.569h-2.063v1.46h1.672v.568h-1.672v1.5h2.175v.569H98.61z" fill="#231f20"/></g><g data-name="Group 529"><path data-name="Path 882" d="M102.183 3.126h1.481a2.031 2.031 0 01.866.126 1.263 1.263 0 01.74 1.221 1.307 1.307 0 01-.833 1.282v.013a1.6 1.6 0 01.132.212l.991 1.811h-.741l-.985-1.858h-1v1.858h-.655zm1.593 2.241a.8.8 0 00.835-.752.951.951 0 000-.107.745.745 0 00-.436-.734 1.345 1.345 0 00-.562-.079h-.773v1.672z" fill="#231f20"/></g><g data-name="Group 530"><path data-name="Path 883" d="M106.283 3.126h.648l2.081 3.027c.166.258.384.681.384.681h.013s-.04-.417-.04-.681V3.126h.648v4.666h-.641l-2.082-3.027c-.165-.257-.383-.68-.383-.68h-.011s.04.416.04.68v3.027h-.655z" fill="#231f20"/></g><g data-name="Group 531"><path data-name="Path 884" d="M111.194 3.126h2.717v.569h-2.062v1.46h1.672v.568h-1.672v1.5h2.174v.569h-2.829z" fill="#231f20"/></g><g data-name="Group 532"><path data-name="Path 885" d="M116.045 3.7h-1.606v-.569h3.86V3.7h-1.607v4.1h-.647z" fill="#231f20"/></g></g><g data-name="Group 534" fill="#231f20"><path data-name="Path 886" d="M122.8 5.333v-.012a1.092 1.092 0 00.582-1.005 1.2 1.2 0 00-1.355-1.191H120.4v4.666h1.672a1.345 1.345 0 001.507-1.328 1.123 1.123 0 00-.779-1.13zM121.05 3.7h.971a.639.639 0 01.693.582.731.731 0 010 .105.662.662 0 01-.616.7h-1.049zm1.051 3.529h-1.051V5.636h1.05a.751.751 0 01.8.7.779.779 0 010 .1.744.744 0 01-.683.8.764.764 0 01-.117-.012z"/><path data-name="Path 887" d="M126.562 3.047a2.335 2.335 0 00-2.4 2.267v.113a2.4 2.4 0 104.791.112v-.112a2.328 2.328 0 00-2.276-2.38zm0 4.223a1.743 1.743 0 01-1.728-1.758v-.085a1.723 1.723 0 013.444-.111v.111a1.741 1.741 0 01-1.637 1.84z"/><path data-name="Path 888" d="M132.814 6.127a1.18 1.18 0 01-2.359.007V3.126h-.655V6.14a1.837 1.837 0 003.668 0V3.126h-.655z"/><path data-name="Path 889" d="M135.69 7.792h.648v-4.1h1.606v-.569h-3.86v.569h1.606z"/><path data-name="Rectangle 141" d="M138.584 3.126h.654v4.666h-.654z"/><path data-name="Path 890" d="M144.912 5.433a2.393 2.393 0 00-4.785 0 2.364 2.364 0 002.289 2.437h.1a2.291 2.291 0 001.481-.508c.566.574.824 1.112.721 1.53-.12.485-.706.745-1.18.879a2.841 2.841 0 00-1.7 1.162.279.279 0 00.107.381.275.275 0 00.137.036.28.28 0 00.244-.143 2.359 2.359 0 011.368-.9c1.113-.317 1.469-.873 1.571-1.283a2.288 2.288 0 00-.878-2.069 2.428 2.428 0 00.525-1.522zm-2.4 1.837a1.75 1.75 0 01-1.713-1.787v-.05a1.72 1.72 0 013.436-.174 1.689 1.689 0 010 .174 1.894 1.894 0 01-.343 1.1l-.536-.548-.376.409.548.536a1.618 1.618 0 01-1.016.343z"/><path data-name="Path 891" d="M148.793 6.127a1.18 1.18 0 01-2.359.007V3.126h-.655V6.14a1.837 1.837 0 003.669 0V3.126h-.655z"/><path data-name="Path 892" d="M151.24 7.224v-1.5h1.673v-.569h-1.673V3.7h2.06v-.569h-2.716v4.666h2.828v-.568z"/><path data-name="Path 893" d="M143.4 10.871a.28.28 0 00-.325.226l-.321 1.77-5.739 2.74-1.585-3.276 5.738-2.74.7.373a.281.281 0 10.265-.495l-.949-.506-6.5 3.1 2.073 4.285 6.5-3.1.372-2.052a.281.281 0 00-.226-.326z"/><path data-name="Path 894" d="M141.555 10.817a.419.419 0 01.066-.027.281.281 0 00-.172-.534 1.154 1.154 0 00-.137.055 1.071 1.071 0 101.313 1.621.28.28 0 00-.441-.343.511.511 0 11-.806-.627.523.523 0 01.18-.146z"/></g><path data-name="Path 895" d="M51.919 0v10.818h81.572v-.561h-49.7v-9.7h73.732v9.7H145.8v.561h12.286V0zm31.31 10.258H52.481v-9.7h30.748z" fill="#231f20"/></g></g></svg>