<?xml version="1.0" encoding="utf-8"?><svg xmlns="http://www.w3.org/2000/svg" width="440" height="102.703" viewBox="0 0 440 102.703"><g data-name="Group 742"><g data-name="Group 536"><path data-name="Path 863" d="M24.673 88.373v5.955H21.86v-5.955C8.834 88.373 0 81.239 0 69.261c0-11.157 7.665-18.11 19.242-19.011v2.495c-10.06.838-16.3 6.617-16.3 16.518 0 10.734 7.33 16.625 18.916 16.625V44.453h2.813v5.694c12.96 0 21.86 7.134 21.86 19.111 0 11.156-7.665 18.11-19.242 19.012v-2.5c10.06-.837 16.3-6.617 16.3-16.519 0-10.733-7.33-16.625-18.916-16.625v35.747z"/><path data-name="Path 864" d="M76.769 46.94a23.13 23.13 0 0123.17 23.09v.276c0 13.483-10.407 24.02-23.169 24.02s-23.173-10.537-23.173-24.02a23.13 23.13 0 0122.9-23.365zm0 44.7c11.192 0 20.224-9.294 20.224-21.337 0-11.716-9.033-20.682-20.224-20.682s-20.224 8.965-20.224 20.682c0 12.046 9.033 21.34 20.224 21.34z"/><path data-name="Path 865" d="M122.197 52.962v40.577h-2.82V52.962zm-19.9-2.618v-2.619h36.979v2.619z"/><path data-name="Path 866" d="M259.961 52.962v40.577h-2.814V52.962zm-19.9-2.618v-2.619h36.979v2.619z"/><path data-name="Path 867" d="M164.797 46.94a23.13 23.13 0 0123.17 23.09v.276c0 13.483-10.406 24.02-23.168 24.02s-23.169-10.537-23.169-24.02a23.131 23.131 0 0122.893-23.365zm0 44.7c11.191 0 20.224-9.294 20.224-21.337 0-11.716-9.033-20.682-20.224-20.682s-20.225 8.965-20.225 20.682c.004 12.046 9.036 21.34 20.225 21.34z"/><path data-name="Path 868" d="M218.467 46.94c5.76 0 12.043 1.7 16.36 5.76l-1.7 2.094c-3.732-3.338-9.428-5.17-14.6-5.17-11.647 0-19.831 8.835-19.831 20.682 0 11.911 8.115 21.337 20.027 21.337a22.326 22.326 0 0015.511-6.219l1.768 1.964a24 24 0 01-17.279 6.937c-13.745 0-22.973-10.733-22.973-24.02s9.431-23.365 22.717-23.365z"/><path data-name="Path 869" d="M286.852 89.483c1.047.719 3.143 2.224 5.368 2.224 3.337 0 4.646-2.814 6.285-7.2l-18.326-36.788h3.143l13.875 27.883c1.309 2.619 2.618 5.892 2.618 5.892h.132s1.109-3.273 2.094-5.892l10.472-27.882h3.076l-15.381 39.663c-1.571 3.992-3.992 6.937-7.984 6.937a12.525 12.525 0 01-6.872-2.617z"/><path data-name="Path 870" d="M318.791 90.923c7.527-9.556 8.115-23.563 8.115-34.754v-8.444h23.691v43.2h5.107v11.78h-2.749v-9.163h-35.932v9.163h-2.818V90.923zm28.994 0V50.345h-18.129v5.76c0 12.043-1.047 25.656-7.657 34.82z"/><path data-name="Path 871" d="M365.587 47.725h2.81v35.933c0 2.291-.327 5.759-.327 5.759h.13s2.487-3.861 3.993-5.955l25.853-35.736h2.621v45.815h-2.813V57.61c0-2.292.327-5.76.327-5.76h-.131s-2.292 3.665-3.8 5.76L368.2 93.541h-2.618z"/><path data-name="Path 872" d="M421.283 74.691a29.542 29.542 0 011.047-1.637v-.131c-6.48-1.572-9.687-6.286-9.687-12.828 0-5.237 2.552-9.1 6.348-11 1.832-.917 3.992-1.375 8.247-1.375h12.759v45.816h-2.815V73.251h-11.713l-12.3 20.289h-3.337zm15.9-4.059V50.344h-9.817c-3.666 0-5.106.327-6.414.917a9.3 9.3 0 00-5.367 8.835c0 6.218 3.8 10.537 9.817 10.537z"/><g data-name="Group 535"><g data-name="Group 524"><g data-name="Group 519"><path data-name="Path 873" d="M10.415 6.384h3.642c1.981 0 3.364.887 3.364 2.588a2.415 2.415 0 01-1.149 2.1v.028a2.217 2.217 0 011.551 2.229c0 2.16-1.8 2.949-3.766 2.949h-3.642zm3.67 3.836a.837.837 0 00.875-.8.765.765 0 000-.117.806.806 0 00-.758-.851.825.825 0 00-.157.006h-1.2v1.756zm.208 3.989a.983.983 0 001.051-.91.791.791 0 000-.129.951.951 0 00-.886-1.013.854.854 0 00-.152 0h-1.467v2.05z" fill="#231f20"/></g><g data-name="Group 520"><path data-name="Path 874" d="M23.933 6.218a4.959 4.959 0 015.172 4.738c.005.1.006.211 0 .317a5.179 5.179 0 11-10.358 0 4.962 4.962 0 014.861-5.059c.111-.002.218-.001.325.004zm0 8.018a2.742 2.742 0 002.681-2.8c0-.053 0-.107-.009-.16a2.68 2.68 0 10-5.345-.41 2.554 2.554 0 000 .41 2.744 2.744 0 002.514 2.955l.159.005z" fill="#231f20"/></g><g data-name="Group 521"><path data-name="Path 875" d="M31.068 13.202a3.986 3.986 0 002.382 1.024c.678 0 1.024-.3 1.024-.692 0-1.4-4.376-1.177-4.376-4.28 0-1.828 1.51-3.032 3.587-3.032a4.682 4.682 0 013.1 1.122l-1.026 1.981a3.565 3.565 0 00-2.186-.872c-.734 0-1.053.3-1.053.7 0 1.413 4.375 1.081 4.375 4.21 0 1.664-1.232 3.089-3.517 3.089a5.123 5.123 0 01-3.587-1.413z" fill="#231f20"/></g><g data-name="Group 522"><path data-name="Path 876" d="M42.966 6.218a5.329 5.329 0 013.711 1.4l-1.122 1.829a4.049 4.049 0 00-2.479-1.01 2.636 2.636 0 00-2.8 2.826 2.767 2.767 0 002.547 2.97c.083.007.167.009.25.008a3.906 3.906 0 002.631-1.219l1.246 1.773a5.4 5.4 0 01-3.988 1.664 4.915 4.915 0 01-5.193-5.139 4.991 4.991 0 014.877-5.1c.108-.007.214-.006.32-.002z" fill="#231f20"/></g><g data-name="Group 523"><path data-name="Path 877" d="M52.528 6.218a4.96 4.96 0 015.172 4.738c.005.1.006.211 0 .317a5.179 5.179 0 11-10.358 0 4.959 4.959 0 014.857-5.059 5.13 5.13 0 01.329.004zm0 8.018a2.742 2.742 0 002.681-2.8c0-.054 0-.107-.008-.161a2.681 2.681 0 10-5.345 0 2.742 2.742 0 002.51 2.955l.162.006z" fill="#231f20"/></g></g><g data-name="Group 533"><g data-name="Group 525"><path data-name="Path 878" d="M76.064 6.551h1.372v9.776h-1.372z" fill="#231f20"/></g><g data-name="Group 526"><path data-name="Path 879" d="M79.879 6.551h1.357l4.362 6.341c.346.54.8 1.427.8 1.427h.026s-.083-.873-.083-1.427V6.551h1.358v9.776h-1.343l-4.359-6.342c-.345-.54-.8-1.427-.8-1.427h-.028s.083.872.083 1.427v6.342h-1.37z" fill="#231f20"/></g><g data-name="Group 527"><path data-name="Path 880" d="M92.411 7.741h-3.37v-1.19h8.087v1.19h-3.365v8.585h-1.358z" fill="#231f20"/></g><g data-name="Group 528"><path data-name="Path 881" d="M98.475 6.551h5.688v1.19h-4.321v3.061h3.5v1.19h-3.5v3.143h4.555v1.19H98.47z" fill="#231f20"/></g><g data-name="Group 529"><path data-name="Path 882" d="M105.957 6.551h3.1a4.252 4.252 0 011.815.262 2.645 2.645 0 011.551 2.559 2.741 2.741 0 01-1.745 2.687v.027a3.416 3.416 0 01.277.443l2.077 3.795h-1.554l-2.064-3.892h-2.091v3.892h-1.371zm3.338 4.693a1.662 1.662 0 001.748-1.571 1.7 1.7 0 000-.225 1.56 1.56 0 00-.914-1.537 2.808 2.808 0 00-1.177-.166h-1.62v3.5z" fill="#231f20"/></g><g data-name="Group 530"><path data-name="Path 883" d="M114.547 6.551h1.358l4.361 6.341c.347.54.8 1.427.8 1.427h.027s-.084-.873-.084-1.427V6.551h1.358v9.776h-1.343l-4.362-6.342c-.345-.54-.8-1.427-.8-1.427h-.027s.083.872.083 1.427v6.342h-1.371z" fill="#231f20"/></g><g data-name="Group 531"><path data-name="Path 884" d="M124.838 6.551h5.691v1.19h-4.32v3.061h3.5v1.19h-3.5v3.143h4.556v1.19h-5.927z" fill="#231f20"/></g><g data-name="Group 532"><path data-name="Path 885" d="M135.002 7.741h-3.366v-1.19h8.088v1.19h-3.366v8.585h-1.361z" fill="#231f20"/></g></g><g data-name="Group 534" fill="#231f20"><path data-name="Path 886" d="M149.158 11.173v-.027a2.29 2.29 0 001.219-2.1c0-1.579-1.178-2.5-2.84-2.5h-3.42v9.776h3.5c1.716 0 3.157-.942 3.157-2.783a2.351 2.351 0 00-1.616-2.366zm-3.67-3.434h2.034a1.347 1.347 0 011.454 1.44 1.387 1.387 0 01-1.29 1.477 1.257 1.257 0 01-.151 0h-2.046zm2.2 7.4h-2.2v-3.337h2.2a1.572 1.572 0 011.675 1.46 1.816 1.816 0 01-1.43 1.877 1.689 1.689 0 01-.243-.003z"/><path data-name="Path 887" d="M157.036 6.384a4.89 4.89 0 00-5.025 4.75v.236a5.021 5.021 0 1010.039.236v-.236a4.878 4.878 0 00-4.768-4.986 5.043 5.043 0 00-.246 0zm0 8.849a3.652 3.652 0 01-3.62-3.685c0-.059 0-.119.005-.178a3.61 3.61 0 017.216-.231v.231a3.65 3.65 0 01-3.43 3.857q-.085.005-.171.006z"/><path data-name="Path 888" d="M170.137 12.838a2.474 2.474 0 01-4.944.014v-6.3h-1.37v6.314a3.848 3.848 0 007.685 0V6.552h-1.371z"/><path data-name="Path 889" d="M176.162 16.327h1.358V7.741h3.365V6.55h-8.088v1.191h3.364z"/><path data-name="Rectangle 141" d="M182.226 6.551h1.371v9.776h-1.371z"/><path data-name="Path 890" d="M195.485 11.384a5.013 5.013 0 00-10.026 0 4.952 4.952 0 004.8 5.106h.2a4.793 4.793 0 003.1-1.066v-.006c1.187 1.2 1.728 2.33 1.51 3.205-.25 1.017-1.478 1.561-2.471 1.843a5.952 5.952 0 00-3.567 2.435.586.586 0 00.224.8.587.587 0 00.8-.225 4.947 4.947 0 012.865-1.879c2.332-.664 3.077-1.83 3.291-2.689.325-1.313-.317-2.807-1.839-4.334a5.086 5.086 0 001.113-3.19zm-5.026 3.849a3.667 3.667 0 01-3.59-3.744v-.1a3.605 3.605 0 117.2-.365c.006.122.006.243 0 .365a3.982 3.982 0 01-.72 2.3l-1.122-1.15-.789.859 1.15 1.122a3.4 3.4 0 01-2.13.719z"/><path data-name="Path 891" d="M203.616 12.838a2.473 2.473 0 01-4.943.014v-6.3h-1.376v6.314a3.849 3.849 0 007.686 0V6.552h-1.372z"/><path data-name="Path 892" d="M208.744 15.136v-3.143h3.5v-1.191h-3.5V7.741h4.321V6.55h-5.691v9.776h5.923v-1.19z"/><path data-name="Path 893" d="M192.326 22.773a.587.587 0 00-.682.472l-.673 3.709-12.025 5.741-3.321-6.864 12.024-5.741 1.464.782a.588.588 0 00.554-1.037l-1.988-1.061-13.623 6.507 4.344 8.978 13.622-6.5.779-4.3a.588.588 0 00-.474-.682z"/><path data-name="Path 894" d="M188.451 22.663a.983.983 0 01.139-.056.588.588 0 00-.362-1.118 2.22 2.22 0 00-.285.116 2.244 2.244 0 102.75 3.4.587.587 0 00-.924-.719 1.069 1.069 0 11-1.313-1.618z"/></g><path data-name="Path 895" d="M.641 0v22.666h170.914v-1.175H67.418V1.173h154.486V21.49h-24.569v1.183h25.742V0zm65.6 21.492H1.82V1.173h64.424z" fill="#231f20"/></g></g></g></svg>