<?xml version="1.0" encoding="utf-8"?><svg xmlns="http://www.w3.org/2000/svg" width="40" height="40" viewBox="0 0 40 40"><g data-name="Group 731"><path data-name="Path 1080" d="M31.875 19.458a8.056 8.056 0 01-.491 2.913 6.609 6.609 0 01-1.251 2.074 4.953 4.953 0 01-1.583 1.22 4.293 4.293 0 01-1.757.411 5.061 5.061 0 01-2.312-.459 3.432 3.432 0 01-1.362-1.172 21.029 21.029 0 01-2.137 1 6.008 6.008 0 01-2.328.475 3.894 3.894 0 01-2.771-1 3.6 3.6 0 01-1.108-2.707 3.079 3.079 0 01.459-1.726 3.883 3.883 0 011.124-1.124 4.758 4.758 0 011.425-.633 5.729 5.729 0 011.378-.19h3.452v-.713a1.977 1.977 0 00-.824-1.947 3.976 3.976 0 00-2.09-.507 6.036 6.036 0 00-1.377.19 4.643 4.643 0 00-1.726.934l-1.156-1.583a7.207 7.207 0 012.264-1.251 7.083 7.083 0 012.074-.317 5.653 5.653 0 013.69 1.093 4.008 4.008 0 011.33 3.277v4.75a1.583 1.583 0 00.506 1.283 2.315 2.315 0 001.409.38 2.522 2.522 0 001.125-.285 2.959 2.959 0 001.013-.887 4.725 4.725 0 00.744-1.488 6.939 6.939 0 00.285-2.09 11.553 11.553 0 00-.649-3.864 8.528 8.528 0 00-1.853-2.8 8.616 8.616 0 00-2.915-1.946 10.008 10.008 0 00-3.832-.744 11.782 11.782 0 00-4.211.76 10.716 10.716 0 00-3.341 2.059 9.641 9.641 0 00-2.28 3.04 10.3 10.3 0 00-.839 4.132 9.766 9.766 0 00.744 3.784 9.137 9.137 0 005.177 5.114 11.222 11.222 0 004.085.729 9.923 9.923 0 001.837-.174 11.825 11.825 0 002.185-.681l.7 1.916a11.126 11.126 0 01-2.692.744 17.558 17.558 0 01-2.011.142 13.424 13.424 0 01-4.861-.855 11.478 11.478 0 01-3.752-2.391 10.6 10.6 0 01-2.454-3.641 11.95 11.95 0 01-.95-4.639 12.215 12.215 0 011-4.956 11.706 11.706 0 012.692-3.689 12.416 12.416 0 013.974-2.439 14.141 14.141 0 015-.871 12.2 12.2 0 014.75.871 10.213 10.213 0 015.748 5.906 13.6 13.6 0 01.743 4.572zm-9.262.934h-3.99a2.355 2.355 0 00-.808.238 1.69 1.69 0 00-.633.554 1.815 1.815 0 00.316 2.248 2.327 2.327 0 001.473.443 3.853 3.853 0 00.95-.126 6.406 6.406 0 00.95-.333 8.729 8.729 0 00.887-.443l.775-.428z" fill="#707070"/><path data-name="Path 1081" d="M20 1A19 19 0 111 20 19 19 0 0120 1z" fill="none" stroke="#707070" stroke-miterlimit="10" stroke-width="2"/></g></svg>