<?xml version="1.0" encoding="utf-8"?><svg xmlns="http://www.w3.org/2000/svg" width="72.744" height="79.962" viewBox="0 0 72.744 79.962"><g data-name="Group 690" fill="#164FAD"><path data-name="Path 1057" d="M49.32 28.166l-7.62-2.033-4.295-6.591a1.039 1.039 0 00-1.676 0l-4.295 6.591-7.62 2.033a1 1 0 00-.518 1.6l4.963 6.106-.413 7.845a1 1 0 001.356.987l7.365-2.821 7.365 2.817a1 1 0 001.356-.987l-.413-7.845 4.963-6.106a1 1 0 00-.518-1.6zm-6.24 6.74a1 1 0 00-.223.683l.353 6.694-6.286-2.405a1.013 1.013 0 00-.714 0l-6.286 2.405.353-6.694a1 1 0 00-.223-.683L25.822 29.7l6.5-1.734a1 1 0 00.58-.42l3.665-5.627 3.667 5.627a1 1 0 00.58.42l6.5 1.734z"/><path data-name="Path 1058" d="M65.556 43.815a14.212 14.212 0 01.318-3.135 14.548 14.548 0 011.308-2.933 10.9 10.9 0 001.7-5.028 10.892 10.892 0 00-1.705-5.028 14.534 14.534 0 01-1.307-2.932 14.218 14.218 0 01-.318-3.135 10.906 10.906 0 00-1.047-5.269 10.8 10.8 0 00-3.938-3.445 14.853 14.853 0 01-2.661-1.934 14.849 14.849 0 01-1.933-2.661 10.811 10.811 0 00-3.446-3.938 10.91 10.91 0 00-5.27-1.047 14.269 14.269 0 01-3.134-.318 14.492 14.492 0 01-2.93-1.312A10.9 10.9 0 0036.167 0a10.9 10.9 0 00-5.028 1.7 14.478 14.478 0 01-2.932 1.307 14.224 14.224 0 01-3.135.318 10.906 10.906 0 00-5.269 1.047 10.8 10.8 0 00-3.446 3.938 14.817 14.817 0 01-1.934 2.661 14.844 14.844 0 01-2.66 1.934 10.791 10.791 0 00-3.938 3.445 10.922 10.922 0 00-1.048 5.27 14.227 14.227 0 01-.317 3.135 14.541 14.541 0 01-1.308 2.932 10.9 10.9 0 00-1.7 5.028 10.9 10.9 0 001.7 5.028 14.548 14.548 0 011.308 2.933 14.269 14.269 0 01.318 3.134 10.906 10.906 0 001.047 5.269 6.442 6.442 0 001.158 1.438L.143 65.284A1 1 0 00.967 66.8l14.508.437 6.512 12.13a1 1 0 00.858.526h.022a1 1 0 00.858-.487l8.922-14.9a8.216 8.216 0 003.516.933 8.63 8.63 0 003.805-1.07l9.044 15.107a1 1 0 00.858.486h.023a1 1 0 00.858-.526l6.516-12.13 14.507-.437a1 1 0 00.828-1.513l-9.02-15.068a6.218 6.218 0 00.926-1.2 10.906 10.906 0 001.048-5.273zM22.919 76.87l-5.952-11.086a1 1 0 00-.85-.527l-13.383-.4 7.833-13.092c.392.264.794.516 1.192.765a14.85 14.85 0 012.661 1.933 14.816 14.816 0 011.935 2.662 10.805 10.805 0 003.445 3.937 10.908 10.908 0 005.267 1.047 14.272 14.272 0 013.135.318 13.185 13.185 0 012.665 1.164zM56.63 65.324a1 1 0 00-.851.527l-5.953 11.086-8.078-13.494a11.975 11.975 0 012.379-1.016 14.278 14.278 0 013.135-.318 10.906 10.906 0 005.269-1.047 10.8 10.8 0 003.446-3.938 14.849 14.849 0 011.933-2.661 14.85 14.85 0 012.657-1.933c.489-.305.981-.616 1.456-.947l7.985 13.338zm6.927-21.572a9.329 9.329 0 01-.78 4.331 9.249 9.249 0 01-3.265 2.75 16.555 16.555 0 00-3.016 2.216 16.589 16.589 0 00-2.216 3.016 9.262 9.262 0 01-2.75 3.266 9.332 9.332 0 01-4.331.779 15.967 15.967 0 00-3.588.385 16.184 16.184 0 00-3.357 1.475 9.333 9.333 0 01-4.087 1.469 9.337 9.337 0 01-4.088-1.469 16.16 16.16 0 00-3.357-1.47 15.96 15.96 0 00-3.588-.385 9.335 9.335 0 01-4.331-.779 9.269 9.269 0 01-2.75-3.265 16.6 16.6 0 00-2.216-3.017 16.6 16.6 0 00-3.017-2.216 9.267 9.267 0 01-3.265-2.75 9.328 9.328 0 01-.779-4.33 15.96 15.96 0 00-.384-3.588 16.243 16.243 0 00-1.475-3.357 9.329 9.329 0 01-1.471-4.088 9.336 9.336 0 011.47-4.087 16.222 16.222 0 001.475-3.358 15.9 15.9 0 00.384-3.588 9.347 9.347 0 01.78-4.331 9.277 9.277 0 013.265-2.75 16.515 16.515 0 003.017-2.221 16.555 16.555 0 002.216-3.016 9.249 9.249 0 012.75-3.265 9.34 9.34 0 014.33-.78 15.9 15.9 0 003.588-.384 16.222 16.222 0 003.358-1.475A9.336 9.336 0 0136.167 2a9.336 9.336 0 014.087 1.47 16.222 16.222 0 003.358 1.475 15.9 15.9 0 003.588.384 9.322 9.322 0 014.331.78 9.259 9.259 0 012.75 3.265 16.555 16.555 0 002.216 3.016 16.509 16.509 0 003.016 2.216 9.259 9.259 0 013.265 2.75 9.332 9.332 0 01.78 4.331 15.888 15.888 0 00.384 3.587 16.2 16.2 0 001.475 3.358 9.336 9.336 0 011.47 4.087 9.35 9.35 0 01-1.469 4.088 16.085 16.085 0 00-1.475 3.357 15.9 15.9 0 00-.386 3.588z"/><path data-name="Path 1059" d="M36.167 8.84a23.879 23.879 0 1016.885 6.994A23.724 23.724 0 0036.167 8.84zm15.471 39.351a21.881 21.881 0 116.408-15.471 21.9 21.9 0 01-6.408 15.471z"/></g></svg>