<?xml version="1.0" encoding="utf-8"?><svg xmlns="http://www.w3.org/2000/svg" width="29" height="29" viewBox="0 0 29 29"><g data-name="Group 228" transform="translate(-758.128 -301.057)"><g data-name="Group 21"><g data-name="Layer 1-2"><g data-name="Group 20"><path data-name="Path 25" d="M781.893 321.829l-1.452 1.453a5.761 5.761 0 01-4.169 1.548 13.194 13.194 0 01-8.846-4.032 14.164 14.164 0 01-3.832-6.813c-.56-2.608-.1-4.824 1.322-6.236l1.424-1.471h.833a16.967 16.967 0 013.429 4.717l.137.315-2.787 2.172a14.33 14.33 0 006.723 6.771l2.172-2.8.315.138a16.986 16.986 0 014.717 3.428zm-15.114-14.68l-1.232 1.236c-1.191 1.191-1.572 3.114-1.078 5.412a13.26 13.26 0 003.573 6.371 12.477 12.477 0 008.218 3.771 4.9 4.9 0 003.574-1.286l1.232-1.24a17.269 17.269 0 00-3.886-2.857l-2.155 2.769-.31-.114a14.956 14.956 0 01-7.727-7.7l-.131-.315 2.775-2.157a17.352 17.352 0 00-2.853-3.89z" fill="#fff"/></g></g></g><circle data-name="Ellipse 48" cx="14" cy="14" r="14" transform="translate(758.628 301.557)" fill="none" stroke="#fff" stroke-miterlimit="10"/></g></svg>