<?xml version="1.0" encoding="utf-8"?><svg xmlns="http://www.w3.org/2000/svg" width="51.476" height="39.055" viewBox="0 0 51.476 39.055"><g data-name="Group 661" transform="translate(-259.125 -1318.483)" fill="#931436"><g data-name="Group 660"><path data-name="Path 1031" d="M261.268 1318.848c0 .1-.1.1-.1.2v.1c0 .1-.1.2-.1.3l-.013 4.173a5.412 5.412 0 002.075 4.278.608.608 0 00-.1.4l-.076 27.129h-.995a.994.994 0 00-.005 1.988l1.988.005 5.366.016 12.222.035 24.146.069 1.988.005a.993.993 0 10.005-1.986h-.993l.078-27.227a.371.371 0 00-.1-.3 5.417 5.417 0 002.1-4.266l.013-4.173a.367.367 0 00-.1-.3v-.1c0-.1-.1-.1-.1-.2m-29.227 4.685a3.578 3.578 0 01-7.156-.02l.009-3.18 7.156.02zm1.995-3.173l7.156.02-.009 3.18a3.578 3.578 0 01-7.156-.022zm9.143.025l7.154.02-.009 3.18a3.577 3.577 0 01-7.154-.02zm-27.426-.078l7.154.02-.009 3.18a3.577 3.577 0 11-7.154-.022zm7.252 35l.06-20.668 10.236.029-.06 20.67zm34.383.1l-22.159-.063.062-21.663a.939.939 0 00-.991-1l-12.222-.035a.938.938 0 00-1 .991l-.062 21.661-3.38-.009.076-26.531a4.141 4.141 0 001.59.3 5.687 5.687 0 004.578-2.373 5.428 5.428 0 004.564 2.4 5.687 5.687 0 004.578-2.373 5.43 5.43 0 004.563 2.4 5.69 5.69 0 004.578-2.372 5.429 5.429 0 004.565 2.4 5.681 5.681 0 004.576-2.372 5.432 5.432 0 004.565 2.4 7.723 7.723 0 001.59-.194zm2.078-31.792a3.577 3.577 0 11-7.154-.022l.009-3.178 7.154.02z"/><path data-name="Path 1032" d="M302.16 1336.057l-15.5-.043a.938.938 0 00-1 .991l-.027 9.439a.938.938 0 00.991 1l15.5.045a.94.94 0 001-.991l.027-9.441a.941.941 0 00-.991-1zm-1.022 9.438l-13.514-.038.022-7.454 13.514.04z"/></g><rect data-name="Rectangle 192" width="51.476" height="2.065" rx=".569" transform="translate(259.125 1318.483)"/><rect data-name="Rectangle 193" width="51.476" height="2.065" rx=".569" transform="translate(259.125 1355.472)"/></g></svg>