<?xml version="1.0" encoding="utf-8"?><svg xmlns="http://www.w3.org/2000/svg" width="76.619" height="74.297" viewBox="0 0 76.619 74.297"><path data-name="Path 1056" d="M34.827 67.332a1.161 1.161 0 010 2.322 34.827 34.827 0 1134.826-34.827 1.161 1.161 0 01-2.322 0 32.5 32.5 0 10-32.5 32.5zM62.688 74.3a13.931 13.931 0 1113.931-13.934A13.931 13.931 0 0162.688 74.3zm0-2.322a11.609 11.609 0 10-11.609-11.612 11.609 11.609 0 0011.609 11.609zm4.984-15.912a1.161 1.161 0 011.641 1.634l-6.965 6.97a1.16 1.16 0 01-1.641 0l-3.483-3.483a1.161 1.161 0 011.641-1.641l2.662 2.662zM47.6 34.827a1.161 1.161 0 010 2.322H33.666a1.161 1.161 0 01-1.166-1.161v-20.9a1.161 1.161 0 012.322 0v19.739z"/></svg>