<?xml version="1.0" encoding="utf-8"?><svg viewBox="0 0 440 133.19" xmlns="http://www.w3.org/2000/svg" xmlns:xlink="http://www.w3.org/1999/xlink"><style>:root>svg{display:none}:root>svg:target{display:block}</style><svg viewBox="0 0 20.552 45.287" id="arrow-black" xmlns="http://www.w3.org/2000/svg"><path data-name="Path 36" d="M19.786 44.643l-18.48-22 18.48-22" fill="none" stroke="#000" stroke-miterlimit="10" stroke-width="2"/></svg><svg viewBox="0 0 94 94" id="arrow-in-circle" xmlns="http://www.w3.org/2000/svg"><g data-name="Group 745" transform="translate(-100 -708)"><circle data-name="Ellipse 31" cx="47" cy="47" r="47" transform="rotate(180 97 401)" fill="#f5f5f5"/><path data-name="Path 186" d="M152.5 777.5l-18.48-22 18.48-22" fill="none" stroke="#000" stroke-miterlimit="10" stroke-width="2"/></g></svg><svg viewBox="0 0 73.15 74.439" id="box" xmlns="http://www.w3.org/2000/svg"><g data-name="Group 689"><g data-name="Group 688" fill="#164FAD"><path data-name="Path 1054" d="M22.315 24.665a1.733 1.733 0 00.465 1.911l13.122 11.733a1.731 1.731 0 002.359-.045l12.158-11.73a1.734 1.734 0 00-1.2-2.981h-6.166V1.734A1.733 1.733 0 0041.319 0h-9.423a1.733 1.733 0 00-1.734 1.734v21.815h-6.226a1.735 1.735 0 00-1.621 1.116zm9.581 2.352a1.733 1.733 0 001.734-1.734V3.468h5.956v21.815a1.733 1.733 0 001.734 1.734h3.6l-7.91 7.633-8.536-7.633h3.42z"/><path data-name="Path 1055" d="M72.279 41.561l-9.621-5.522 9.621-5.524a1.733 1.733 0 00-.087-3.054l-22.6-11.3a1.733 1.733 0 10-1.551 3.1l19.7 9.853-8.632 4.956-5.462-2.732a1.733 1.733 0 10-1.551 3.1l3.191 1.6-18.714 9.359-18.718-9.358 3.6-1.8a1.734 1.734 0 10-1.55-3.1l-5.868 2.934-8.635-4.957 19.7-9.852a1.733 1.733 0 10-1.551-3.1L.959 27.461a1.733 1.733 0 00-.087 3.054l9.626 5.524-9.626 5.522a1.733 1.733 0 00.087 3.054l11.287 5.646v11.147a1.733 1.733 0 00.958 1.55l22.6 11.3a1.664 1.664 0 001.53-.007c.007 0 .015.012.021.008l22.6-11.3a1.732 1.732 0 00.958-1.55V50.261l11.286-5.643a1.734 1.734 0 00.08-3.057zm-58.242-3.555l5.678 2.839 13.194 6.6-8.634 4.954-18.873-9.438zm1.676 13.985l7.842 3.922a1.74 1.74 0 001.638-.046l9.649-5.536v19.57l-19.129-9.564zm41.726 8.346L38.31 69.901V50.329l9.646 5.538a1.744 1.744 0 001.64.046l7.843-3.922zm-8.563-7.941l-8.633-4.955 18.876-9.437 8.629 4.957z"/></g></g></svg><svg viewBox="0 0 42.053 39.038" id="boxes" xmlns="http://www.w3.org/2000/svg"><g data-name="Group 682"><g data-name="Group 678"><path data-name="Path 1049" d="M35.246 27.787H6.809a1.576 1.576 0 01-1.58-1.58V14.962a1.578 1.578 0 011.58-1.58h28.438a1.58 1.58 0 011.58 1.58v11.245a1.578 1.578 0 01-1.581 1.58zm-26.858-3.16h25.279v-8.086H8.389z" fill="#a70033"/></g><g data-name="Group 679"><path data-name="Path 1050" d="M35.622 16.537H7.185a1.581 1.581 0 01-1.58-1.58V8.265a1.579 1.579 0 011.58-1.58h28.438a1.577 1.577 0 011.58 1.58v6.692a1.579 1.579 0 01-1.581 1.58zm-26.858-3.16h25.278V9.844H8.765z" fill="#a70033"/></g><g data-name="Group 680"><path data-name="Path 1051" d="M25.6 9.849H7.185a1.58 1.58 0 01-1.58-1.58V1.58A1.578 1.578 0 017.185 0H25.6a1.576 1.576 0 011.58 1.58v6.689a1.578 1.578 0 01-1.58 1.58zM8.765 6.689H24.02V3.16H8.765z" fill="#a70033"/></g><g data-name="Group 681"><path data-name="Path 1052" d="M40.473 39.039H1.58A1.579 1.579 0 010 37.459V26.207a1.578 1.578 0 011.58-1.58h38.893a1.578 1.578 0 011.58 1.58v11.252a1.579 1.579 0 01-1.58 1.58zM3.16 35.879h35.733v-8.093H3.16z" fill="#a70033"/></g></g></svg><svg viewBox="0 0 37 37" id="burger" xmlns="http://www.w3.org/2000/svg"><g data-name="Group 862" transform="translate(-521.5 -496.5)" fill="none" stroke="#4b4b4b" stroke-miterlimit="10"><circle data-name="Ellipse 93" cx="18" cy="18" r="18" transform="translate(522 497)"/><path data-name="Line 58" d="M530.4 515h19.2"/><path data-name="Line 59" d="M530.4 521h19.2"/><path data-name="Line 60" d="M530.4 509h19.2"/></g></svg><svg viewBox="0 0 67 67" id="check" xmlns="http://www.w3.org/2000/svg"><g data-name="Group 724" transform="translate(-188.5 -22.5)" stroke="#319b3a" stroke-miterlimit="10" stroke-width="3"><circle data-name="Ellipse 81" cx="32" cy="32" r="32" transform="translate(190 24)" fill="#f7f7f7"/><path data-name="Path 1067" d="M208 52l12 14 16-21" fill="none"/></g></svg><svg viewBox="0 0 31.414 31.414" id="close" xmlns="http://www.w3.org/2000/svg"><g data-name="Group 648"><g data-name="Group 647"><g data-name="Group 76"><g data-name="Group 75" fill="none" stroke="#8b8b8b" stroke-miterlimit="10" stroke-width="2"><path data-name="Line 13" d="M.707.707l30 30"/><path data-name="Line 14" d="M30.707.707l-30 30"/></g></g></g></g></svg><svg viewBox="0 0 94 94" id="close-popup" xmlns="http://www.w3.org/2000/svg"><g data-name="Group 78" transform="translate(-1792 -34)"><circle data-name="Ellipse 29" cx="47" cy="47" r="47" transform="translate(1792 34)" fill="#f5f5f5"/><g data-name="Group 76"><g data-name="Group 75" fill="none" stroke="#000" stroke-miterlimit="10" stroke-width="2"><path data-name="Line 13" d="M1819.001 61l40 40"/><path data-name="Line 14" d="M1859.001 61l-40 40"/></g></g></g></svg><svg viewBox="0 0 28 28" id="condition" xmlns="http://www.w3.org/2000/svg"><g data-name="Group 655" transform="translate(-106 -1020)" fill="none" stroke="#707070" stroke-linecap="round" stroke-width="2"><circle data-name="Ellipse 73" cx="13" cy="13" r="13" transform="translate(107 1021)" stroke-miterlimit="10"/><path data-name="Path 1030" d="M114 1033l5 5 7-9" stroke-linejoin="round"/></g></svg><svg viewBox="0 0 73.678 66.056" id="cup" xmlns="http://www.w3.org/2000/svg"><path fill="#164FAD" data-name="Path 1053" d="M73.678 6.953a2.3 2.3 0 00-2.3-2.153H57.239V2.3a2.3 2.3 0 00-2.3-2.3H18.743a2.3 2.3 0 00-2.3 2.3v2.5H2.301a2.3 2.3 0 00-2.3 2.153V7.99a28.031 28.031 0 0014.332 24.658l7.31 4.121a20.072 20.072 0 008.749 5.675v7.759h-7.045a2.3 2.3 0 00-2.3 2.3v11.25a2.3 2.3 0 002.3 2.3h26.984a2.3 2.3 0 002.3-2.3V52.506a2.3 2.3 0 00-2.3-2.3h-7.045v-7.761a20.072 20.072 0 008.749-5.675l7.31-4.121A28.031 28.031 0 0073.678 7.99zm-52.6-2.3h31.556v18.67a15.39 15.39 0 01-3.523 9.82 2.3 2.3 0 00-.817.909 15.414 15.414 0 01-11.132 4.731h-.645a15.414 15.414 0 01-11.132-4.754 2.3 2.3 0 00-.817-.909 15.39 15.39 0 01-3.523-9.82zm-4.477 23.989a23.437 23.437 0 01-12-19.236H16.44v13.917a20.251 20.251 0 00.829 5.756zm31.428 32.809H25.65v-6.643h22.379zm-9.348-11.247h-3.68V43.39c.5 0 1 .081 1.52.081h.645a9.464 9.464 0 001.52-.081zm18.42-21.562l-.668.38a20.251 20.251 0 00.829-5.756V9.405h11.811a23.438 23.438 0 01-12 19.236z"/></svg><svg viewBox="0 0 25.01 25.6" id="download" xmlns="http://www.w3.org/2000/svg"><g data-name="Group 630" fill="none" stroke="#fff" stroke-miterlimit="10" stroke-width="1.2"><path data-name="Path 1018" d="M18.332 13.232l-5.828 5.828-5.828-5.828"/><path data-name="Line 40" d="M12.505 19.048V0"/><path data-name="Path 1019" d="M6.552 4.762H.6V25h23.81V4.762h-5.952"/></g></svg><svg viewBox="0 0 30.533 23.2" id="envelope" xmlns="http://www.w3.org/2000/svg"><g data-name="Group 409" fill="none" stroke="#000" stroke-miterlimit="10" stroke-width="1.2"><path data-name="Rectangle 36" d="M.6.6h29.333v22H.6z"/><path data-name="Path 677" d="M.6.6l14.667 14.431L29.934.6"/></g></svg><svg viewBox="0 0 30.533 23.2" id="envelope-red" xmlns="http://www.w3.org/2000/svg"><g data-name="Group 409" fill="none" stroke="#a70033" stroke-miterlimit="10" stroke-width="1.2"><path data-name="Rectangle 36" d="M.6.6h29.333v22H.6z"/><path data-name="Path 677" d="M.6.6l14.667 14.431L29.934.6"/></g></svg><svg viewBox="0 0 27.667 21" id="envelopeW" xmlns="http://www.w3.org/2000/svg"><g data-name="Group 231" fill="none" stroke="#fff" stroke-miterlimit="10"><path data-name="Rectangle 36" d="M.5.5h26.667v20H.5z"/><path data-name="Path 372" d="M.5.5l13.333 12.026L27.167.5"/></g></svg><svg viewBox="0 0 17.242 17.244" id="expand" xmlns="http://www.w3.org/2000/svg"><g data-name="Group 624" fill="none" stroke="#1665b4" stroke-miterlimit="10" stroke-width="1.2"><path data-name="Path 1006" d="M11.089.6h5.553v5.554"/><path data-name="Line 18" d="M16.642.6l-6.17 6.171"/><path data-name="Path 1007" d="M.6 6.154V.6h5.553"/><path data-name="Line 19" d="M.6.6l6.17 6.171"/><path data-name="Path 1008" d="M6.153 16.643H.6v-5.554"/><path data-name="Line 20" d="M.6 16.644l6.17-6.171"/><path data-name="Path 1009" d="M16.642 11.09v5.554h-5.553"/><path data-name="Line 21" d="M16.642 16.644l-6.17-6.171"/></g></svg><svg viewBox="0 0 15 15" id="expand_M" xmlns="http://www.w3.org/2000/svg"><g data-name="Group 879" fill="none" stroke="#767676" stroke-miterlimit="10"><path data-name="Path 1231" d="M.5 5.346V.5h4.846"/><path data-name="Line 74" d="M2.5 2.5l3 3"/><g data-name="Group 876"><path data-name="Path 1232" d="M14.5 9.654V14.5H9.654"/><path data-name="Line 75" d="M12.5 12.5l-3-3"/></g><path data-name="Path 1233" d="M9.654.5H14.5v4.846"/><path data-name="Line 76" d="M12.5 2.5l-3 3"/><g data-name="Group 877"><path data-name="Path 1234" d="M5.346 14.5H.5V9.654"/><path data-name="Line 77" d="M2.5 12.5l3-3"/></g></g></svg><svg viewBox="0 0 58.912 47.534" id="fitting" xmlns="http://www.w3.org/2000/svg"><g data-name="Group 692"><path data-name="Path 1060" d="M13.806 42.008h31.3V18.1a.925.925 0 01.924-.924.984.984 0 01.258.039l5.221 1.088 2.239-10.421-14.254-5.643a10 10 0 01-2.888 5.784 10.119 10.119 0 01-14.3 0 10.046 10.046 0 01-2.888-5.784L5.165 7.882l2.246 10.426L12.7 17.2a.911.911 0 011.08.712.772.772 0 01.023.188zm39.5-23.325L54.8 19l2.137-9.854-1.448-.571zM3.435 8.571l-1.448.571L4.116 19l1.495-.313zM20.451.023a50.953 50.953 0 009.009.783 53.269 53.269 0 009.009-.783.893.893 0 01.531.04l19.334 7.655a.917.917 0 01.556 1.049L56.4 20.28a.924.924 0 01-1.088.7l-8.367-1.753V46.61a.919.919 0 01-.916.924H12.89a.925.925 0 01-.924-.924V19.231l-8.359 1.753a.932.932 0 01-1.1-.7L.03 8.8a.917.917 0 01.548-1.08L19.872.078A1.008 1.008 0 0120.248 0a.853.853 0 01.203.023zm17.22 1.988a55.7 55.7 0 01-8.211.634 53.484 53.484 0 01-8.211-.626 8.156 8.156 0 002.356 4.7 8.284 8.284 0 005.855 2.415 8.312 8.312 0 005.855-2.411 8.224 8.224 0 002.356-4.711zm7.436 41.836h-31.3v1.839h31.3z" fill="#a70033"/></g></svg><svg viewBox="0 0 51.431 63.789" id="footer-blank_M" xmlns="http://www.w3.org/2000/svg"><g data-name="Group 629" fill="none" stroke="#a39c9c" stroke-miterlimit="10" stroke-width="2"><path data-name="Path 1016" d="M50.431 13.358v49.431H1V1h37.073z"/><path data-name="Line 36" d="M11.298 25.716h28.835"/><path data-name="Line 37" d="M11.298 13.358h14.417"/><path data-name="Line 38" d="M11.298 38.074h28.835"/><path data-name="Line 39" d="M11.298 50.431h28.835"/><path data-name="Path 1017" d="M50.432 13.358H38.074V1"/></g></svg><svg viewBox="0 0 200 30.807" id="footer-logo" xmlns="http://www.w3.org/2000/svg"><g data-name="Group 226"><g data-name="Group 215"><g data-name="Group 210"><path data-name="Path 349" d="M8.792 5.739h3.274c1.781 0 3.026.8 3.026 2.328a2.174 2.174 0 01-1.034 1.893v.025a2 2 0 011.4 2c0 1.943-1.619 2.652-3.387 2.652H8.797zm3.3 3.449a.754.754 0 00.785-.822.725.725 0 00-.823-.76h-1.08V9.19zm.187 3.586a.884.884 0 00.946-.934.856.856 0 00-.934-.909h-1.32v1.843z" fill="#b5b5b5"/></g><g data-name="Group 211"><path data-name="Path 350" d="M20.942 5.59a4.46 4.46 0 014.657 4.545 4.657 4.657 0 11-9.314 0 4.46 4.46 0 014.657-4.545zm0 7.209a2.465 2.465 0 002.4-2.664 2.407 2.407 0 10-4.806 0 2.465 2.465 0 002.406 2.663z" fill="#b5b5b5"/></g><g data-name="Group 212"><path data-name="Path 351" d="M27.357 11.865a3.588 3.588 0 002.142.921c.609 0 .921-.274.921-.623 0-1.257-3.935-1.058-3.935-3.847 0-1.643 1.357-2.727 3.225-2.727a4.206 4.206 0 012.789 1.009l-.922 1.78a3.213 3.213 0 00-1.967-.784c-.659 0-.946.274-.946.635 0 1.27 3.935.971 3.935 3.785 0 1.494-1.108 2.777-3.163 2.777a4.613 4.613 0 01-3.225-1.27z" fill="#b5b5b5"/></g><g data-name="Group 213"><path data-name="Path 352" d="M38.055 5.59a4.788 4.788 0 013.337 1.258l-1.008 1.644a3.637 3.637 0 00-2.229-.91 2.365 2.365 0 00-2.515 2.541 2.487 2.487 0 002.515 2.676 3.514 3.514 0 002.366-1.095l1.12 1.594a4.854 4.854 0 01-3.586 1.494 4.425 4.425 0 01-4.669-4.62 4.485 4.485 0 014.669-4.582z" fill="#b5b5b5"/></g><g data-name="Group 214"><path data-name="Path 353" d="M46.653 5.59a4.459 4.459 0 014.656 4.545 4.657 4.657 0 11-9.313 0 4.459 4.459 0 014.657-4.545zm0 7.209a2.465 2.465 0 002.4-2.664 2.407 2.407 0 10-4.806 0 2.464 2.464 0 002.406 2.663z" fill="#b5b5b5"/></g></g><g data-name="Group 224"><g data-name="Group 216"><path data-name="Path 354" d="M67.815 5.89h1.233v8.791h-1.233z" fill="#b5b5b5"/></g><g data-name="Group 217"><path data-name="Path 355" d="M71.244 5.89h1.22l3.922 5.7c.312.485.723 1.282.723 1.282h.024s-.074-.784-.074-1.282v-5.7h1.22v8.791h-1.205l-3.922-5.7c-.311-.485-.722-1.282-.722-1.282h-.025s.075.784.075 1.282v5.7h-1.233z" fill="#b5b5b5"/></g><g data-name="Group 218"><path data-name="Path 356" d="M82.512 6.959h-3.025V5.89h7.271v1.071h-3.025v7.72h-1.221z" fill="#b5b5b5"/></g><g data-name="Group 219"><path data-name="Path 357" d="M87.965 5.89h5.118v1.071h-3.885v2.752h3.15v1.07h-3.15v2.827h4.1v1.071h-5.329z" fill="#b5b5b5"/></g><g data-name="Group 220"><path data-name="Path 358" d="M94.693 5.89h2.789a3.816 3.816 0 011.632.237 2.378 2.378 0 011.394 2.3 2.463 2.463 0 01-1.569 2.416v.025a2.916 2.916 0 01.249.4l1.868 3.412h-1.394l-1.856-3.5h-1.88v3.5h-1.233zm3 4.221a1.5 1.5 0 001.569-1.618 1.4 1.4 0 00-.822-1.383 2.523 2.523 0 00-1.058-.149h-1.457v3.15z" fill="#b5b5b5"/></g><g data-name="Group 221"><path data-name="Path 359" d="M102.416 5.89h1.221l3.922 5.7c.311.485.722 1.282.722 1.282h.025s-.075-.784-.075-1.282v-5.7h1.22v8.791h-1.208l-3.921-5.7a19.698 19.698 0 01-.723-1.282h-.025s.075.784.075 1.282v5.7h-1.233z" fill="#b5b5b5"/></g><g data-name="Group 222"><path data-name="Path 360" d="M111.669 5.89h5.117v1.071h-3.884v2.752h3.149v1.07h-3.149v2.827h4.1v1.071h-5.329z" fill="#b5b5b5"/></g><g data-name="Group 223"><path data-name="Path 361" d="M120.807 6.959h-3.025V5.89h7.271v1.071h-3.026v7.72h-1.22z" fill="#b5b5b5"/></g></g><g data-name="Group 225" fill="#b5b5b5"><path data-name="Path 362" d="M133.536 10.047v-.025a2.057 2.057 0 001.1-1.893 2.256 2.256 0 00-2.552-2.241h-3.076v8.791h3.15c1.544 0 2.839-.847 2.839-2.5a2.113 2.113 0 00-1.461-2.132zm-3.3-3.088h1.83a1.207 1.207 0 011.307 1.3 1.244 1.244 0 01-1.294 1.332h-1.843zm1.98 6.649h-1.98v-3h1.98a1.415 1.415 0 011.506 1.494 1.4 1.4 0 01-1.505 1.506z"/><path data-name="Path 363" d="M140.621 5.739a4.4 4.4 0 00-4.52 4.482 4.514 4.514 0 109.027 0 4.386 4.386 0 00-4.507-4.482zm0 7.956a3.285 3.285 0 01-3.25-3.474 3.246 3.246 0 116.487 0 3.283 3.283 0 01-3.237 3.474z"/><path data-name="Path 364" d="M152.399 11.541a2.224 2.224 0 01-4.445.012V5.89h-1.233v5.678a3.461 3.461 0 006.911 0V5.89h-1.233z"/><path data-name="Path 365" d="M157.816 14.679h1.22v-7.72h3.025V5.89h-7.271v1.071h3.025z"/><path data-name="Rectangle 105" d="M163.268 5.888h1.233v8.79h-1.233z"/><path data-name="Path 366" d="M175.19 10.234a4.507 4.507 0 00-9.014 0 4.454 4.454 0 004.495 4.594 4.3 4.3 0 002.789-.959v-.005c1.067 1.077 1.553 2.095 1.358 2.882-.226.91-1.333 1.4-2.222 1.656a5.358 5.358 0 00-3.208 2.189.528.528 0 00.922.516 4.447 4.447 0 012.574-1.689c2.1-.6 2.767-1.645 2.959-2.418.293-1.18-.284-2.524-1.654-3.9a4.565 4.565 0 001.001-2.866zm-4.519 3.461a3.3 3.3 0 01-3.225-3.461 3.24 3.24 0 116.474 0 3.568 3.568 0 01-.647 2.066l-1.009-1.033-.709.772 1.033 1.009a3.048 3.048 0 01-1.914.647z"/><path data-name="Path 367" d="M182.501 11.541a2.223 2.223 0 01-4.444.012V5.89h-1.233v5.678a3.461 3.461 0 006.91 0V5.89h-1.233z"/><path data-name="Path 368" d="M187.112 13.608v-2.826h3.15V9.711h-3.15V6.959h3.885V5.89h-5.117v8.79h5.329v-1.071z"/><path data-name="Path 369" d="M172.35 20.479a.528.528 0 00-.614.425l-.605 3.334-10.811 5.163-2.986-6.172 10.811-5.162 1.316.7a.529.529 0 00.5-.932l-1.787-.954-12.249 5.849 3.905 8.074 12.244-5.846.7-3.866a.527.527 0 00-.424-.613z"/><path data-name="Path 370" d="M168.866 20.375a1.126 1.126 0 01.125-.05.528.528 0 10-.326-1 2.1 2.1 0 00-.257.1 2.018 2.018 0 102.474 3.053.528.528 0 00-.835-.647.942.942 0 01-.341.276.962.962 0 01-.84-1.731z"/></g><path data-name="Path 371" d="M0 0v20.38h153.674v-1.056H60.04V1.056h138.9v18.268h-22.089v1.056h23.145V0zm58.985 19.324H1.056V1.056h57.929z" fill="#b5b5b5"/></g></svg><svg id="footer_blank" data-name="Слой 1" viewBox="0 0 107.36 133.19" xmlns="http://www.w3.org/2000/svg"><defs><clipPath id="atclip-path" transform="translate(-24.9 -19.81)"><path class="atcls-1" d="M-695.1 0h1920v140h-1920z"/></clipPath><style>.atcls-1,.atcls-3{fill:none}.atcls-2{clip-path:url(#atclip-path)}.atcls-3{stroke:#a39c9c;stroke-miterlimit:10;stroke-width:4px}</style></defs><g class="atcls-2"><g id="atMask_Group_1" data-name="Mask Group 1"><g id="atGroup_629" data-name="Group 629"><path id="atPath_1016" data-name="Path 1016" class="atcls-3" d="M130.25 47.65V151H26.9V21.81h77.52z" transform="translate(-24.9 -19.81)"/><path id="atLine_36" data-name="Line 36" class="atcls-3" d="M23.53 53.68h60.29"/><path id="atLine_37" data-name="Line 37" class="atcls-3" d="M23.53 27.84h30.15"/><path id="atLine_38" data-name="Line 38" class="atcls-3" d="M23.53 79.52h60.29"/><path id="atLine_39" data-name="Line 39" class="atcls-3" d="M23.53 105.35h60.29"/><path id="atPath_1017" data-name="Path 1017" class="atcls-3" d="M130.25 47.65h-25.84V21.81" transform="translate(-24.9 -19.81)"/></g></g></g></svg><svg viewBox="0 0 58 58" id="green_check" xmlns="http://www.w3.org/2000/svg"><g data-name="Group 946" transform="translate(-871 -551)"><rect data-name="Rectangle 250" width="58" height="58" rx="16" transform="translate(871 551)" fill="#39b54a"/><path data-name="Path 1261" d="M887 576.885l11.308 11.308L913 569.808" fill="none" stroke="#fff" stroke-miterlimit="10" stroke-width="3"/></g></svg><svg data-name="Group 639" viewBox="0 0 25.789 23.857" id="like" xmlns="http://www.w3.org/2000/svg"><path data-name="Path 1024" d="M25.355 14.356a2.447 2.447 0 00-.516-1.52 2.458 2.458 0 00.95-1.982 2.491 2.491 0 00-2.5-2.5c-.977 0-2.389 0-3.61.027-.543.027-1.656.027-3.2-.027.652-1.982 1.466-4.506 1.629-5.375a2.441 2.441 0 00-1.846-2.85 2.578 2.578 0 00-3.2 1.3c-.76 1.873-3.149 6.271-5.728 7.872a.72.72 0 00-.163.136 2.034 2.034 0 00-1.3-.489H2.036A2.033 2.033 0 000 10.989v9.963a2.033 2.033 0 002.036 2.036h3.773a2.116 2.116 0 001.574-.733 9.5 9.5 0 005.375 1.6h9.23a2.491 2.491 0 002.5-2.5 2.447 2.447 0 00-.516-1.52 2.524 2.524 0 00.434-3.5 2.539 2.539 0 00.949-1.979zM6.379 20.983a.545.545 0 01-.543.543h-3.8a.545.545 0 01-.543-.543v-9.99a.545.545 0 01.543-.543h3.773a.545.545 0 01.543.543v9.99zm16.912-9.121h-.081a.68.68 0 00-.679.624v.109a.716.716 0 00.516.76 1.04 1.04 0 01.787.869 1.013 1.013 0 01-1 1.113h-.081a.68.68 0 00-.679.624v.109a.716.716 0 00.516.76 1.04 1.04 0 01.787.869 1.013 1.013 0 01-1 1.113h-.081a.68.68 0 00-.679.624v.109a.716.716 0 00.516.76 1.04 1.04 0 01.787.869 1.013 1.013 0 01-1 1.113h-9.23a7.135 7.135 0 01-4.886-1.656l.027-9.773a.433.433 0 01.217-.38c3.149-1.927 5.7-6.977 6.325-8.578.19-.461.842-.57 1.384-.407a.982.982 0 01.814 1.14c-.109.6-.679 2.5-1.574 5.158a1.7 1.7 0 00-.081.516 1.534 1.534 0 001.52 1.52h3.23c1.167-.027 2.579-.027 3.529-.027a1.046 1.046 0 011.032.814.949.949 0 01-.935 1.244z" fill="#72c463"/><circle data-name="Ellipse 65" cx=".768" cy=".768" r=".768" transform="translate(4.222 18.443)" fill="#72c463"/></svg><svg viewBox="0 0 27.199 32.833" id="location" xmlns="http://www.w3.org/2000/svg"><g data-name="Group 413" transform="translate(-766.028 -191.921)" fill="none" stroke="#000" stroke-miterlimit="10" stroke-width="1.2"><circle data-name="Ellipse 53" cx="6" cy="6" r="6" transform="translate(773.628 199.522)"/><path data-name="Path 682" d="M788.82 214.714a13 13 0 10-18.384 0l9.192 9.192z"/></g></svg><svg viewBox="0 0 27.199 32.833" id="location-red" xmlns="http://www.w3.org/2000/svg"><g data-name="Group 413" transform="translate(-766.028 -191.921)" fill="none" stroke="#a70033" stroke-miterlimit="10" stroke-width="1.2"><circle data-name="Ellipse 53" cx="6" cy="6" r="6" transform="translate(773.628 199.522)"/><path data-name="Path 682" d="M788.82 214.714a13 13 0 10-18.384 0l9.192 9.192z"/></g></svg><svg viewBox="0 0 40 40" id="location2" xmlns="http://www.w3.org/2000/svg"><g data-name="Group 734" fill="none" stroke="#707070" stroke-miterlimit="10" stroke-width="2"><path data-name="Path 1084" d="M19.999 1a19 19 0 11-19 19 19 19 0 0119-19z"/><g data-name="Group 733" transform="translate(-511.101 -42.959)"><path data-name="Path 1085" d="M531.1 51.724a7.976 7.976 0 018 8s.29 6.908-8 14.471c-8.29-7.563-8-14.471-8-14.471a7.976 7.976 0 018-8"/><circle data-name="Ellipse 83" cx="3.636" cy="3.636" r="3.636" transform="translate(527.465 56.087)"/></g></g></svg><svg viewBox="0 0 25 30.177" id="locationW" xmlns="http://www.w3.org/2000/svg"><g data-name="Group 227" transform="translate(-472.644 -75.259)" fill="none" stroke="#fff" stroke-miterlimit="10"><circle data-name="Ellipse 47" cx="5" cy="5" r="5" transform="translate(480.144 82.933)"/><path data-name="Path 289" d="M493.63 96.245a12 12 0 10-16.97 0l8.485 8.485z"/></g></svg><svg viewBox="0 0 440 102.703" id="logo" xmlns="http://www.w3.org/2000/svg"><g data-name="Group 742"><g data-name="Group 536"><path data-name="Path 863" d="M24.673 88.373v5.955H21.86v-5.955C8.834 88.373 0 81.239 0 69.261c0-11.157 7.665-18.11 19.242-19.011v2.495c-10.06.838-16.3 6.617-16.3 16.518 0 10.734 7.33 16.625 18.916 16.625V44.453h2.813v5.694c12.96 0 21.86 7.134 21.86 19.111 0 11.156-7.665 18.11-19.242 19.012v-2.5c10.06-.837 16.3-6.617 16.3-16.519 0-10.733-7.33-16.625-18.916-16.625v35.747z"/><path data-name="Path 864" d="M76.769 46.94a23.13 23.13 0 0123.17 23.09v.276c0 13.483-10.407 24.02-23.169 24.02s-23.173-10.537-23.173-24.02a23.13 23.13 0 0122.9-23.365zm0 44.7c11.192 0 20.224-9.294 20.224-21.337 0-11.716-9.033-20.682-20.224-20.682s-20.224 8.965-20.224 20.682c0 12.046 9.033 21.34 20.224 21.34z"/><path data-name="Path 865" d="M122.197 52.962v40.577h-2.82V52.962zm-19.9-2.618v-2.619h36.979v2.619z"/><path data-name="Path 866" d="M259.961 52.962v40.577h-2.814V52.962zm-19.9-2.618v-2.619h36.979v2.619z"/><path data-name="Path 867" d="M164.797 46.94a23.13 23.13 0 0123.17 23.09v.276c0 13.483-10.406 24.02-23.168 24.02s-23.169-10.537-23.169-24.02a23.131 23.131 0 0122.893-23.365zm0 44.7c11.191 0 20.224-9.294 20.224-21.337 0-11.716-9.033-20.682-20.224-20.682s-20.225 8.965-20.225 20.682c.004 12.046 9.036 21.34 20.225 21.34z"/><path data-name="Path 868" d="M218.467 46.94c5.76 0 12.043 1.7 16.36 5.76l-1.7 2.094c-3.732-3.338-9.428-5.17-14.6-5.17-11.647 0-19.831 8.835-19.831 20.682 0 11.911 8.115 21.337 20.027 21.337a22.326 22.326 0 0015.511-6.219l1.768 1.964a24 24 0 01-17.279 6.937c-13.745 0-22.973-10.733-22.973-24.02s9.431-23.365 22.717-23.365z"/><path data-name="Path 869" d="M286.852 89.483c1.047.719 3.143 2.224 5.368 2.224 3.337 0 4.646-2.814 6.285-7.2l-18.326-36.788h3.143l13.875 27.883c1.309 2.619 2.618 5.892 2.618 5.892h.132s1.109-3.273 2.094-5.892l10.472-27.882h3.076l-15.381 39.663c-1.571 3.992-3.992 6.937-7.984 6.937a12.525 12.525 0 01-6.872-2.617z"/><path data-name="Path 870" d="M318.791 90.923c7.527-9.556 8.115-23.563 8.115-34.754v-8.444h23.691v43.2h5.107v11.78h-2.749v-9.163h-35.932v9.163h-2.818V90.923zm28.994 0V50.345h-18.129v5.76c0 12.043-1.047 25.656-7.657 34.82z"/><path data-name="Path 871" d="M365.587 47.725h2.81v35.933c0 2.291-.327 5.759-.327 5.759h.13s2.487-3.861 3.993-5.955l25.853-35.736h2.621v45.815h-2.813V57.61c0-2.292.327-5.76.327-5.76h-.131s-2.292 3.665-3.8 5.76L368.2 93.541h-2.618z"/><path data-name="Path 872" d="M421.283 74.691a29.542 29.542 0 011.047-1.637v-.131c-6.48-1.572-9.687-6.286-9.687-12.828 0-5.237 2.552-9.1 6.348-11 1.832-.917 3.992-1.375 8.247-1.375h12.759v45.816h-2.815V73.251h-11.713l-12.3 20.289h-3.337zm15.9-4.059V50.344h-9.817c-3.666 0-5.106.327-6.414.917a9.3 9.3 0 00-5.367 8.835c0 6.218 3.8 10.537 9.817 10.537z"/><g data-name="Group 535"><g data-name="Group 524"><g data-name="Group 519"><path data-name="Path 873" d="M10.415 6.384h3.642c1.981 0 3.364.887 3.364 2.588a2.415 2.415 0 01-1.149 2.1v.028a2.217 2.217 0 011.551 2.229c0 2.16-1.8 2.949-3.766 2.949h-3.642zm3.67 3.836a.837.837 0 00.875-.8.765.765 0 000-.117.806.806 0 00-.758-.851.825.825 0 00-.157.006h-1.2v1.756zm.208 3.989a.983.983 0 001.051-.91.791.791 0 000-.129.951.951 0 00-.886-1.013.854.854 0 00-.152 0h-1.467v2.05z" fill="#231f20"/></g><g data-name="Group 520"><path data-name="Path 874" d="M23.933 6.218a4.959 4.959 0 015.172 4.738c.005.1.006.211 0 .317a5.179 5.179 0 11-10.358 0 4.962 4.962 0 014.861-5.059c.111-.002.218-.001.325.004zm0 8.018a2.742 2.742 0 002.681-2.8c0-.053 0-.107-.009-.16a2.68 2.68 0 10-5.345-.41 2.554 2.554 0 000 .41 2.744 2.744 0 002.514 2.955l.159.005z" fill="#231f20"/></g><g data-name="Group 521"><path data-name="Path 875" d="M31.068 13.202a3.986 3.986 0 002.382 1.024c.678 0 1.024-.3 1.024-.692 0-1.4-4.376-1.177-4.376-4.28 0-1.828 1.51-3.032 3.587-3.032a4.682 4.682 0 013.1 1.122l-1.026 1.981a3.565 3.565 0 00-2.186-.872c-.734 0-1.053.3-1.053.7 0 1.413 4.375 1.081 4.375 4.21 0 1.664-1.232 3.089-3.517 3.089a5.123 5.123 0 01-3.587-1.413z" fill="#231f20"/></g><g data-name="Group 522"><path data-name="Path 876" d="M42.966 6.218a5.329 5.329 0 013.711 1.4l-1.122 1.829a4.049 4.049 0 00-2.479-1.01 2.636 2.636 0 00-2.8 2.826 2.767 2.767 0 002.547 2.97c.083.007.167.009.25.008a3.906 3.906 0 002.631-1.219l1.246 1.773a5.4 5.4 0 01-3.988 1.664 4.915 4.915 0 01-5.193-5.139 4.991 4.991 0 014.877-5.1c.108-.007.214-.006.32-.002z" fill="#231f20"/></g><g data-name="Group 523"><path data-name="Path 877" d="M52.528 6.218a4.96 4.96 0 015.172 4.738c.005.1.006.211 0 .317a5.179 5.179 0 11-10.358 0 4.959 4.959 0 014.857-5.059 5.13 5.13 0 01.329.004zm0 8.018a2.742 2.742 0 002.681-2.8c0-.054 0-.107-.008-.161a2.681 2.681 0 10-5.345 0 2.742 2.742 0 002.51 2.955l.162.006z" fill="#231f20"/></g></g><g data-name="Group 533"><g data-name="Group 525"><path data-name="Path 878" d="M76.064 6.551h1.372v9.776h-1.372z" fill="#231f20"/></g><g data-name="Group 526"><path data-name="Path 879" d="M79.879 6.551h1.357l4.362 6.341c.346.54.8 1.427.8 1.427h.026s-.083-.873-.083-1.427V6.551h1.358v9.776h-1.343l-4.359-6.342c-.345-.54-.8-1.427-.8-1.427h-.028s.083.872.083 1.427v6.342h-1.37z" fill="#231f20"/></g><g data-name="Group 527"><path data-name="Path 880" d="M92.411 7.741h-3.37v-1.19h8.087v1.19h-3.365v8.585h-1.358z" fill="#231f20"/></g><g data-name="Group 528"><path data-name="Path 881" d="M98.475 6.551h5.688v1.19h-4.321v3.061h3.5v1.19h-3.5v3.143h4.555v1.19H98.47z" fill="#231f20"/></g><g data-name="Group 529"><path data-name="Path 882" d="M105.957 6.551h3.1a4.252 4.252 0 011.815.262 2.645 2.645 0 011.551 2.559 2.741 2.741 0 01-1.745 2.687v.027a3.416 3.416 0 01.277.443l2.077 3.795h-1.554l-2.064-3.892h-2.091v3.892h-1.371zm3.338 4.693a1.662 1.662 0 001.748-1.571 1.7 1.7 0 000-.225 1.56 1.56 0 00-.914-1.537 2.808 2.808 0 00-1.177-.166h-1.62v3.5z" fill="#231f20"/></g><g data-name="Group 530"><path data-name="Path 883" d="M114.547 6.551h1.358l4.361 6.341c.347.54.8 1.427.8 1.427h.027s-.084-.873-.084-1.427V6.551h1.358v9.776h-1.343l-4.362-6.342c-.345-.54-.8-1.427-.8-1.427h-.027s.083.872.083 1.427v6.342h-1.371z" fill="#231f20"/></g><g data-name="Group 531"><path data-name="Path 884" d="M124.838 6.551h5.691v1.19h-4.32v3.061h3.5v1.19h-3.5v3.143h4.556v1.19h-5.927z" fill="#231f20"/></g><g data-name="Group 532"><path data-name="Path 885" d="M135.002 7.741h-3.366v-1.19h8.088v1.19h-3.366v8.585h-1.361z" fill="#231f20"/></g></g><g data-name="Group 534" fill="#231f20"><path data-name="Path 886" d="M149.158 11.173v-.027a2.29 2.29 0 001.219-2.1c0-1.579-1.178-2.5-2.84-2.5h-3.42v9.776h3.5c1.716 0 3.157-.942 3.157-2.783a2.351 2.351 0 00-1.616-2.366zm-3.67-3.434h2.034a1.347 1.347 0 011.454 1.44 1.387 1.387 0 01-1.29 1.477 1.257 1.257 0 01-.151 0h-2.046zm2.2 7.4h-2.2v-3.337h2.2a1.572 1.572 0 011.675 1.46 1.816 1.816 0 01-1.43 1.877 1.689 1.689 0 01-.243-.003z"/><path data-name="Path 887" d="M157.036 6.384a4.89 4.89 0 00-5.025 4.75v.236a5.021 5.021 0 1010.039.236v-.236a4.878 4.878 0 00-4.768-4.986 5.043 5.043 0 00-.246 0zm0 8.849a3.652 3.652 0 01-3.62-3.685c0-.059 0-.119.005-.178a3.61 3.61 0 017.216-.231v.231a3.65 3.65 0 01-3.43 3.857q-.085.005-.171.006z"/><path data-name="Path 888" d="M170.137 12.838a2.474 2.474 0 01-4.944.014v-6.3h-1.37v6.314a3.848 3.848 0 007.685 0V6.552h-1.371z"/><path data-name="Path 889" d="M176.162 16.327h1.358V7.741h3.365V6.55h-8.088v1.191h3.364z"/><path data-name="Rectangle 141" d="M182.226 6.551h1.371v9.776h-1.371z"/><path data-name="Path 890" d="M195.485 11.384a5.013 5.013 0 00-10.026 0 4.952 4.952 0 004.8 5.106h.2a4.793 4.793 0 003.1-1.066v-.006c1.187 1.2 1.728 2.33 1.51 3.205-.25 1.017-1.478 1.561-2.471 1.843a5.952 5.952 0 00-3.567 2.435.586.586 0 00.224.8.587.587 0 00.8-.225 4.947 4.947 0 012.865-1.879c2.332-.664 3.077-1.83 3.291-2.689.325-1.313-.317-2.807-1.839-4.334a5.086 5.086 0 001.113-3.19zm-5.026 3.849a3.667 3.667 0 01-3.59-3.744v-.1a3.605 3.605 0 117.2-.365c.006.122.006.243 0 .365a3.982 3.982 0 01-.72 2.3l-1.122-1.15-.789.859 1.15 1.122a3.4 3.4 0 01-2.13.719z"/><path data-name="Path 891" d="M203.616 12.838a2.473 2.473 0 01-4.943.014v-6.3h-1.376v6.314a3.849 3.849 0 007.686 0V6.552h-1.372z"/><path data-name="Path 892" d="M208.744 15.136v-3.143h3.5v-1.191h-3.5V7.741h4.321V6.55h-5.691v9.776h5.923v-1.19z"/><path data-name="Path 893" d="M192.326 22.773a.587.587 0 00-.682.472l-.673 3.709-12.025 5.741-3.321-6.864 12.024-5.741 1.464.782a.588.588 0 00.554-1.037l-1.988-1.061-13.623 6.507 4.344 8.978 13.622-6.5.779-4.3a.588.588 0 00-.474-.682z"/><path data-name="Path 894" d="M188.451 22.663a.983.983 0 01.139-.056.588.588 0 00-.362-1.118 2.22 2.22 0 00-.285.116 2.244 2.244 0 102.75 3.4.587.587 0 00-.924-.719 1.069 1.069 0 11-1.313-1.618z"/></g><path data-name="Path 895" d="M.641 0v22.666h170.914v-1.175H67.418V1.173h154.486V21.49h-24.569v1.183h25.742V0zm65.6 21.492H1.82V1.173h64.424z" fill="#231f20"/></g></g></g></svg><svg viewBox="0 0 210 50" id="logo_M" xmlns="http://www.w3.org/2000/svg"><g data-name="Group 956"><g data-name="Group 955"><path data-name="Path 863" d="M11.776 43.159v2.843h-1.343v-2.843C4.216 43.159 0 39.759 0 34.038c0-5.325 3.658-8.644 9.184-9.074v1.191c-4.8.4-7.779 3.159-7.779 7.884 0 5.123 3.5 7.935 9.029 7.935V22.199h1.342v2.718c6.186 0 10.434 3.4 10.434 9.121 0 5.324-3.659 8.643-9.184 9.074v-1.191c4.8-.4 7.778-3.159 7.778-7.885 0-5.122-3.5-7.934-9.028-7.934v17.056z"/><path data-name="Path 864" d="M36.64 23.383a11.039 11.039 0 0111.058 11.02v.132a11.065 11.065 0 11-22.116 0 11.04 11.04 0 0110.926-11.152zm0 21.335a9.844 9.844 0 009.652-10.183 9.655 9.655 0 10-19.305 0 9.845 9.845 0 009.653 10.186z"/><path data-name="Path 865" d="M58.319 26.26v19.367h-1.343V26.26zm-9.5-1.249v-1.25h17.649v1.25z"/><path data-name="Path 866" d="M124.072 26.26v19.367h-1.343V26.26zm-9.5-1.249v-1.25h17.649v1.25z"/><path data-name="Path 867" d="M78.654 23.383a11.041 11.041 0 0111.059 11.02v.132a11.065 11.065 0 11-22.115 0 11.038 11.038 0 0110.925-11.152zm0 21.335a9.844 9.844 0 009.653-10.183 9.655 9.655 0 10-19.3 0 9.844 9.844 0 009.647 10.186z"/><path data-name="Path 868" d="M104.268 23.383a11.5 11.5 0 017.809 2.749l-.812 1a10.845 10.845 0 00-6.966-2.468c-5.558 0-9.465 4.217-9.465 9.871 0 5.685 3.874 10.183 9.559 10.183a10.649 10.649 0 007.4-2.968l.844.938a11.459 11.459 0 01-8.247 3.311c-6.56 0-10.965-5.123-10.965-11.464s4.502-11.152 10.843-11.152z"/><path data-name="Path 869" d="M136.907 43.691a4.867 4.867 0 002.561 1.061c1.593 0 2.218-1.343 3-3.436l-8.746-17.557h1.5l6.622 13.307a44.062 44.062 0 011.25 2.812h.062s.53-1.562 1-2.812l5-13.307h1.468l-7.341 18.93c-.75 1.905-1.9 3.31-3.81 3.31a5.97 5.97 0 01-3.28-1.249z"/><path data-name="Path 870" d="M152.15 44.383c3.593-4.561 3.873-11.246 3.873-16.587v-4.03h11.309v20.617h2.437v5.622h-1.312v-4.373h-17.15v4.373h-1.345v-5.622zm13.838 0V25.011h-8.652v2.749c0 5.748-.5 12.245-3.655 16.619z"/><path data-name="Path 871" d="M174.485 23.761h1.343V40.91c0 1.094-.156 2.749-.156 2.749h.062s1.187-1.842 1.906-2.842l12.338-17.056h1.252v21.867h-1.343v-17.15c0-1.093.156-2.748.156-2.748h-.063s-1.093 1.749-1.812 2.748l-12.432 17.15h-1.25z"/><path data-name="Path 872" d="M201.067 36.631c.281-.469.5-.781.5-.781v-.067c-3.093-.75-4.624-3-4.624-6.122a5.606 5.606 0 013.03-5.25 8.314 8.314 0 013.936-.656H210v21.866h-1.343V35.94h-5.591l-5.873 9.683H195.6zm7.59-1.937v-9.683h-4.685a6.894 6.894 0 00-3.062.437 4.439 4.439 0 00-2.561 4.217c0 2.968 1.812 5.029 4.685 5.029z"/></g><g data-name="Group 535"><g data-name="Group 524"><g data-name="Group 519"><path data-name="Path 873" d="M56.583 3.047h1.738c.946 0 1.606.423 1.606 1.235a1.154 1.154 0 01-.548 1.005V5.3a1.058 1.058 0 01.74 1.064c0 1.031-.859 1.407-1.8 1.407h-1.738zm1.752 1.831a.4.4 0 00.418-.381.539.539 0 000-.056.385.385 0 00-.362-.406.468.468 0 00-.075 0h-.573v.838zm.1 1.9a.469.469 0 00.5-.434.324.324 0 000-.062.453.453 0 00-.423-.483.436.436 0 00-.072 0h-.7v.978z" fill="#231f20"/></g><g data-name="Group 520"><path data-name="Path 874" d="M63.035 2.968a2.367 2.367 0 012.469 2.261v.151a2.472 2.472 0 01-4.944 0 2.368 2.368 0 012.32-2.414 1.99 1.99 0 01.155.002zm0 3.827a1.309 1.309 0 001.279-1.338V5.38a1.28 1.28 0 10-2.552 0 1.31 1.31 0 001.2 1.411z" fill="#231f20"/></g><g data-name="Group 521"><path data-name="Path 875" d="M66.44 6.299a1.905 1.905 0 001.137.489c.324 0 .489-.146.489-.331 0-.667-2.088-.561-2.088-2.042a1.523 1.523 0 011.711-1.448 2.237 2.237 0 011.481.536l-.489.945a1.711 1.711 0 00-1.044-.416c-.351 0-.5.145-.5.337 0 .674 2.089.516 2.089 2.009a1.5 1.5 0 01-1.679 1.474 2.443 2.443 0 01-1.712-.674z" fill="#231f20"/></g><g data-name="Group 522"><path data-name="Path 876" d="M72.119 2.967a2.541 2.541 0 011.771.667l-.536.873a1.933 1.933 0 00-1.182-.483 1.256 1.256 0 00-1.336 1.169 1.215 1.215 0 000 .181 1.32 1.32 0 001.215 1.417h.12a1.864 1.864 0 001.255-.582l.6.846a2.576 2.576 0 01-1.9.794 2.349 2.349 0 01-2.477-2.213 2.555 2.555 0 012.327-2.675c.042.003.092.004.143.006z" fill="#231f20"/></g><g data-name="Group 523"><path data-name="Path 877" d="M76.683 2.968a2.366 2.366 0 012.468 2.261v.151a2.472 2.472 0 01-4.944 0 2.367 2.367 0 012.318-2.414c.054-.001.106-.001.158.002zm0 3.827a1.309 1.309 0 001.279-1.338V5.38a1.279 1.279 0 10-2.55-.2 1.128 1.128 0 000 .2 1.309 1.309 0 001.2 1.411z" fill="#231f20"/></g></g><g data-name="Group 533"><g data-name="Group 525"><path data-name="Path 878" d="M87.916 3.126h.655v4.666h-.655z" fill="#231f20"/></g><g data-name="Group 526"><path data-name="Path 879" d="M89.737 3.126h.647l2.082 3.027c.165.258.384.681.384.681h.012s-.039-.417-.039-.681V3.126h.648v4.666h-.641l-2.082-3.027c-.165-.257-.383-.68-.383-.68h-.014s.04.416.04.68v3.027h-.654z" fill="#231f20"/></g><g data-name="Group 527"><path data-name="Path 880" d="M95.718 3.7H94.11v-.569h3.859V3.7h-1.606v4.1h-.648z" fill="#231f20"/></g><g data-name="Group 528"><path data-name="Path 881" d="M98.612 3.126h2.715v.569h-2.063v1.46h1.672v.568h-1.672v1.5h2.175v.569H98.61z" fill="#231f20"/></g><g data-name="Group 529"><path data-name="Path 882" d="M102.183 3.126h1.481a2.031 2.031 0 01.866.126 1.263 1.263 0 01.74 1.221 1.307 1.307 0 01-.833 1.282v.013a1.6 1.6 0 01.132.212l.991 1.811h-.741l-.985-1.858h-1v1.858h-.655zm1.593 2.241a.8.8 0 00.835-.752.951.951 0 000-.107.745.745 0 00-.436-.734 1.345 1.345 0 00-.562-.079h-.773v1.672z" fill="#231f20"/></g><g data-name="Group 530"><path data-name="Path 883" d="M106.283 3.126h.648l2.081 3.027c.166.258.384.681.384.681h.013s-.04-.417-.04-.681V3.126h.648v4.666h-.641l-2.082-3.027c-.165-.257-.383-.68-.383-.68h-.011s.04.416.04.68v3.027h-.655z" fill="#231f20"/></g><g data-name="Group 531"><path data-name="Path 884" d="M111.194 3.126h2.717v.569h-2.062v1.46h1.672v.568h-1.672v1.5h2.174v.569h-2.829z" fill="#231f20"/></g><g data-name="Group 532"><path data-name="Path 885" d="M116.045 3.7h-1.606v-.569h3.86V3.7h-1.607v4.1h-.647z" fill="#231f20"/></g></g><g data-name="Group 534" fill="#231f20"><path data-name="Path 886" d="M122.8 5.333v-.012a1.092 1.092 0 00.582-1.005 1.2 1.2 0 00-1.355-1.191H120.4v4.666h1.672a1.345 1.345 0 001.507-1.328 1.123 1.123 0 00-.779-1.13zM121.05 3.7h.971a.639.639 0 01.693.582.731.731 0 010 .105.662.662 0 01-.616.7h-1.049zm1.051 3.529h-1.051V5.636h1.05a.751.751 0 01.8.7.779.779 0 010 .1.744.744 0 01-.683.8.764.764 0 01-.117-.012z"/><path data-name="Path 887" d="M126.562 3.047a2.335 2.335 0 00-2.4 2.267v.113a2.4 2.4 0 104.791.112v-.112a2.328 2.328 0 00-2.276-2.38zm0 4.223a1.743 1.743 0 01-1.728-1.758v-.085a1.723 1.723 0 013.444-.111v.111a1.741 1.741 0 01-1.637 1.84z"/><path data-name="Path 888" d="M132.814 6.127a1.18 1.18 0 01-2.359.007V3.126h-.655V6.14a1.837 1.837 0 003.668 0V3.126h-.655z"/><path data-name="Path 889" d="M135.69 7.792h.648v-4.1h1.606v-.569h-3.86v.569h1.606z"/><path data-name="Rectangle 141" d="M138.584 3.126h.654v4.666h-.654z"/><path data-name="Path 890" d="M144.912 5.433a2.393 2.393 0 00-4.785 0 2.364 2.364 0 002.289 2.437h.1a2.291 2.291 0 001.481-.508c.566.574.824 1.112.721 1.53-.12.485-.706.745-1.18.879a2.841 2.841 0 00-1.7 1.162.279.279 0 00.107.381.275.275 0 00.137.036.28.28 0 00.244-.143 2.359 2.359 0 011.368-.9c1.113-.317 1.469-.873 1.571-1.283a2.288 2.288 0 00-.878-2.069 2.428 2.428 0 00.525-1.522zm-2.4 1.837a1.75 1.75 0 01-1.713-1.787v-.05a1.72 1.72 0 013.436-.174 1.689 1.689 0 010 .174 1.894 1.894 0 01-.343 1.1l-.536-.548-.376.409.548.536a1.618 1.618 0 01-1.016.343z"/><path data-name="Path 891" d="M148.793 6.127a1.18 1.18 0 01-2.359.007V3.126h-.655V6.14a1.837 1.837 0 003.669 0V3.126h-.655z"/><path data-name="Path 892" d="M151.24 7.224v-1.5h1.673v-.569h-1.673V3.7h2.06v-.569h-2.716v4.666h2.828v-.568z"/><path data-name="Path 893" d="M143.4 10.871a.28.28 0 00-.325.226l-.321 1.77-5.739 2.74-1.585-3.276 5.738-2.74.7.373a.281.281 0 10.265-.495l-.949-.506-6.5 3.1 2.073 4.285 6.5-3.1.372-2.052a.281.281 0 00-.226-.326z"/><path data-name="Path 894" d="M141.555 10.817a.419.419 0 01.066-.027.281.281 0 00-.172-.534 1.154 1.154 0 00-.137.055 1.071 1.071 0 101.313 1.621.28.28 0 00-.441-.343.511.511 0 11-.806-.627.523.523 0 01.18-.146z"/></g><path data-name="Path 895" d="M51.919 0v10.818h81.572v-.561h-49.7v-9.7h73.732v9.7H145.8v.561h12.286V0zm31.31 10.258H52.481v-9.7h30.748z" fill="#231f20"/></g></g></svg><svg viewBox="0 0 40 40" id="mail" xmlns="http://www.w3.org/2000/svg"><g data-name="Group 731"><path data-name="Path 1080" d="M31.875 19.458a8.056 8.056 0 01-.491 2.913 6.609 6.609 0 01-1.251 2.074 4.953 4.953 0 01-1.583 1.22 4.293 4.293 0 01-1.757.411 5.061 5.061 0 01-2.312-.459 3.432 3.432 0 01-1.362-1.172 21.029 21.029 0 01-2.137 1 6.008 6.008 0 01-2.328.475 3.894 3.894 0 01-2.771-1 3.6 3.6 0 01-1.108-2.707 3.079 3.079 0 01.459-1.726 3.883 3.883 0 011.124-1.124 4.758 4.758 0 011.425-.633 5.729 5.729 0 011.378-.19h3.452v-.713a1.977 1.977 0 00-.824-1.947 3.976 3.976 0 00-2.09-.507 6.036 6.036 0 00-1.377.19 4.643 4.643 0 00-1.726.934l-1.156-1.583a7.207 7.207 0 012.264-1.251 7.083 7.083 0 012.074-.317 5.653 5.653 0 013.69 1.093 4.008 4.008 0 011.33 3.277v4.75a1.583 1.583 0 00.506 1.283 2.315 2.315 0 001.409.38 2.522 2.522 0 001.125-.285 2.959 2.959 0 001.013-.887 4.725 4.725 0 00.744-1.488 6.939 6.939 0 00.285-2.09 11.553 11.553 0 00-.649-3.864 8.528 8.528 0 00-1.853-2.8 8.616 8.616 0 00-2.915-1.946 10.008 10.008 0 00-3.832-.744 11.782 11.782 0 00-4.211.76 10.716 10.716 0 00-3.341 2.059 9.641 9.641 0 00-2.28 3.04 10.3 10.3 0 00-.839 4.132 9.766 9.766 0 00.744 3.784 9.137 9.137 0 005.177 5.114 11.222 11.222 0 004.085.729 9.923 9.923 0 001.837-.174 11.825 11.825 0 002.185-.681l.7 1.916a11.126 11.126 0 01-2.692.744 17.558 17.558 0 01-2.011.142 13.424 13.424 0 01-4.861-.855 11.478 11.478 0 01-3.752-2.391 10.6 10.6 0 01-2.454-3.641 11.95 11.95 0 01-.95-4.639 12.215 12.215 0 011-4.956 11.706 11.706 0 012.692-3.689 12.416 12.416 0 013.974-2.439 14.141 14.141 0 015-.871 12.2 12.2 0 014.75.871 10.213 10.213 0 015.748 5.906 13.6 13.6 0 01.743 4.572zm-9.262.934h-3.99a2.355 2.355 0 00-.808.238 1.69 1.69 0 00-.633.554 1.815 1.815 0 00.316 2.248 2.327 2.327 0 001.473.443 3.853 3.853 0 00.95-.126 6.406 6.406 0 00.95-.333 8.729 8.729 0 00.887-.443l.775-.428z" fill="#707070"/><path data-name="Path 1081" d="M20 1A19 19 0 111 20 19 19 0 0120 1z" fill="none" stroke="#707070" stroke-miterlimit="10" stroke-width="2"/></g></svg><svg viewBox="0 0 72.744 79.962" id="medal" xmlns="http://www.w3.org/2000/svg"><g data-name="Group 690" fill="#164FAD"><path data-name="Path 1057" d="M49.32 28.166l-7.62-2.033-4.295-6.591a1.039 1.039 0 00-1.676 0l-4.295 6.591-7.62 2.033a1 1 0 00-.518 1.6l4.963 6.106-.413 7.845a1 1 0 001.356.987l7.365-2.821 7.365 2.817a1 1 0 001.356-.987l-.413-7.845 4.963-6.106a1 1 0 00-.518-1.6zm-6.24 6.74a1 1 0 00-.223.683l.353 6.694-6.286-2.405a1.013 1.013 0 00-.714 0l-6.286 2.405.353-6.694a1 1 0 00-.223-.683L25.822 29.7l6.5-1.734a1 1 0 00.58-.42l3.665-5.627 3.667 5.627a1 1 0 00.58.42l6.5 1.734z"/><path data-name="Path 1058" d="M65.556 43.815a14.212 14.212 0 01.318-3.135 14.548 14.548 0 011.308-2.933 10.9 10.9 0 001.7-5.028 10.892 10.892 0 00-1.705-5.028 14.534 14.534 0 01-1.307-2.932 14.218 14.218 0 01-.318-3.135 10.906 10.906 0 00-1.047-5.269 10.8 10.8 0 00-3.938-3.445 14.853 14.853 0 01-2.661-1.934 14.849 14.849 0 01-1.933-2.661 10.811 10.811 0 00-3.446-3.938 10.91 10.91 0 00-5.27-1.047 14.269 14.269 0 01-3.134-.318 14.492 14.492 0 01-2.93-1.312A10.9 10.9 0 0036.167 0a10.9 10.9 0 00-5.028 1.7 14.478 14.478 0 01-2.932 1.307 14.224 14.224 0 01-3.135.318 10.906 10.906 0 00-5.269 1.047 10.8 10.8 0 00-3.446 3.938 14.817 14.817 0 01-1.934 2.661 14.844 14.844 0 01-2.66 1.934 10.791 10.791 0 00-3.938 3.445 10.922 10.922 0 00-1.048 5.27 14.227 14.227 0 01-.317 3.135 14.541 14.541 0 01-1.308 2.932 10.9 10.9 0 00-1.7 5.028 10.9 10.9 0 001.7 5.028 14.548 14.548 0 011.308 2.933 14.269 14.269 0 01.318 3.134 10.906 10.906 0 001.047 5.269 6.442 6.442 0 001.158 1.438L.143 65.284A1 1 0 00.967 66.8l14.508.437 6.512 12.13a1 1 0 00.858.526h.022a1 1 0 00.858-.487l8.922-14.9a8.216 8.216 0 003.516.933 8.63 8.63 0 003.805-1.07l9.044 15.107a1 1 0 00.858.486h.023a1 1 0 00.858-.526l6.516-12.13 14.507-.437a1 1 0 00.828-1.513l-9.02-15.068a6.218 6.218 0 00.926-1.2 10.906 10.906 0 001.048-5.273zM22.919 76.87l-5.952-11.086a1 1 0 00-.85-.527l-13.383-.4 7.833-13.092c.392.264.794.516 1.192.765a14.85 14.85 0 012.661 1.933 14.816 14.816 0 011.935 2.662 10.805 10.805 0 003.445 3.937 10.908 10.908 0 005.267 1.047 14.272 14.272 0 013.135.318 13.185 13.185 0 012.665 1.164zM56.63 65.324a1 1 0 00-.851.527l-5.953 11.086-8.078-13.494a11.975 11.975 0 012.379-1.016 14.278 14.278 0 013.135-.318 10.906 10.906 0 005.269-1.047 10.8 10.8 0 003.446-3.938 14.849 14.849 0 011.933-2.661 14.85 14.85 0 012.657-1.933c.489-.305.981-.616 1.456-.947l7.985 13.338zm6.927-21.572a9.329 9.329 0 01-.78 4.331 9.249 9.249 0 01-3.265 2.75 16.555 16.555 0 00-3.016 2.216 16.589 16.589 0 00-2.216 3.016 9.262 9.262 0 01-2.75 3.266 9.332 9.332 0 01-4.331.779 15.967 15.967 0 00-3.588.385 16.184 16.184 0 00-3.357 1.475 9.333 9.333 0 01-4.087 1.469 9.337 9.337 0 01-4.088-1.469 16.16 16.16 0 00-3.357-1.47 15.96 15.96 0 00-3.588-.385 9.335 9.335 0 01-4.331-.779 9.269 9.269 0 01-2.75-3.265 16.6 16.6 0 00-2.216-3.017 16.6 16.6 0 00-3.017-2.216 9.267 9.267 0 01-3.265-2.75 9.328 9.328 0 01-.779-4.33 15.96 15.96 0 00-.384-3.588 16.243 16.243 0 00-1.475-3.357 9.329 9.329 0 01-1.471-4.088 9.336 9.336 0 011.47-4.087 16.222 16.222 0 001.475-3.358 15.9 15.9 0 00.384-3.588 9.347 9.347 0 01.78-4.331 9.277 9.277 0 013.265-2.75 16.515 16.515 0 003.017-2.221 16.555 16.555 0 002.216-3.016 9.249 9.249 0 012.75-3.265 9.34 9.34 0 014.33-.78 15.9 15.9 0 003.588-.384 16.222 16.222 0 003.358-1.475A9.336 9.336 0 0136.167 2a9.336 9.336 0 014.087 1.47 16.222 16.222 0 003.358 1.475 15.9 15.9 0 003.588.384 9.322 9.322 0 014.331.78 9.259 9.259 0 012.75 3.265 16.555 16.555 0 002.216 3.016 16.509 16.509 0 003.016 2.216 9.259 9.259 0 013.265 2.75 9.332 9.332 0 01.78 4.331 15.888 15.888 0 00.384 3.587 16.2 16.2 0 001.475 3.358 9.336 9.336 0 011.47 4.087 9.35 9.35 0 01-1.469 4.088 16.085 16.085 0 00-1.475 3.357 15.9 15.9 0 00-.386 3.588z"/><path data-name="Path 1059" d="M36.167 8.84a23.879 23.879 0 1016.885 6.994A23.724 23.724 0 0036.167 8.84zm15.471 39.351a21.881 21.881 0 116.408-15.471 21.9 21.9 0 01-6.408 15.471z"/></g></svg><svg viewBox="0 0 37 37" id="mobile-close" xmlns="http://www.w3.org/2000/svg"><g data-name="Group 866" transform="translate(.5 .5)" fill="none" stroke="#000" stroke-miterlimit="10"><circle data-name="Ellipse 95" cx="18" cy="18" r="18"/><g data-name="Group 865"><path data-name="Line 61" d="M11 11l14 14"/><path data-name="Line 62" d="M11 25l14-14"/></g></g></svg><svg viewBox="0 0 35.58 37.542" id="phone" xmlns="http://www.w3.org/2000/svg"><g data-name="Group 411"><g data-name="Layer 1-2"><path data-name="Path 680" d="M21.632 34.528l-3.196-.122C12.678 34.237 7.803 26.66 7.63 19.07s4.15-14.883 9.89-14.729l3.193.04a22.611 22.611 0 01-1.063 8.124l-5.173-.818a20.435 20.435 0 00.458 15.073l5.136-.433a23.88 23.88 0 011.561 8.201z" fill="none" stroke="#000" stroke-miterlimit="10" stroke-width="1.2"/></g></g></svg><svg viewBox="0 0 35.58 37.542" id="phone-red" xmlns="http://www.w3.org/2000/svg"><g data-name="Group 411"><g data-name="Layer 1-2"><path data-name="Path 680" d="M21.632 34.528l-3.196-.122C12.678 34.237 7.803 26.66 7.63 19.07s4.15-14.883 9.89-14.729l3.193.04a22.611 22.611 0 01-1.063 8.124l-5.173-.818a20.435 20.435 0 00.458 15.073l5.136-.433a23.88 23.88 0 011.561 8.201z" fill="none" stroke="#a70033" stroke-miterlimit="10" stroke-width="1.2"/></g></g></svg><svg viewBox="0 0 40 40" id="phone2" xmlns="http://www.w3.org/2000/svg"><g data-name="Group 732" fill="none" stroke="#707070" stroke-width="2"><path data-name="Path 1082" d="M20 1A19 19 0 111 20 19 19 0 0120 1z" stroke-miterlimit="10"/><path data-name="Path 1083" d="M30.323 26.808L28.55 28.55c-3.167 3.167-9.959 1.488-14.25-2.866s-6.017-11.083-2.866-14.25l1.726-1.793a19.274 19.274 0 013.927 5.367l-3.215 2.455a16.96 16.96 0 008.582 8.581l2.5-3.166a19.25 19.25 0 015.369 3.93z" stroke-linejoin="round"/></g></svg><svg viewBox="0 0 29 29" id="phoneW" xmlns="http://www.w3.org/2000/svg"><g data-name="Group 228" transform="translate(-758.128 -301.057)"><g data-name="Group 21"><g data-name="Layer 1-2"><g data-name="Group 20"><path data-name="Path 25" d="M781.893 321.829l-1.452 1.453a5.761 5.761 0 01-4.169 1.548 13.194 13.194 0 01-8.846-4.032 14.164 14.164 0 01-3.832-6.813c-.56-2.608-.1-4.824 1.322-6.236l1.424-1.471h.833a16.967 16.967 0 013.429 4.717l.137.315-2.787 2.172a14.33 14.33 0 006.723 6.771l2.172-2.8.315.138a16.986 16.986 0 014.717 3.428zm-15.114-14.68l-1.232 1.236c-1.191 1.191-1.572 3.114-1.078 5.412a13.26 13.26 0 003.573 6.371 12.477 12.477 0 008.218 3.771 4.9 4.9 0 003.574-1.286l1.232-1.24a17.269 17.269 0 00-3.886-2.857l-2.155 2.769-.31-.114a14.956 14.956 0 01-7.727-7.7l-.131-.315 2.775-2.157a17.352 17.352 0 00-2.853-3.89z" fill="#fff"/></g></g></g><circle data-name="Ellipse 48" cx="14" cy="14" r="14" transform="translate(758.628 301.557)" fill="none" stroke="#fff" stroke-miterlimit="10"/></g></svg><svg viewBox="0 0 37 37" id="phone_M" xmlns="http://www.w3.org/2000/svg"><g data-name="Group 864" transform="translate(-579.5 -496.5)"><circle data-name="Ellipse 94" cx="18" cy="18" r="18" transform="translate(580 497)" fill="none" stroke="#4b4b4b" stroke-miterlimit="10"/><g data-name="Group 863"><g data-name="Layer 1-2"><path data-name="Path 1225" d="M605.926 523.738l-1.98 1.12c-3.55 2.049-9.157-1.044-11.919-5.909s-2.693-11.223.842-13.276l1.95-1.173a17.629 17.629 0 012.2 5.675l-3.422 1.408a15.518 15.518 0 005.553 9.619l2.961-2.202a17.617 17.617 0 013.815 4.738z" fill="none" stroke="#4b4b4b" stroke-linejoin="bevel"/></g></g></g></svg><svg viewBox="0 0 67 67" id="play" xmlns="http://www.w3.org/2000/svg"><g data-name="Group 761" transform="translate(-237.071 -13.5)" stroke="#fff" stroke-width="3"><circle data-name="Ellipse 92" cx="32" cy="32" r="32" transform="translate(238.571 15)" stroke-miterlimit="10" opacity=".1"/><circle data-name="Ellipse 93" cx="32" cy="32" r="32" transform="translate(238.571 15)" fill="none" stroke-miterlimit="10"/><path data-name="Path 1093" d="M262.847 35.966v22.068L282.709 47z" fill="none" stroke-linejoin="bevel"/></g></svg><svg viewBox="0 0 37.303 27.2" id="price" xmlns="http://www.w3.org/2000/svg"><g data-name="Group 410" transform="translate(-790.028 -397.806)" fill="none" stroke="#000" stroke-miterlimit="10" stroke-width="1.2"><path data-name="Rectangle 36" d="M800.068 398.406h17.223v26h-17.223zM796.868 421.606h-6.24v-20.4h6.24M820.491 401.206h6.24v20.4h-6.24"/><circle data-name="Ellipse 51" cx="4" cy="4" r="4" transform="translate(804.68 407.406)"/><path data-name="Path 678" d="M820.891 409.406a2 2 0 010 4"/><path data-name="Path 679" d="M796.938 413.406a2.001 2.001 0 01-.14-4"/></g></svg><svg viewBox="0 0 37.303 27.2" id="price-red" xmlns="http://www.w3.org/2000/svg"><g data-name="Group 410" transform="translate(-790.028 -397.806)" fill="none" stroke="#a70033" stroke-miterlimit="10" stroke-width="1.2"><path data-name="Rectangle 36" d="M800.068 398.406h17.223v26h-17.223zM796.868 421.606h-6.24v-20.4h6.24M820.491 401.206h6.24v20.4h-6.24"/><circle data-name="Ellipse 51" cx="4" cy="4" r="4" transform="translate(804.68 407.406)"/><path data-name="Path 678" d="M820.891 409.406a2 2 0 010 4"/><path data-name="Path 679" d="M796.938 413.406a2.001 2.001 0 01-.14-4"/></g></svg><svg viewBox="0 0 34.326 25" id="priceW" xmlns="http://www.w3.org/2000/svg"><g data-name="Group 230" transform="translate(-790.128 -397.906)" fill="none" stroke="#fff" stroke-miterlimit="10"><path data-name="Rectangle 36" d="M800.068 398.406h14.446v24h-14.446zM796.868 419.606h-6.24v-18.4h6.24M817.714 401.206h6.24v18.4h-6.24"/><circle data-name="Ellipse 49" cx="4" cy="4" r="4" transform="translate(803.291 406.406)"/><path data-name="Path 291" d="M818.114 408.406a2 2 0 010 4"/><path data-name="Path 292" d="M796.938 412.406a2.001 2.001 0 01-.14-4"/></g></svg><svg viewBox="0 0 23.2 20.2" id="print" xmlns="http://www.w3.org/2000/svg"><g data-name="Group 625" fill="none" stroke="#1665b4" stroke-miterlimit="10" stroke-width="1.2"><path data-name="Rectangle 153" d="M4.6.6h14v4h-14z"/><path data-name="Rectangle 154" d="M4.6 10.6h14v9h-14z"/><path data-name="Path 1015" d="M4.6 14.6h-4v-10h22v10h-4"/></g></svg><svg viewBox="0 0 51.476 39.055" id="pvz" xmlns="http://www.w3.org/2000/svg"><g data-name="Group 661" transform="translate(-259.125 -1318.483)" fill="#931436"><g data-name="Group 660"><path data-name="Path 1031" d="M261.268 1318.848c0 .1-.1.1-.1.2v.1c0 .1-.1.2-.1.3l-.013 4.173a5.412 5.412 0 002.075 4.278.608.608 0 00-.1.4l-.076 27.129h-.995a.994.994 0 00-.005 1.988l1.988.005 5.366.016 12.222.035 24.146.069 1.988.005a.993.993 0 10.005-1.986h-.993l.078-27.227a.371.371 0 00-.1-.3 5.417 5.417 0 002.1-4.266l.013-4.173a.367.367 0 00-.1-.3v-.1c0-.1-.1-.1-.1-.2m-29.227 4.685a3.578 3.578 0 01-7.156-.02l.009-3.18 7.156.02zm1.995-3.173l7.156.02-.009 3.18a3.578 3.578 0 01-7.156-.022zm9.143.025l7.154.02-.009 3.18a3.577 3.577 0 01-7.154-.02zm-27.426-.078l7.154.02-.009 3.18a3.577 3.577 0 11-7.154-.022zm7.252 35l.06-20.668 10.236.029-.06 20.67zm34.383.1l-22.159-.063.062-21.663a.939.939 0 00-.991-1l-12.222-.035a.938.938 0 00-1 .991l-.062 21.661-3.38-.009.076-26.531a4.141 4.141 0 001.59.3 5.687 5.687 0 004.578-2.373 5.428 5.428 0 004.564 2.4 5.687 5.687 0 004.578-2.373 5.43 5.43 0 004.563 2.4 5.69 5.69 0 004.578-2.372 5.429 5.429 0 004.565 2.4 5.681 5.681 0 004.576-2.372 5.432 5.432 0 004.565 2.4 7.723 7.723 0 001.59-.194zm2.078-31.792a3.577 3.577 0 11-7.154-.022l.009-3.178 7.154.02z"/><path data-name="Path 1032" d="M302.16 1336.057l-15.5-.043a.938.938 0 00-1 .991l-.027 9.439a.938.938 0 00.991 1l15.5.045a.94.94 0 001-.991l.027-9.441a.941.941 0 00-.991-1zm-1.022 9.438l-13.514-.038.022-7.454 13.514.04z"/></g><rect data-name="Rectangle 192" width="51.476" height="2.065" rx=".569" transform="translate(259.125 1318.483)"/><rect data-name="Rectangle 193" width="51.476" height="2.065" rx=".569" transform="translate(259.125 1355.472)"/></g></svg><svg data-name="Group 634" viewBox="0 0 42.836 60.155" id="pvz-location" xmlns="http://www.w3.org/2000/svg"><path data-name="Path 925" d="M21.418 0a21.353 21.353 0 0121.414 21.414s.779 18.494-21.414 38.741C-.775 39.909.002 21.414.002 21.414A21.353 21.353 0 0121.418 0" fill="#9e1935"/><circle data-name="Ellipse 59" cx="9.734" cy="9.734" transform="translate(11.684 11.681)" fill="#fff" r="9.734"/></svg><svg viewBox="0 0 28 28" id="quantity" xmlns="http://www.w3.org/2000/svg"><g data-name="Group 653" transform="translate(-106 -1066)"><text data-name="20" transform="translate(120 1084.128)" fill="#707070" font-size="13" font-family="MuseoSansCyrl-700, Museo Sans Cyrl 700" font-weight="700"><tspan x="-7.5" y="0">20</tspan></text><circle data-name="Ellipse 71" cx="13" cy="13" r="13" transform="translate(107 1067)" fill="none" stroke="#707070" stroke-linecap="round" stroke-miterlimit="10" stroke-width="2"/></g></svg><svg viewBox="0 0 58 58" id="red_no" xmlns="http://www.w3.org/2000/svg"><g data-name="Group 948" stroke="#d56a76" stroke-miterlimit="10" stroke-width="3"><g data-name="Rectangle 251" fill="#f7f7f7"><rect width="58" height="58" rx="16" stroke="none"/><rect x="1.5" y="1.5" width="55" height="55" rx="14.5" fill="none"/></g><g data-name="Group 947" fill="none"><path data-name="Line 87" d="M19.575 19.575l18.85 18.85"/><path data-name="Line 88" d="M19.575 38.425l18.85-18.85"/></g></g></svg><svg viewBox="0 0 28 28" id="scheldue" xmlns="http://www.w3.org/2000/svg"><g data-name="Group 654" transform="translate(-106 -1116)" fill="none" stroke="#707070" stroke-linecap="round" stroke-miterlimit="10" stroke-width="2"><circle data-name="Ellipse 72" cx="13" cy="13" r="13" transform="translate(107 1117)"/><path data-name="Line 44" d="M120 1130h5"/><path data-name="Line 45" d="M120 1130v-9"/><path data-name="Line 46" d="M120 1139v-1"/><path data-name="Line 47" d="M112 1130h-1"/><path data-name="Line 48" d="M129 1130h-1"/></g></svg><svg viewBox="0 0 18.872 41.286" id="slick-arrow" xmlns="http://www.w3.org/2000/svg"><path data-name="Path 1005" d="M18.106 40.643l-16.8-20 16.8-20" fill="none" stroke="#fff" stroke-miterlimit="10" stroke-width="2"/></svg><svg viewBox="0 0 67 67" id="star" xmlns="http://www.w3.org/2000/svg"><g data-name="Group 723" transform="translate(-188.5 -196.5)" fill="#f7f7f7" stroke="#9e1935" stroke-width="3"><circle data-name="Ellipse 80" cx="32" cy="32" r="32" transform="translate(190 198)" stroke-miterlimit="10"/><path data-name="Path 1066" d="M222 237.006l-10.507 6.6 3.027-12.031-9.52-7.958 12.377-.839L222 211.266l4.623 11.512 12.377.839-9.52 7.954 3.027 12.031z" stroke-linejoin="bevel"/></g></svg><svg viewBox="0 0 76.619 74.297" id="time" xmlns="http://www.w3.org/2000/svg"><path fill="#164FAD" data-name="Path 1056" d="M34.827 67.332a1.161 1.161 0 010 2.322 34.827 34.827 0 1134.826-34.827 1.161 1.161 0 01-2.322 0 32.5 32.5 0 10-32.5 32.5zM62.688 74.3a13.931 13.931 0 1113.931-13.934A13.931 13.931 0 0162.688 74.3zm0-2.322a11.609 11.609 0 10-11.609-11.612 11.609 11.609 0 0011.609 11.609zm4.984-15.912a1.161 1.161 0 011.641 1.634l-6.965 6.97a1.16 1.16 0 01-1.641 0l-3.483-3.483a1.161 1.161 0 011.641-1.641l2.662 2.662zM47.6 34.827a1.161 1.161 0 010 2.322H33.666a1.161 1.161 0 01-1.166-1.161v-20.9a1.161 1.161 0 012.322 0v19.739z"/></svg></svg>