<?xml version="1.0" encoding="utf-8"?><svg viewBox="0 0 429.916 133.19" xmlns="http://www.w3.org/2000/svg" xmlns:xlink="http://www.w3.org/1999/xlink"><style>:root>svg{display:none}:root>svg:target{display:block}</style><svg viewBox="0 0 20.552 45.287" id="arrow-black" xmlns="http://www.w3.org/2000/svg"><path data-name="Path 36" d="M19.786 44.643l-18.48-22 18.48-22" fill="none" stroke="#000" stroke-miterlimit="10" stroke-width="2"/></svg><svg viewBox="0 0 94 94" id="arrow-in-circle" xmlns="http://www.w3.org/2000/svg"><g data-name="Group 745" transform="translate(-100 -708)"><circle data-name="Ellipse 31" cx="47" cy="47" r="47" transform="rotate(180 97 401)" fill="#f5f5f5"/><path data-name="Path 186" d="M152.5 777.5l-18.48-22 18.48-22" fill="none" stroke="#000" stroke-miterlimit="10" stroke-width="2"/></g></svg><svg viewBox="0 0 73.15 74.439" id="box" xmlns="http://www.w3.org/2000/svg"><g data-name="Group 689"><g data-name="Group 688" fill="#164FAD"><path data-name="Path 1054" d="M22.315 24.665a1.733 1.733 0 00.465 1.911l13.122 11.733a1.731 1.731 0 002.359-.045l12.158-11.73a1.734 1.734 0 00-1.2-2.981h-6.166V1.734A1.733 1.733 0 0041.319 0h-9.423a1.733 1.733 0 00-1.734 1.734v21.815h-6.226a1.735 1.735 0 00-1.621 1.116zm9.581 2.352a1.733 1.733 0 001.734-1.734V3.468h5.956v21.815a1.733 1.733 0 001.734 1.734h3.6l-7.91 7.633-8.536-7.633h3.42z"/><path data-name="Path 1055" d="M72.279 41.561l-9.621-5.522 9.621-5.524a1.733 1.733 0 00-.087-3.054l-22.6-11.3a1.733 1.733 0 10-1.551 3.1l19.7 9.853-8.632 4.956-5.462-2.732a1.733 1.733 0 10-1.551 3.1l3.191 1.6-18.714 9.359-18.718-9.358 3.6-1.8a1.734 1.734 0 10-1.55-3.1l-5.868 2.934-8.635-4.957 19.7-9.852a1.733 1.733 0 10-1.551-3.1L.959 27.461a1.733 1.733 0 00-.087 3.054l9.626 5.524-9.626 5.522a1.733 1.733 0 00.087 3.054l11.287 5.646v11.147a1.733 1.733 0 00.958 1.55l22.6 11.3a1.664 1.664 0 001.53-.007c.007 0 .015.012.021.008l22.6-11.3a1.732 1.732 0 00.958-1.55V50.261l11.286-5.643a1.734 1.734 0 00.08-3.057zm-58.242-3.555l5.678 2.839 13.194 6.6-8.634 4.954-18.873-9.438zm1.676 13.985l7.842 3.922a1.74 1.74 0 001.638-.046l9.649-5.536v19.57l-19.129-9.564zm41.726 8.346L38.31 69.901V50.329l9.646 5.538a1.744 1.744 0 001.64.046l7.843-3.922zm-8.563-7.941l-8.633-4.955 18.876-9.437 8.629 4.957z"/></g></g></svg><svg viewBox="0 0 42.053 39.038" id="boxes" xmlns="http://www.w3.org/2000/svg"><g data-name="Group 682"><g data-name="Group 678"><path data-name="Path 1049" d="M35.246 27.787H6.809a1.576 1.576 0 01-1.58-1.58V14.962a1.578 1.578 0 011.58-1.58h28.438a1.58 1.58 0 011.58 1.58v11.245a1.578 1.578 0 01-1.581 1.58zm-26.858-3.16h25.279v-8.086H8.389z" fill="#a70033"/></g><g data-name="Group 679"><path data-name="Path 1050" d="M35.622 16.537H7.185a1.581 1.581 0 01-1.58-1.58V8.265a1.579 1.579 0 011.58-1.58h28.438a1.577 1.577 0 011.58 1.58v6.692a1.579 1.579 0 01-1.581 1.58zm-26.858-3.16h25.278V9.844H8.765z" fill="#a70033"/></g><g data-name="Group 680"><path data-name="Path 1051" d="M25.6 9.849H7.185a1.58 1.58 0 01-1.58-1.58V1.58A1.578 1.578 0 017.185 0H25.6a1.576 1.576 0 011.58 1.58v6.689a1.578 1.578 0 01-1.58 1.58zM8.765 6.689H24.02V3.16H8.765z" fill="#a70033"/></g><g data-name="Group 681"><path data-name="Path 1052" d="M40.473 39.039H1.58A1.579 1.579 0 010 37.459V26.207a1.578 1.578 0 011.58-1.58h38.893a1.578 1.578 0 011.58 1.58v11.252a1.579 1.579 0 01-1.58 1.58zM3.16 35.879h35.733v-8.093H3.16z" fill="#a70033"/></g></g></svg><svg viewBox="0 0 37 37" id="burger" xmlns="http://www.w3.org/2000/svg"><g data-name="Group 862" transform="translate(-521.5 -496.5)" fill="none" stroke="#4b4b4b" stroke-miterlimit="10"><circle data-name="Ellipse 93" cx="18" cy="18" r="18" transform="translate(522 497)"/><path data-name="Line 58" d="M530.4 515h19.2"/><path data-name="Line 59" d="M530.4 521h19.2"/><path data-name="Line 60" d="M530.4 509h19.2"/></g></svg><svg viewBox="0 0 67 67" id="check" xmlns="http://www.w3.org/2000/svg"><g data-name="Group 724" transform="translate(-188.5 -22.5)" stroke="#319b3a" stroke-miterlimit="10" stroke-width="3"><circle data-name="Ellipse 81" cx="32" cy="32" r="32" transform="translate(190 24)" fill="#f7f7f7"/><path data-name="Path 1067" d="M208 52l12 14 16-21" fill="none"/></g></svg><svg viewBox="0 0 31.414 31.414" id="close" xmlns="http://www.w3.org/2000/svg"><g data-name="Group 648"><g data-name="Group 647"><g data-name="Group 76"><g data-name="Group 75" fill="none" stroke="#8b8b8b" stroke-miterlimit="10" stroke-width="2"><path data-name="Line 13" d="M.707.707l30 30"/><path data-name="Line 14" d="M30.707.707l-30 30"/></g></g></g></g></svg><svg viewBox="0 0 28 28" id="condition" xmlns="http://www.w3.org/2000/svg"><g data-name="Group 655" transform="translate(-106 -1020)" fill="none" stroke="#707070" stroke-linecap="round" stroke-width="2"><circle data-name="Ellipse 73" cx="13" cy="13" r="13" transform="translate(107 1021)" stroke-miterlimit="10"/><path data-name="Path 1030" d="M114 1033l5 5 7-9" stroke-linejoin="round"/></g></svg><svg viewBox="0 0 73.678 66.056" id="cup" xmlns="http://www.w3.org/2000/svg"><path fill="#164FAD" data-name="Path 1053" d="M73.678 6.953a2.3 2.3 0 00-2.3-2.153H57.239V2.3a2.3 2.3 0 00-2.3-2.3H18.743a2.3 2.3 0 00-2.3 2.3v2.5H2.301a2.3 2.3 0 00-2.3 2.153V7.99a28.031 28.031 0 0014.332 24.658l7.31 4.121a20.072 20.072 0 008.749 5.675v7.759h-7.045a2.3 2.3 0 00-2.3 2.3v11.25a2.3 2.3 0 002.3 2.3h26.984a2.3 2.3 0 002.3-2.3V52.506a2.3 2.3 0 00-2.3-2.3h-7.045v-7.761a20.072 20.072 0 008.749-5.675l7.31-4.121A28.031 28.031 0 0073.678 7.99zm-52.6-2.3h31.556v18.67a15.39 15.39 0 01-3.523 9.82 2.3 2.3 0 00-.817.909 15.414 15.414 0 01-11.132 4.731h-.645a15.414 15.414 0 01-11.132-4.754 2.3 2.3 0 00-.817-.909 15.39 15.39 0 01-3.523-9.82zm-4.477 23.989a23.437 23.437 0 01-12-19.236H16.44v13.917a20.251 20.251 0 00.829 5.756zm31.428 32.809H25.65v-6.643h22.379zm-9.348-11.247h-3.68V43.39c.5 0 1 .081 1.52.081h.645a9.464 9.464 0 001.52-.081zm18.42-21.562l-.668.38a20.251 20.251 0 00.829-5.756V9.405h11.811a23.438 23.438 0 01-12 19.236z"/></svg><svg viewBox="0 0 25.01 25.6" id="download" xmlns="http://www.w3.org/2000/svg"><g data-name="Group 630" fill="none" stroke="#fff" stroke-miterlimit="10" stroke-width="1.2"><path data-name="Path 1018" d="M18.332 13.232l-5.828 5.828-5.828-5.828"/><path data-name="Line 40" d="M12.505 19.048V0"/><path data-name="Path 1019" d="M6.552 4.762H.6V25h23.81V4.762h-5.952"/></g></svg><svg viewBox="0 0 30.533 23.2" id="envelope" xmlns="http://www.w3.org/2000/svg"><g data-name="Group 409" fill="none" stroke="#000" stroke-miterlimit="10" stroke-width="1.2"><path data-name="Rectangle 36" d="M.6.6h29.333v22H.6z"/><path data-name="Path 677" d="M.6.6l14.667 14.431L29.934.6"/></g></svg><svg viewBox="0 0 30.533 23.2" id="envelope-red" xmlns="http://www.w3.org/2000/svg"><g data-name="Group 409" fill="none" stroke="#a70033" stroke-miterlimit="10" stroke-width="1.2"><path data-name="Rectangle 36" d="M.6.6h29.333v22H.6z"/><path data-name="Path 677" d="M.6.6l14.667 14.431L29.934.6"/></g></svg><svg viewBox="0 0 27.667 21" id="envelopeW" xmlns="http://www.w3.org/2000/svg"><g data-name="Group 231" fill="none" stroke="#fff" stroke-miterlimit="10"><path data-name="Rectangle 36" d="M.5.5h26.667v20H.5z"/><path data-name="Path 372" d="M.5.5l13.333 12.026L27.167.5"/></g></svg><svg viewBox="0 0 17.242 17.244" id="expand" xmlns="http://www.w3.org/2000/svg"><g data-name="Group 624" fill="none" stroke="#1665b4" stroke-miterlimit="10" stroke-width="1.2"><path data-name="Path 1006" d="M11.089.6h5.553v5.554"/><path data-name="Line 18" d="M16.642.6l-6.17 6.171"/><path data-name="Path 1007" d="M.6 6.154V.6h5.553"/><path data-name="Line 19" d="M.6.6l6.17 6.171"/><path data-name="Path 1008" d="M6.153 16.643H.6v-5.554"/><path data-name="Line 20" d="M.6 16.644l6.17-6.171"/><path data-name="Path 1009" d="M16.642 11.09v5.554h-5.553"/><path data-name="Line 21" d="M16.642 16.644l-6.17-6.171"/></g></svg><svg viewBox="0 0 15 15" id="expand_M" xmlns="http://www.w3.org/2000/svg"><g data-name="Group 879" fill="none" stroke="#767676" stroke-miterlimit="10"><path data-name="Path 1231" d="M.5 5.346V.5h4.846"/><path data-name="Line 74" d="M2.5 2.5l3 3"/><g data-name="Group 876"><path data-name="Path 1232" d="M14.5 9.654V14.5H9.654"/><path data-name="Line 75" d="M12.5 12.5l-3-3"/></g><path data-name="Path 1233" d="M9.654.5H14.5v4.846"/><path data-name="Line 76" d="M12.5 2.5l-3 3"/><g data-name="Group 877"><path data-name="Path 1234" d="M5.346 14.5H.5V9.654"/><path data-name="Line 77" d="M2.5 12.5l3-3"/></g></g></svg><svg viewBox="0 0 58.912 47.534" id="fitting" xmlns="http://www.w3.org/2000/svg"><g data-name="Group 692"><path data-name="Path 1060" d="M13.806 42.008h31.3V18.1a.925.925 0 01.924-.924.984.984 0 01.258.039l5.221 1.088 2.239-10.421-14.254-5.643a10 10 0 01-2.888 5.784 10.119 10.119 0 01-14.3 0 10.046 10.046 0 01-2.888-5.784L5.165 7.882l2.246 10.426L12.7 17.2a.911.911 0 011.08.712.772.772 0 01.023.188zm39.5-23.325L54.8 19l2.137-9.854-1.448-.571zM3.435 8.571l-1.448.571L4.116 19l1.495-.313zM20.451.023a50.953 50.953 0 009.009.783 53.269 53.269 0 009.009-.783.893.893 0 01.531.04l19.334 7.655a.917.917 0 01.556 1.049L56.4 20.28a.924.924 0 01-1.088.7l-8.367-1.753V46.61a.919.919 0 01-.916.924H12.89a.925.925 0 01-.924-.924V19.231l-8.359 1.753a.932.932 0 01-1.1-.7L.03 8.8a.917.917 0 01.548-1.08L19.872.078A1.008 1.008 0 0120.248 0a.853.853 0 01.203.023zm17.22 1.988a55.7 55.7 0 01-8.211.634 53.484 53.484 0 01-8.211-.626 8.156 8.156 0 002.356 4.7 8.284 8.284 0 005.855 2.415 8.312 8.312 0 005.855-2.411 8.224 8.224 0 002.356-4.711zm7.436 41.836h-31.3v1.839h31.3z" fill="#a70033"/></g></svg><svg viewBox="0 0 51.431 63.789" id="footer-blank_M" xmlns="http://www.w3.org/2000/svg"><g data-name="Group 629" fill="none" stroke="#a39c9c" stroke-miterlimit="10" stroke-width="2"><path data-name="Path 1016" d="M50.431 13.358v49.431H1V1h37.073z"/><path data-name="Line 36" d="M11.298 25.716h28.835"/><path data-name="Line 37" d="M11.298 13.358h14.417"/><path data-name="Line 38" d="M11.298 38.074h28.835"/><path data-name="Line 39" d="M11.298 50.431h28.835"/><path data-name="Path 1017" d="M50.432 13.358H38.074V1"/></g></svg><svg viewBox="0 0 200 30.807" id="footer-logo" xmlns="http://www.w3.org/2000/svg"><g data-name="Group 226"><g data-name="Group 215"><g data-name="Group 210"><path data-name="Path 349" d="M8.792 5.739h3.274c1.781 0 3.026.8 3.026 2.328a2.174 2.174 0 01-1.034 1.893v.025a2 2 0 011.4 2c0 1.943-1.619 2.652-3.387 2.652H8.797zm3.3 3.449a.754.754 0 00.785-.822.725.725 0 00-.823-.76h-1.08V9.19zm.187 3.586a.884.884 0 00.946-.934.856.856 0 00-.934-.909h-1.32v1.843z" fill="#b5b5b5"/></g><g data-name="Group 211"><path data-name="Path 350" d="M20.942 5.59a4.46 4.46 0 014.657 4.545 4.657 4.657 0 11-9.314 0 4.46 4.46 0 014.657-4.545zm0 7.209a2.465 2.465 0 002.4-2.664 2.407 2.407 0 10-4.806 0 2.465 2.465 0 002.406 2.663z" fill="#b5b5b5"/></g><g data-name="Group 212"><path data-name="Path 351" d="M27.357 11.865a3.588 3.588 0 002.142.921c.609 0 .921-.274.921-.623 0-1.257-3.935-1.058-3.935-3.847 0-1.643 1.357-2.727 3.225-2.727a4.206 4.206 0 012.789 1.009l-.922 1.78a3.213 3.213 0 00-1.967-.784c-.659 0-.946.274-.946.635 0 1.27 3.935.971 3.935 3.785 0 1.494-1.108 2.777-3.163 2.777a4.613 4.613 0 01-3.225-1.27z" fill="#b5b5b5"/></g><g data-name="Group 213"><path data-name="Path 352" d="M38.055 5.59a4.788 4.788 0 013.337 1.258l-1.008 1.644a3.637 3.637 0 00-2.229-.91 2.365 2.365 0 00-2.515 2.541 2.487 2.487 0 002.515 2.676 3.514 3.514 0 002.366-1.095l1.12 1.594a4.854 4.854 0 01-3.586 1.494 4.425 4.425 0 01-4.669-4.62 4.485 4.485 0 014.669-4.582z" fill="#b5b5b5"/></g><g data-name="Group 214"><path data-name="Path 353" d="M46.653 5.59a4.459 4.459 0 014.656 4.545 4.657 4.657 0 11-9.313 0 4.459 4.459 0 014.657-4.545zm0 7.209a2.465 2.465 0 002.4-2.664 2.407 2.407 0 10-4.806 0 2.464 2.464 0 002.406 2.663z" fill="#b5b5b5"/></g></g><g data-name="Group 224"><g data-name="Group 216"><path data-name="Path 354" d="M67.815 5.89h1.233v8.791h-1.233z" fill="#b5b5b5"/></g><g data-name="Group 217"><path data-name="Path 355" d="M71.244 5.89h1.22l3.922 5.7c.312.485.723 1.282.723 1.282h.024s-.074-.784-.074-1.282v-5.7h1.22v8.791h-1.205l-3.922-5.7c-.311-.485-.722-1.282-.722-1.282h-.025s.075.784.075 1.282v5.7h-1.233z" fill="#b5b5b5"/></g><g data-name="Group 218"><path data-name="Path 356" d="M82.512 6.959h-3.025V5.89h7.271v1.071h-3.025v7.72h-1.221z" fill="#b5b5b5"/></g><g data-name="Group 219"><path data-name="Path 357" d="M87.965 5.89h5.118v1.071h-3.885v2.752h3.15v1.07h-3.15v2.827h4.1v1.071h-5.329z" fill="#b5b5b5"/></g><g data-name="Group 220"><path data-name="Path 358" d="M94.693 5.89h2.789a3.816 3.816 0 011.632.237 2.378 2.378 0 011.394 2.3 2.463 2.463 0 01-1.569 2.416v.025a2.916 2.916 0 01.249.4l1.868 3.412h-1.394l-1.856-3.5h-1.88v3.5h-1.233zm3 4.221a1.5 1.5 0 001.569-1.618 1.4 1.4 0 00-.822-1.383 2.523 2.523 0 00-1.058-.149h-1.457v3.15z" fill="#b5b5b5"/></g><g data-name="Group 221"><path data-name="Path 359" d="M102.416 5.89h1.221l3.922 5.7c.311.485.722 1.282.722 1.282h.025s-.075-.784-.075-1.282v-5.7h1.22v8.791h-1.208l-3.921-5.7a19.698 19.698 0 01-.723-1.282h-.025s.075.784.075 1.282v5.7h-1.233z" fill="#b5b5b5"/></g><g data-name="Group 222"><path data-name="Path 360" d="M111.669 5.89h5.117v1.071h-3.884v2.752h3.149v1.07h-3.149v2.827h4.1v1.071h-5.329z" fill="#b5b5b5"/></g><g data-name="Group 223"><path data-name="Path 361" d="M120.807 6.959h-3.025V5.89h7.271v1.071h-3.026v7.72h-1.22z" fill="#b5b5b5"/></g></g><g data-name="Group 225" fill="#b5b5b5"><path data-name="Path 362" d="M133.536 10.047v-.025a2.057 2.057 0 001.1-1.893 2.256 2.256 0 00-2.552-2.241h-3.076v8.791h3.15c1.544 0 2.839-.847 2.839-2.5a2.113 2.113 0 00-1.461-2.132zm-3.3-3.088h1.83a1.207 1.207 0 011.307 1.3 1.244 1.244 0 01-1.294 1.332h-1.843zm1.98 6.649h-1.98v-3h1.98a1.415 1.415 0 011.506 1.494 1.4 1.4 0 01-1.505 1.506z"/><path data-name="Path 363" d="M140.621 5.739a4.4 4.4 0 00-4.52 4.482 4.514 4.514 0 109.027 0 4.386 4.386 0 00-4.507-4.482zm0 7.956a3.285 3.285 0 01-3.25-3.474 3.246 3.246 0 116.487 0 3.283 3.283 0 01-3.237 3.474z"/><path data-name="Path 364" d="M152.399 11.541a2.224 2.224 0 01-4.445.012V5.89h-1.233v5.678a3.461 3.461 0 006.911 0V5.89h-1.233z"/><path data-name="Path 365" d="M157.816 14.679h1.22v-7.72h3.025V5.89h-7.271v1.071h3.025z"/><path data-name="Rectangle 105" d="M163.268 5.888h1.233v8.79h-1.233z"/><path data-name="Path 366" d="M175.19 10.234a4.507 4.507 0 00-9.014 0 4.454 4.454 0 004.495 4.594 4.3 4.3 0 002.789-.959v-.005c1.067 1.077 1.553 2.095 1.358 2.882-.226.91-1.333 1.4-2.222 1.656a5.358 5.358 0 00-3.208 2.189.528.528 0 00.922.516 4.447 4.447 0 012.574-1.689c2.1-.6 2.767-1.645 2.959-2.418.293-1.18-.284-2.524-1.654-3.9a4.565 4.565 0 001.001-2.866zm-4.519 3.461a3.3 3.3 0 01-3.225-3.461 3.24 3.24 0 116.474 0 3.568 3.568 0 01-.647 2.066l-1.009-1.033-.709.772 1.033 1.009a3.048 3.048 0 01-1.914.647z"/><path data-name="Path 367" d="M182.501 11.541a2.223 2.223 0 01-4.444.012V5.89h-1.233v5.678a3.461 3.461 0 006.91 0V5.89h-1.233z"/><path data-name="Path 368" d="M187.112 13.608v-2.826h3.15V9.711h-3.15V6.959h3.885V5.89h-5.117v8.79h5.329v-1.071z"/><path data-name="Path 369" d="M172.35 20.479a.528.528 0 00-.614.425l-.605 3.334-10.811 5.163-2.986-6.172 10.811-5.162 1.316.7a.529.529 0 00.5-.932l-1.787-.954-12.249 5.849 3.905 8.074 12.244-5.846.7-3.866a.527.527 0 00-.424-.613z"/><path data-name="Path 370" d="M168.866 20.375a1.126 1.126 0 01.125-.05.528.528 0 10-.326-1 2.1 2.1 0 00-.257.1 2.018 2.018 0 102.474 3.053.528.528 0 00-.835-.647.942.942 0 01-.341.276.962.962 0 01-.84-1.731z"/></g><path data-name="Path 371" d="M0 0v20.38h153.674v-1.056H60.04V1.056h138.9v18.268h-22.089v1.056h23.145V0zm58.985 19.324H1.056V1.056h57.929z" fill="#b5b5b5"/></g></svg><svg id="footer_blank" data-name="Слой 1" viewBox="0 0 107.36 133.19" xmlns="http://www.w3.org/2000/svg"><defs><clipPath id="asclip-path" transform="translate(-24.9 -19.81)"><path class="ascls-1" d="M-695.1 0h1920v140h-1920z"/></clipPath><style>.ascls-1,.ascls-3{fill:none}.ascls-2{clip-path:url(#asclip-path)}.ascls-3{stroke:#a39c9c;stroke-miterlimit:10;stroke-width:4px}</style></defs><g class="ascls-2"><g id="asMask_Group_1" data-name="Mask Group 1"><g id="asGroup_629" data-name="Group 629"><path id="asPath_1016" data-name="Path 1016" class="ascls-3" d="M130.25 47.65V151H26.9V21.81h77.52z" transform="translate(-24.9 -19.81)"/><path id="asLine_36" data-name="Line 36" class="ascls-3" d="M23.53 53.68h60.29"/><path id="asLine_37" data-name="Line 37" class="ascls-3" d="M23.53 27.84h30.15"/><path id="asLine_38" data-name="Line 38" class="ascls-3" d="M23.53 79.52h60.29"/><path id="asLine_39" data-name="Line 39" class="ascls-3" d="M23.53 105.35h60.29"/><path id="asPath_1017" data-name="Path 1017" class="ascls-3" d="M130.25 47.65h-25.84V21.81" transform="translate(-24.9 -19.81)"/></g></g></g></svg><svg viewBox="0 0 58 58" id="green_check" xmlns="http://www.w3.org/2000/svg"><g data-name="Group 946" transform="translate(-871 -551)"><rect data-name="Rectangle 250" width="58" height="58" rx="16" transform="translate(871 551)" fill="#39b54a"/><path data-name="Path 1261" d="M887 576.885l11.308 11.308L913 569.808" fill="none" stroke="#fff" stroke-miterlimit="10" stroke-width="3"/></g></svg><svg viewBox="0 0 25.789 23.857" id="like" xmlns="http://www.w3.org/2000/svg"><g data-name="Group 640"><g data-name="Group 639" fill="#90cbe5"><path data-name="Path 1024" d="M25.355 14.356a2.447 2.447 0 00-.516-1.52 2.458 2.458 0 00.95-1.982 2.491 2.491 0 00-2.5-2.5c-.977 0-2.389 0-3.61.027-.543.027-1.656.027-3.2-.027.652-1.982 1.466-4.506 1.629-5.375a2.441 2.441 0 00-1.846-2.85 2.578 2.578 0 00-3.2 1.3c-.76 1.873-3.149 6.271-5.728 7.872a.72.72 0 00-.163.136 2.034 2.034 0 00-1.3-.489H2.036A2.033 2.033 0 000 10.989v9.963a2.033 2.033 0 002.036 2.036h3.773a2.116 2.116 0 001.574-.733 9.5 9.5 0 005.375 1.6h9.23a2.491 2.491 0 002.5-2.5 2.447 2.447 0 00-.516-1.52 2.524 2.524 0 00.434-3.5 2.539 2.539 0 00.949-1.979zM6.379 20.983a.545.545 0 01-.543.543h-3.8a.545.545 0 01-.543-.543v-9.99a.545.545 0 01.543-.543h3.773a.545.545 0 01.543.543v9.99zm16.912-9.121h-.081a.68.68 0 00-.679.624v.109a.716.716 0 00.516.76 1.04 1.04 0 01.787.869 1.013 1.013 0 01-1 1.113h-.081a.68.68 0 00-.679.624v.109a.716.716 0 00.516.76 1.04 1.04 0 01.787.869 1.013 1.013 0 01-1 1.113h-.081a.68.68 0 00-.679.624v.109a.716.716 0 00.516.76 1.04 1.04 0 01.787.869 1.013 1.013 0 01-1 1.113h-9.23a7.135 7.135 0 01-4.886-1.656l.027-9.773a.433.433 0 01.217-.38c3.149-1.927 5.7-6.977 6.325-8.578.19-.461.842-.57 1.384-.407a.982.982 0 01.814 1.14c-.109.6-.679 2.5-1.574 5.158a1.7 1.7 0 00-.081.516 1.534 1.534 0 001.52 1.52h3.23c1.167-.027 2.579-.027 3.529-.027a1.046 1.046 0 011.032.814.949.949 0 01-.935 1.244z"/><circle data-name="Ellipse 65" cx=".768" cy=".768" r=".768" transform="translate(4.222 18.443)"/></g></g></svg><svg viewBox="0 0 27.199 32.833" id="location" xmlns="http://www.w3.org/2000/svg"><g data-name="Group 413" transform="translate(-766.028 -191.921)" fill="none" stroke="#000" stroke-miterlimit="10" stroke-width="1.2"><circle data-name="Ellipse 53" cx="6" cy="6" r="6" transform="translate(773.628 199.522)"/><path data-name="Path 682" d="M788.82 214.714a13 13 0 10-18.384 0l9.192 9.192z"/></g></svg><svg viewBox="0 0 27.199 32.833" id="location-red" xmlns="http://www.w3.org/2000/svg"><g data-name="Group 413" transform="translate(-766.028 -191.921)" fill="none" stroke="#a70033" stroke-miterlimit="10" stroke-width="1.2"><circle data-name="Ellipse 53" cx="6" cy="6" r="6" transform="translate(773.628 199.522)"/><path data-name="Path 682" d="M788.82 214.714a13 13 0 10-18.384 0l9.192 9.192z"/></g></svg><svg viewBox="0 0 40 40" id="location2" xmlns="http://www.w3.org/2000/svg"><g data-name="Group 734" fill="none" stroke="#707070" stroke-miterlimit="10" stroke-width="2"><path data-name="Path 1084" d="M19.999 1a19 19 0 11-19 19 19 19 0 0119-19z"/><g data-name="Group 733" transform="translate(-511.101 -42.959)"><path data-name="Path 1085" d="M531.1 51.724a7.976 7.976 0 018 8s.29 6.908-8 14.471c-8.29-7.563-8-14.471-8-14.471a7.976 7.976 0 018-8"/><circle data-name="Ellipse 83" cx="3.636" cy="3.636" r="3.636" transform="translate(527.465 56.087)"/></g></g></svg><svg viewBox="0 0 25 30.177" id="locationW" xmlns="http://www.w3.org/2000/svg"><g data-name="Group 227" transform="translate(-472.644 -75.259)" fill="none" stroke="#fff" stroke-miterlimit="10"><circle data-name="Ellipse 47" cx="5" cy="5" r="5" transform="translate(480.144 82.933)"/><path data-name="Path 289" d="M493.63 96.245a12 12 0 10-16.97 0l8.485 8.485z"/></g></svg><svg viewBox="0 0 429.916 106.753" id="logo" xmlns="http://www.w3.org/2000/svg"><g data-name="Group 582"><path data-name="Path 950" d="M5.519 93.329c8.577-10.889 9.248-26.849 9.248-39.6v-9.621h27V93.33h5.817v13.424H44.45V96.312H3.505v10.441H.299V93.329zm33.039 0V47.091H17.899v6.562c0 13.723-1.193 29.235-8.725 39.676z"/><path data-name="Path 951" d="M80.205 43.212a26.356 26.356 0 0126.4 26.625c0 15.362-11.857 27.37-26.4 27.37s-26.4-12.008-26.4-27.37a26.356 26.356 0 0126.4-26.625zm0 50.937c12.753 0 23.045-10.59 23.045-24.312 0-13.35-10.292-23.567-23.045-23.567S57.161 56.487 57.161 69.837c0 13.722 10.291 24.312 23.044 24.312z"/><path data-name="Path 952" d="M140.424 43.212c6.563 0 13.723 1.939 18.645 6.563l-1.939 2.386c-4.251-3.8-10.739-5.892-16.631-5.892-13.275 0-22.6 10.068-22.6 23.567 0 13.573 9.247 24.312 22.821 24.312a25.439 25.439 0 0017.676-7.085l2.013 2.238a27.346 27.346 0 01-19.688 7.905c-15.661 0-26.177-12.231-26.177-27.37s10.741-26.624 25.88-26.624z"/><path data-name="Path 953" d="M187.709 50.075v46.237h-3.207V50.075zm-22.672-2.984v-2.984h42.137v2.984z"/><path data-name="Path 954" d="M226.386 44.107h3.432l19.539 52.205h-3.431l-6.786-18.048h-22.15l-6.712 18.048h-3.431zm11.635 31.174l-7.905-21.18c-.82-2.237-1.939-6.264-1.939-6.264h-.149s-1.119 4.027-1.939 6.264l-7.979 21.18z"/><path data-name="Path 955" d="M260.761 44.107h17.526c7.607 0 13.2 5.072 13.2 13.052 0 5.667-2.759 9.471-6.787 11.41v.149c5.146 1.416 8.875 6.488 8.875 13.2 0 8.726-6.19 14.394-14.543 14.394h-18.271zm17.452 23.269c5.816 0 9.919-4.027 9.919-10.217 0-6.116-3.878-10.068-9.994-10.068h-14.17v20.285zm.522 25.954c7.01 0 11.484-4.326 11.484-11.411s-4.847-11.56-11.56-11.56h-14.691V93.33z"/><path data-name="Path 956" d="M307.515 44.107h3.207v23.269h9.7l14.915-23.269h3.878l-16.034 24.612v.148l17.079 27.445h-3.879l-15.96-25.954h-9.7v25.954h-3.207z"/><path data-name="Path 957" d="M365.557 44.107h3.432l19.54 52.205h-3.432l-6.79-18.048h-22.15l-6.711 18.048h-3.431zm11.635 31.174l-7.905-21.18c-.82-2.237-1.939-6.264-1.939-6.264h-.149s-1.118 4.027-1.938 6.264l-7.979 21.18z"/><g data-name="Group 581"><g data-name="Group 570"><g data-name="Group 565"><path data-name="Path 958" d="M8.884 5.8h3.31c1.8 0 3.058.806 3.058 2.354a2.2 2.2 0 01-1.044 1.913v.025a2.017 2.017 0 011.41 2.026c0 1.964-1.636 2.68-3.423 2.68H8.884zm3.335 3.486a.761.761 0 00.793-.83.732.732 0 00-.83-.768h-1.1v1.6zm.189 3.624a.893.893 0 00.956-.944.865.865 0 00-.944-.919h-1.334v1.862z" fill="#231f20"/></g><g data-name="Group 566"><path data-name="Path 959" d="M21.169 5.654a4.508 4.508 0 014.707 4.594 4.707 4.707 0 11-9.414 0 4.508 4.508 0 014.707-4.594zm0 7.287a2.492 2.492 0 002.429-2.694 2.434 2.434 0 10-4.858 0 2.493 2.493 0 002.429 2.689z" fill="#231f20"/></g><g data-name="Group 567"><path data-name="Path 960" d="M27.653 11.992a3.627 3.627 0 002.165.932c.616 0 .932-.277.932-.629 0-1.272-3.977-1.07-3.977-3.889 0-1.661 1.371-2.757 3.259-2.757a4.251 4.251 0 012.819 1.02l-.932 1.8a3.246 3.246 0 00-1.988-.793c-.667 0-.956.277-.956.641 0 1.284 3.977.981 3.977 3.826 0 1.51-1.12 2.806-3.2 2.806a4.655 4.655 0 01-3.26-1.284z" fill="#231f20"/></g><g data-name="Group 568"><path data-name="Path 961" d="M38.466 5.654a4.836 4.836 0 013.373 1.272l-1.018 1.661a3.686 3.686 0 00-2.253-.919 2.39 2.39 0 00-2.542 2.568 2.514 2.514 0 002.542 2.706 3.551 3.551 0 002.391-1.107l1.133 1.611a4.91 4.91 0 01-3.625 1.51 4.472 4.472 0 01-4.719-4.669 4.534 4.534 0 014.718-4.633z" fill="#231f20"/></g><g data-name="Group 569"><path data-name="Path 962" d="M47.157 5.654a4.508 4.508 0 014.707 4.594 4.707 4.707 0 11-9.414 0 4.508 4.508 0 014.707-4.594zm0 7.287a2.492 2.492 0 002.429-2.694 2.433 2.433 0 10-4.858 0 2.492 2.492 0 002.429 2.689z" fill="#231f20"/></g></g><g data-name="Group 579"><g data-name="Group 571"><path data-name="Path 963" d="M68.548 5.952h1.246v8.883h-1.246z" fill="#231f20"/></g><g data-name="Group 572"><path data-name="Path 964" d="M72.015 5.952h1.233l3.964 5.764c.315.491.731 1.3.731 1.3h.024s-.075-.794-.075-1.3V5.952h1.233v8.883h-1.221L73.94 9.07c-.315-.49-.73-1.3-.73-1.3h-.025s.075.793.075 1.3v5.765h-1.245z" fill="#231f20"/></g><g data-name="Group 573"><path data-name="Path 965" d="M83.404 7.035h-3.058V5.953h7.35v1.082h-3.058v7.8h-1.234z" fill="#231f20"/></g><g data-name="Group 574"><path data-name="Path 966" d="M88.916 5.952h5.173v1.083h-3.928v2.782h3.185v1.082h-3.185v2.857h4.141v1.079h-5.386z" fill="#231f20"/></g><g data-name="Group 575"><path data-name="Path 967" d="M95.717 5.952h2.819a3.858 3.858 0 011.648.239 2.4 2.4 0 011.41 2.329 2.488 2.488 0 01-1.585 2.441v.025a3.056 3.056 0 01.252.4l1.888 3.449h-1.41l-1.875-3.537h-1.9v3.537h-1.246zm3.034 4.267a1.514 1.514 0 001.586-1.636 1.42 1.42 0 00-.831-1.4 2.543 2.543 0 00-1.07-.151h-1.474v3.185z" fill="#231f20"/></g><g data-name="Group 576"><path data-name="Path 968" d="M103.524 5.952h1.233l3.963 5.764c.316.491.731 1.3.731 1.3h.025s-.076-.794-.076-1.3V5.952h1.233v8.883h-1.221l-3.963-5.765c-.316-.49-.731-1.3-.731-1.3h-.025s.076.793.076 1.3v5.765h-1.246z" fill="#231f20"/></g><g data-name="Group 577"><path data-name="Path 969" d="M112.876 5.952h5.175v1.083h-3.926v2.782h3.184v1.082h-3.184v2.857h4.14v1.079h-5.386z" fill="#231f20"/></g><g data-name="Group 578"><path data-name="Path 970" d="M122.114 7.035h-3.063V5.953h7.35v1.082h-3.05v7.8h-1.233z" fill="#231f20"/></g></g><g data-name="Group 580" fill="#231f20"><path data-name="Path 971" d="M134.98 10.155v-.021a2.079 2.079 0 001.107-1.913 2.281 2.281 0 00-2.58-2.265h-3.109v8.878h3.184c1.561 0 2.87-.857 2.87-2.53a2.136 2.136 0 00-1.472-2.149zm-3.335-3.122h1.85a1.219 1.219 0 011.321 1.309 1.258 1.258 0 01-1.308 1.347h-1.862zm2 6.721h-2v-3.033h2a1.43 1.43 0 011.522 1.51 1.414 1.414 0 01-1.52 1.523z"/><path data-name="Path 972" d="M142.142 5.8a4.444 4.444 0 00-4.569 4.531 4.563 4.563 0 109.124 0 4.433 4.433 0 00-4.555-4.531zm0 8.042a3.32 3.32 0 01-3.285-3.512 3.281 3.281 0 116.557 0 3.317 3.317 0 01-3.272 3.514z"/><path data-name="Path 973" d="M154.046 11.665a2.248 2.248 0 01-4.493.012V5.951h-1.245v5.738a3.5 3.5 0 006.985 0V5.951h-1.246z"/><path data-name="Path 974" d="M159.523 14.834h1.234v-7.8h3.058V5.951h-7.35v1.083h3.058z"/><path data-name="Rectangle 141" d="M165.034 5.951h1.246v8.885h-1.246z"/><path data-name="Path 975" d="M177.084 10.344a4.556 4.556 0 00-9.112 0 4.5 4.5 0 004.544 4.643 4.353 4.353 0 002.819-.968v-.006c1.078 1.089 1.569 2.117 1.372 2.912-.228.92-1.348 1.419-2.247 1.675a5.413 5.413 0 00-3.242 2.213.535.535 0 00.206.727.528.528 0 00.26.068.534.534 0 00.466-.273 4.5 4.5 0 012.6-1.707c2.12-.6 2.8-1.662 2.99-2.444.3-1.193-.287-2.552-1.671-3.94a4.618 4.618 0 001.015-2.9zm-4.568 3.5a3.334 3.334 0 01-3.259-3.5 3.275 3.275 0 116.544 0 3.613 3.613 0 01-.655 2.089l-1.02-1.044-.717.78 1.044 1.019a3.08 3.08 0 01-1.937.656z"/><path data-name="Path 976" d="M184.474 11.665a2.247 2.247 0 01-4.492.012V5.951h-1.246v5.738a3.5 3.5 0 006.985 0V5.951h-1.246z"/><path data-name="Path 977" d="M189.135 13.754v-2.857h3.184V9.815h-3.184V7.034h3.927V5.951h-5.173v8.883h5.387v-1.08z"/><path data-name="Path 978" d="M174.213 20.7a.533.533 0 00-.62.43l-.611 3.37-10.927 5.215-3.018-6.239 10.927-5.218 1.331.711a.534.534 0 00.5-.942l-1.806-.965-12.381 5.913 3.946 8.161 12.38-5.912.709-3.908a.534.534 0 00-.43-.616z"/><path data-name="Path 979" d="M170.692 20.595a1.1 1.1 0 01.126-.051.534.534 0 10-.329-1.015 2.088 2.088 0 00-.26.1 2.04 2.04 0 00.218 3.762 2.032 2.032 0 001.559-.091 2.019 2.019 0 00.723-.585.534.534 0 00-.843-.654.971.971 0 01-1.088.321.972.972 0 01-.106-1.792z"/></g><path data-name="Path 980" d="M0 0v20.6h155.336v-1.068H60.691V1.067h140.4v18.465h-22.324V20.6h23.4V0zm59.623 19.532H1.067V1.067h58.556z" fill="#231f20"/></g><path data-name="Path 981" d="M429.916 78.265h-32.675l-.939-2.983h32.675z"/><path data-name="Path 982" d="M423.846 62.485h-32.675l-.939-2.983h32.675z"/><path data-name="Path 983" d="M417.505 47.09h-32.677l-.939-2.983h32.675z"/></g></svg><svg viewBox="0 0 189.28 55" id="logo_M" xmlns="http://www.w3.org/2000/svg"><g data-name="Group 960"><g data-name="Group 812"><g data-name="Group 801"><g data-name="Group 796"><path data-name="Path 1143" d="M33.275 3.444h1.964c1.069 0 1.816.478 1.816 1.4a1.305 1.305 0 01-.62 1.135v.015a1.2 1.2 0 01.836 1.2c0 1.165-.971 1.591-2.032 1.591h-1.964zm1.979 2.069a.452.452 0 00.471-.493.435.435 0 00-.493-.456h-.65v.949zm.112 2.152a.531.531 0 00.568-.561.513.513 0 00-.56-.545h-.792v1.106z" fill="#231f20"/></g><g data-name="Group 797"><path data-name="Path 1144" d="M40.565 3.354a2.676 2.676 0 012.794 2.727 2.708 2.708 0 01-2.794 2.794 2.708 2.708 0 01-2.794-2.794 2.676 2.676 0 012.794-2.727zm0 4.325a1.479 1.479 0 001.442-1.6 1.443 1.443 0 00-1.442-1.532 1.443 1.443 0 00-1.442 1.532 1.479 1.479 0 001.442 1.6z" fill="#231f20"/></g><g data-name="Group 798"><path data-name="Path 1145" d="M44.414 7.122a2.148 2.148 0 001.285.553c.366 0 .553-.164.553-.374 0-.754-2.361-.635-2.361-2.308a1.722 1.722 0 011.934-1.636 2.523 2.523 0 011.674.6l-.553 1.068a1.93 1.93 0 00-1.18-.47c-.4 0-.568.164-.568.381 0 .762 2.361.582 2.361 2.271a1.7 1.7 0 01-1.9 1.666 2.767 2.767 0 01-1.935-.762z" fill="#231f20"/></g><g data-name="Group 799"><path data-name="Path 1146" d="M50.833 3.354a2.875 2.875 0 012 .754l-.605.987a2.184 2.184 0 00-1.337-.546 1.419 1.419 0 00-1.509 1.524 1.492 1.492 0 001.509 1.606 2.108 2.108 0 001.419-.657l.672.956a2.909 2.909 0 01-2.151.9 2.655 2.655 0 01-2.8-2.772 2.691 2.691 0 012.802-2.752z" fill="#231f20"/></g><g data-name="Group 800"><path data-name="Path 1147" d="M55.991 3.354a2.675 2.675 0 012.794 2.727 2.708 2.708 0 01-2.794 2.794 2.708 2.708 0 01-2.794-2.794 2.676 2.676 0 012.794-2.727zm0 4.325a1.479 1.479 0 001.442-1.6 1.443 1.443 0 00-1.442-1.532 1.443 1.443 0 00-1.442 1.532 1.479 1.479 0 001.442 1.6z" fill="#231f20"/></g></g><g data-name="Group 810"><g data-name="Group 802"><path data-name="Path 1148" d="M68.688 3.533h.74v5.274h-.74z" fill="#231f20"/></g><g data-name="Group 803"><path data-name="Path 1149" d="M70.746 3.533h.732l2.353 3.422c.187.291.434.769.434.769h.015s-.045-.47-.045-.769V3.533h.732v5.274h-.725l-2.353-3.421c-.187-.291-.433-.769-.433-.769h-.015s.045.47.045.769v3.421h-.74z" fill="#231f20"/></g><g data-name="Group 804"><path data-name="Path 1150" d="M77.503 4.176h-1.815v-.643h4.362v.643h-1.815v4.631h-.732z" fill="#231f20"/></g><g data-name="Group 805"><path data-name="Path 1151" d="M80.779 3.533h3.07v.643h-2.331v1.646h1.89v.642h-1.89v1.7h2.458v.642h-3.2z" fill="#231f20"/></g><g data-name="Group 806"><path data-name="Path 1152" d="M84.816 3.533h1.673a2.294 2.294 0 01.979.142 1.426 1.426 0 01.836 1.382 1.477 1.477 0 01-.941 1.449v.015a1.811 1.811 0 01.15.24l1.12 2.046h-.836l-1.114-2.1h-1.128v2.1h-.739zm1.8 2.533a.9.9 0 00.942-.971.843.843 0 00-.494-.83 1.52 1.52 0 00-.635-.089h-.874v1.89z" fill="#231f20"/></g><g data-name="Group 807"><path data-name="Path 1153" d="M89.449 3.533h.733l2.353 3.422c.187.291.433.769.433.769h.015s-.045-.47-.045-.769V3.533h.732v5.274h-.724l-2.353-3.421c-.187-.291-.434-.769-.434-.769h-.015s.045.47.045.769v3.421h-.74z" fill="#231f20"/></g><g data-name="Group 808"><path data-name="Path 1154" d="M95.003 3.533h3.07v.643h-2.331v1.646h1.89v.642h-1.89v1.7H98.2v.642H95z" fill="#231f20"/></g><g data-name="Group 809"><path data-name="Path 1155" d="M100.484 4.176h-1.815v-.643h4.363v.643h-1.816v4.631h-.732z" fill="#231f20"/></g></g><g data-name="Group 811" fill="#231f20"><path data-name="Path 1156" d="M108.121 6.028v-.014a1.236 1.236 0 00.658-1.136 1.354 1.354 0 00-1.532-1.345h-1.844v5.274h1.89a1.52 1.52 0 001.7-1.5 1.268 1.268 0 00-.872-1.279zm-1.979-1.852h1.1a.724.724 0 01.784.777.746.746 0 01-.777.8h-1.1zm1.188 3.989h-1.188v-1.8h1.188a.848.848 0 01.9.9.84.84 0 01-.9.9z"/><path data-name="Path 1157" d="M112.372 3.444a2.638 2.638 0 00-2.712 2.689 2.677 2.677 0 002.712 2.764 2.671 2.671 0 002.7-2.764 2.631 2.631 0 00-2.7-2.689zm0 4.773a1.971 1.971 0 01-1.95-2.084 1.935 1.935 0 011.95-2.017 1.933 1.933 0 011.942 2.017 1.969 1.969 0 01-1.942 2.089z"/><path data-name="Path 1158" d="M119.439 6.922a1.211 1.211 0 01-1.33 1.292 1.215 1.215 0 01-1.337-1.285v-3.4h-.74v3.407a1.915 1.915 0 002.085 1.957 1.9 1.9 0 002.062-1.957V3.529h-.74z"/><path data-name="Path 1159" d="M122.689 8.807h.732V4.175h1.815v-.643h-4.363v.643h1.815z"/><path data-name="Rectangle 212" d="M125.961 3.533h.74v5.274h-.74z"/><path data-name="Path 1160" d="M133.114 6.14a2.631 2.631 0 00-2.712-2.7 2.636 2.636 0 00-2.7 2.7 2.672 2.672 0 002.7 2.757 2.583 2.583 0 001.673-.575c.64.646.932 1.256.815 1.729-.136.546-.8.842-1.334.994a3.211 3.211 0 00-1.924 1.313.317.317 0 00.122.431.309.309 0 00.154.041.317.317 0 00.277-.163 2.672 2.672 0 011.545-1.013c1.258-.358 1.66-.987 1.775-1.451a2.582 2.582 0 00-.992-2.338 2.743 2.743 0 00.601-1.725zm-2.711 2.082a1.979 1.979 0 01-1.935-2.077 1.939 1.939 0 011.935-2.024 1.942 1.942 0 011.95 2.024 2.151 2.151 0 01-.388 1.241l-.606-.62-.425.463.619.605a1.827 1.827 0 01-1.15.388z"/><path data-name="Path 1161" d="M137.503 6.922a1.21 1.21 0 01-1.329 1.292 1.215 1.215 0 01-1.337-1.285v-3.4h-.74v3.407a1.914 1.914 0 002.084 1.957 1.9 1.9 0 002.062-1.957V3.529h-.74z"/><path data-name="Path 1162" d="M140.267 8.165v-1.7h1.89v-.643h-1.89V4.171h2.331v-.643h-3.07v5.274h3.2V8.16z"/><path data-name="Path 1163" d="M131.409 12.287a.318.318 0 00-.368.256l-.363 2-6.486 3.1-1.792-3.7 6.486-3.1.79.422a.317.317 0 00.429-.13.317.317 0 00-.131-.429l-1.072-.572-7.349 3.509 2.343 4.844 7.348-3.509.42-2.319a.317.317 0 00-.255-.372z"/><path data-name="Path 1164" d="M129.319 12.222a.591.591 0 01.075-.03.317.317 0 00.2-.4.316.316 0 00-.4-.2 1.252 1.252 0 00-.155.062 1.2 1.2 0 00-.616.692 1.2 1.2 0 00.054.925 1.2 1.2 0 00.692.616 1.217 1.217 0 00.4.068 1.2 1.2 0 00.526-.122 1.2 1.2 0 00.43-.348.317.317 0 00-.057-.444.317.317 0 00-.444.056.57.57 0 01-.2.166.577.577 0 01-.441.026.573.573 0 01-.33-.294.573.573 0 01-.025-.441.568.568 0 01.291-.332z"/></g><path data-name="Path 1165" d="M28.003 0v12.228h92.2v-.633h-56.18V.634h83.342v10.961h-13.253v.633h13.891V0zm35.391 11.6H28.633V.634h34.758z" fill="#231f20"/></g><g data-name="Group 761"><path data-name="Path 1086" d="M2.3 49.086c3.778-4.8 4.074-11.829 4.074-17.443v-4.244h11.9v21.687h2.562V55h-1.38v-4.6H1.413V55H0v-5.914zm14.555 0V28.714h-9.1v2.891c0 6.046-.526 12.881-3.844 17.481z"/><path data-name="Path 1087" d="M35.205 27.005a11.613 11.613 0 0111.629 11.594v.136a11.64 11.64 0 11-23.262.867q-.016-.433 0-.867a11.61 11.61 0 0111.492-11.729zm0 22.442a10.354 10.354 0 0010.157-10.55v-.162a10.156 10.156 0 00-20.306-.467v.467a10.355 10.355 0 009.989 10.708z"/><path data-name="Path 1088" d="M61.736 27.005a12.1 12.1 0 018.214 2.891l-.855 1.052a11.4 11.4 0 00-7.327-2.6c-5.849 0-9.955 4.436-9.955 10.383 0 5.98 4.074 10.712 10.054 10.712a11.2 11.2 0 007.787-3.122l.887.985a12.044 12.044 0 01-8.674 3.483c-6.9 0-11.532-5.389-11.532-12.059s4.731-11.725 11.401-11.725z"/><path data-name="Path 1089" d="M82.568 30.029V50.4h-1.412V30.029zm-9.988-1.315v-1.315h18.564v1.315z"/><path data-name="Path 1090" d="M99.608 27.399h1.508l8.614 23h-1.508l-2.99-7.951h-9.759l-2.96 7.951h-1.508zm5.127 13.735l-3.484-9.332c-.36-.985-.853-2.759-.853-2.759h-.066s-.493 1.774-.855 2.759l-3.519 9.332z"/><path data-name="Path 1091" d="M114.754 27.399h7.722a5.5 5.5 0 015.811 5.173 5.569 5.569 0 010 .578 5.25 5.25 0 01-2.99 5.027v.066a5.718 5.718 0 013.91 5.814 6.089 6.089 0 01-5.82 6.345 5.778 5.778 0 01-.587 0h-8.051zm7.688 10.252a4.209 4.209 0 004.371-4.5 4.13 4.13 0 00-4.4-4.436h-6.245v8.937zm.231 11.435a4.682 4.682 0 005.06-5.028 4.826 4.826 0 00-4.547-5.092 4.527 4.527 0 00-.546 0h-6.472v10.121z"/><path data-name="Path 1092" d="M135.352 27.399h1.414v10.252h4.271l6.568-10.252h1.709l-7.057 10.844v.068l7.524 12.091h-1.71l-7.03-11.434h-4.275v11.434h-1.414z"/><path data-name="Path 1093" d="M160.923 27.399h1.508l8.608 23h-1.507l-2.991-7.951h-9.758l-2.958 7.951h-1.507zm5.125 13.735l-3.482-9.332c-.362-.985-.855-2.759-.855-2.759h-.065s-.492 1.774-.854 2.759l-3.516 9.332z"/><path data-name="Path 1094" d="M189.28 42.449h-14.4l-.414-1.315h14.4z"/><path data-name="Path 1095" d="M186.605 35.496h-14.4l-.413-1.314h14.391z"/><path data-name="Path 1096" d="M183.81 28.714h-14.4l-.413-1.315h14.396z"/></g></g></svg><svg viewBox="0 0 40 40" id="mail" xmlns="http://www.w3.org/2000/svg"><g data-name="Group 731"><path data-name="Path 1080" d="M31.875 19.458a8.056 8.056 0 01-.491 2.913 6.609 6.609 0 01-1.251 2.074 4.953 4.953 0 01-1.583 1.22 4.293 4.293 0 01-1.757.411 5.061 5.061 0 01-2.312-.459 3.432 3.432 0 01-1.362-1.172 21.029 21.029 0 01-2.137 1 6.008 6.008 0 01-2.328.475 3.894 3.894 0 01-2.771-1 3.6 3.6 0 01-1.108-2.707 3.079 3.079 0 01.459-1.726 3.883 3.883 0 011.124-1.124 4.758 4.758 0 011.425-.633 5.729 5.729 0 011.378-.19h3.452v-.713a1.977 1.977 0 00-.824-1.947 3.976 3.976 0 00-2.09-.507 6.036 6.036 0 00-1.377.19 4.643 4.643 0 00-1.726.934l-1.156-1.583a7.207 7.207 0 012.264-1.251 7.083 7.083 0 012.074-.317 5.653 5.653 0 013.69 1.093 4.008 4.008 0 011.33 3.277v4.75a1.583 1.583 0 00.506 1.283 2.315 2.315 0 001.409.38 2.522 2.522 0 001.125-.285 2.959 2.959 0 001.013-.887 4.725 4.725 0 00.744-1.488 6.939 6.939 0 00.285-2.09 11.553 11.553 0 00-.649-3.864 8.528 8.528 0 00-1.853-2.8 8.616 8.616 0 00-2.915-1.946 10.008 10.008 0 00-3.832-.744 11.782 11.782 0 00-4.211.76 10.716 10.716 0 00-3.341 2.059 9.641 9.641 0 00-2.28 3.04 10.3 10.3 0 00-.839 4.132 9.766 9.766 0 00.744 3.784 9.137 9.137 0 005.177 5.114 11.222 11.222 0 004.085.729 9.923 9.923 0 001.837-.174 11.825 11.825 0 002.185-.681l.7 1.916a11.126 11.126 0 01-2.692.744 17.558 17.558 0 01-2.011.142 13.424 13.424 0 01-4.861-.855 11.478 11.478 0 01-3.752-2.391 10.6 10.6 0 01-2.454-3.641 11.95 11.95 0 01-.95-4.639 12.215 12.215 0 011-4.956 11.706 11.706 0 012.692-3.689 12.416 12.416 0 013.974-2.439 14.141 14.141 0 015-.871 12.2 12.2 0 014.75.871 10.213 10.213 0 015.748 5.906 13.6 13.6 0 01.743 4.572zm-9.262.934h-3.99a2.355 2.355 0 00-.808.238 1.69 1.69 0 00-.633.554 1.815 1.815 0 00.316 2.248 2.327 2.327 0 001.473.443 3.853 3.853 0 00.95-.126 6.406 6.406 0 00.95-.333 8.729 8.729 0 00.887-.443l.775-.428z" fill="#707070"/><path data-name="Path 1081" d="M20 1A19 19 0 111 20 19 19 0 0120 1z" fill="none" stroke="#707070" stroke-miterlimit="10" stroke-width="2"/></g></svg><svg viewBox="0 0 72.744 79.962" id="medal" xmlns="http://www.w3.org/2000/svg"><g data-name="Group 690" fill="#164FAD"><path data-name="Path 1057" d="M49.32 28.166l-7.62-2.033-4.295-6.591a1.039 1.039 0 00-1.676 0l-4.295 6.591-7.62 2.033a1 1 0 00-.518 1.6l4.963 6.106-.413 7.845a1 1 0 001.356.987l7.365-2.821 7.365 2.817a1 1 0 001.356-.987l-.413-7.845 4.963-6.106a1 1 0 00-.518-1.6zm-6.24 6.74a1 1 0 00-.223.683l.353 6.694-6.286-2.405a1.013 1.013 0 00-.714 0l-6.286 2.405.353-6.694a1 1 0 00-.223-.683L25.822 29.7l6.5-1.734a1 1 0 00.58-.42l3.665-5.627 3.667 5.627a1 1 0 00.58.42l6.5 1.734z"/><path data-name="Path 1058" d="M65.556 43.815a14.212 14.212 0 01.318-3.135 14.548 14.548 0 011.308-2.933 10.9 10.9 0 001.7-5.028 10.892 10.892 0 00-1.705-5.028 14.534 14.534 0 01-1.307-2.932 14.218 14.218 0 01-.318-3.135 10.906 10.906 0 00-1.047-5.269 10.8 10.8 0 00-3.938-3.445 14.853 14.853 0 01-2.661-1.934 14.849 14.849 0 01-1.933-2.661 10.811 10.811 0 00-3.446-3.938 10.91 10.91 0 00-5.27-1.047 14.269 14.269 0 01-3.134-.318 14.492 14.492 0 01-2.93-1.312A10.9 10.9 0 0036.167 0a10.9 10.9 0 00-5.028 1.7 14.478 14.478 0 01-2.932 1.307 14.224 14.224 0 01-3.135.318 10.906 10.906 0 00-5.269 1.047 10.8 10.8 0 00-3.446 3.938 14.817 14.817 0 01-1.934 2.661 14.844 14.844 0 01-2.66 1.934 10.791 10.791 0 00-3.938 3.445 10.922 10.922 0 00-1.048 5.27 14.227 14.227 0 01-.317 3.135 14.541 14.541 0 01-1.308 2.932 10.9 10.9 0 00-1.7 5.028 10.9 10.9 0 001.7 5.028 14.548 14.548 0 011.308 2.933 14.269 14.269 0 01.318 3.134 10.906 10.906 0 001.047 5.269 6.442 6.442 0 001.158 1.438L.143 65.284A1 1 0 00.967 66.8l14.508.437 6.512 12.13a1 1 0 00.858.526h.022a1 1 0 00.858-.487l8.922-14.9a8.216 8.216 0 003.516.933 8.63 8.63 0 003.805-1.07l9.044 15.107a1 1 0 00.858.486h.023a1 1 0 00.858-.526l6.516-12.13 14.507-.437a1 1 0 00.828-1.513l-9.02-15.068a6.218 6.218 0 00.926-1.2 10.906 10.906 0 001.048-5.273zM22.919 76.87l-5.952-11.086a1 1 0 00-.85-.527l-13.383-.4 7.833-13.092c.392.264.794.516 1.192.765a14.85 14.85 0 012.661 1.933 14.816 14.816 0 011.935 2.662 10.805 10.805 0 003.445 3.937 10.908 10.908 0 005.267 1.047 14.272 14.272 0 013.135.318 13.185 13.185 0 012.665 1.164zM56.63 65.324a1 1 0 00-.851.527l-5.953 11.086-8.078-13.494a11.975 11.975 0 012.379-1.016 14.278 14.278 0 013.135-.318 10.906 10.906 0 005.269-1.047 10.8 10.8 0 003.446-3.938 14.849 14.849 0 011.933-2.661 14.85 14.85 0 012.657-1.933c.489-.305.981-.616 1.456-.947l7.985 13.338zm6.927-21.572a9.329 9.329 0 01-.78 4.331 9.249 9.249 0 01-3.265 2.75 16.555 16.555 0 00-3.016 2.216 16.589 16.589 0 00-2.216 3.016 9.262 9.262 0 01-2.75 3.266 9.332 9.332 0 01-4.331.779 15.967 15.967 0 00-3.588.385 16.184 16.184 0 00-3.357 1.475 9.333 9.333 0 01-4.087 1.469 9.337 9.337 0 01-4.088-1.469 16.16 16.16 0 00-3.357-1.47 15.96 15.96 0 00-3.588-.385 9.335 9.335 0 01-4.331-.779 9.269 9.269 0 01-2.75-3.265 16.6 16.6 0 00-2.216-3.017 16.6 16.6 0 00-3.017-2.216 9.267 9.267 0 01-3.265-2.75 9.328 9.328 0 01-.779-4.33 15.96 15.96 0 00-.384-3.588 16.243 16.243 0 00-1.475-3.357 9.329 9.329 0 01-1.471-4.088 9.336 9.336 0 011.47-4.087 16.222 16.222 0 001.475-3.358 15.9 15.9 0 00.384-3.588 9.347 9.347 0 01.78-4.331 9.277 9.277 0 013.265-2.75 16.515 16.515 0 003.017-2.221 16.555 16.555 0 002.216-3.016 9.249 9.249 0 012.75-3.265 9.34 9.34 0 014.33-.78 15.9 15.9 0 003.588-.384 16.222 16.222 0 003.358-1.475A9.336 9.336 0 0136.167 2a9.336 9.336 0 014.087 1.47 16.222 16.222 0 003.358 1.475 15.9 15.9 0 003.588.384 9.322 9.322 0 014.331.78 9.259 9.259 0 012.75 3.265 16.555 16.555 0 002.216 3.016 16.509 16.509 0 003.016 2.216 9.259 9.259 0 013.265 2.75 9.332 9.332 0 01.78 4.331 15.888 15.888 0 00.384 3.587 16.2 16.2 0 001.475 3.358 9.336 9.336 0 011.47 4.087 9.35 9.35 0 01-1.469 4.088 16.085 16.085 0 00-1.475 3.357 15.9 15.9 0 00-.386 3.588z"/><path data-name="Path 1059" d="M36.167 8.84a23.879 23.879 0 1016.885 6.994A23.724 23.724 0 0036.167 8.84zm15.471 39.351a21.881 21.881 0 116.408-15.471 21.9 21.9 0 01-6.408 15.471z"/></g></svg><svg viewBox="0 0 37 37" id="mobile-close" xmlns="http://www.w3.org/2000/svg"><g data-name="Group 866" transform="translate(.5 .5)" fill="none" stroke="#000" stroke-miterlimit="10"><circle data-name="Ellipse 95" cx="18" cy="18" r="18"/><g data-name="Group 865"><path data-name="Line 61" d="M11 11l14 14"/><path data-name="Line 62" d="M11 25l14-14"/></g></g></svg><svg viewBox="0 0 35.58 37.542" id="phone" xmlns="http://www.w3.org/2000/svg"><g data-name="Group 411"><g data-name="Layer 1-2"><path data-name="Path 680" d="M21.632 34.528l-3.196-.122C12.678 34.237 7.803 26.66 7.63 19.07s4.15-14.883 9.89-14.729l3.193.04a22.611 22.611 0 01-1.063 8.124l-5.173-.818a20.435 20.435 0 00.458 15.073l5.136-.433a23.88 23.88 0 011.561 8.201z" fill="none" stroke="#000" stroke-miterlimit="10" stroke-width="1.2"/></g></g></svg><svg viewBox="0 0 35.58 37.542" id="phone-red" xmlns="http://www.w3.org/2000/svg"><g data-name="Group 411"><g data-name="Layer 1-2"><path data-name="Path 680" d="M21.632 34.528l-3.196-.122C12.678 34.237 7.803 26.66 7.63 19.07s4.15-14.883 9.89-14.729l3.193.04a22.611 22.611 0 01-1.063 8.124l-5.173-.818a20.435 20.435 0 00.458 15.073l5.136-.433a23.88 23.88 0 011.561 8.201z" fill="none" stroke="#a70033" stroke-miterlimit="10" stroke-width="1.2"/></g></g></svg><svg viewBox="0 0 40 40" id="phone2" xmlns="http://www.w3.org/2000/svg"><g data-name="Group 732" fill="none" stroke="#707070" stroke-width="2"><path data-name="Path 1082" d="M20 1A19 19 0 111 20 19 19 0 0120 1z" stroke-miterlimit="10"/><path data-name="Path 1083" d="M30.323 26.808L28.55 28.55c-3.167 3.167-9.959 1.488-14.25-2.866s-6.017-11.083-2.866-14.25l1.726-1.793a19.274 19.274 0 013.927 5.367l-3.215 2.455a16.96 16.96 0 008.582 8.581l2.5-3.166a19.25 19.25 0 015.369 3.93z" stroke-linejoin="round"/></g></svg><svg viewBox="0 0 29 29" id="phoneW" xmlns="http://www.w3.org/2000/svg"><g data-name="Group 228" transform="translate(-758.128 -301.057)"><g data-name="Group 21"><g data-name="Layer 1-2"><g data-name="Group 20"><path data-name="Path 25" d="M781.893 321.829l-1.452 1.453a5.761 5.761 0 01-4.169 1.548 13.194 13.194 0 01-8.846-4.032 14.164 14.164 0 01-3.832-6.813c-.56-2.608-.1-4.824 1.322-6.236l1.424-1.471h.833a16.967 16.967 0 013.429 4.717l.137.315-2.787 2.172a14.33 14.33 0 006.723 6.771l2.172-2.8.315.138a16.986 16.986 0 014.717 3.428zm-15.114-14.68l-1.232 1.236c-1.191 1.191-1.572 3.114-1.078 5.412a13.26 13.26 0 003.573 6.371 12.477 12.477 0 008.218 3.771 4.9 4.9 0 003.574-1.286l1.232-1.24a17.269 17.269 0 00-3.886-2.857l-2.155 2.769-.31-.114a14.956 14.956 0 01-7.727-7.7l-.131-.315 2.775-2.157a17.352 17.352 0 00-2.853-3.89z" fill="#fff"/></g></g></g><circle data-name="Ellipse 48" cx="14" cy="14" r="14" transform="translate(758.628 301.557)" fill="none" stroke="#fff" stroke-miterlimit="10"/></g></svg><svg viewBox="0 0 37 37" id="phone_M" xmlns="http://www.w3.org/2000/svg"><g data-name="Group 864" transform="translate(-579.5 -496.5)"><circle data-name="Ellipse 94" cx="18" cy="18" r="18" transform="translate(580 497)" fill="none" stroke="#4b4b4b" stroke-miterlimit="10"/><g data-name="Group 863"><g data-name="Layer 1-2"><path data-name="Path 1225" d="M605.926 523.738l-1.98 1.12c-3.55 2.049-9.157-1.044-11.919-5.909s-2.693-11.223.842-13.276l1.95-1.173a17.629 17.629 0 012.2 5.675l-3.422 1.408a15.518 15.518 0 005.553 9.619l2.961-2.202a17.617 17.617 0 013.815 4.738z" fill="none" stroke="#4b4b4b" stroke-linejoin="bevel"/></g></g></g></svg><svg viewBox="0 0 67 67" id="play" xmlns="http://www.w3.org/2000/svg"><g data-name="Group 761" transform="translate(-237.071 -13.5)" stroke="#fff" stroke-width="3"><circle data-name="Ellipse 92" cx="32" cy="32" r="32" transform="translate(238.571 15)" stroke-miterlimit="10" opacity=".1"/><circle data-name="Ellipse 93" cx="32" cy="32" r="32" transform="translate(238.571 15)" fill="none" stroke-miterlimit="10"/><path data-name="Path 1093" d="M262.847 35.966v22.068L282.709 47z" fill="none" stroke-linejoin="bevel"/></g></svg><svg viewBox="0 0 37.303 27.2" id="price" xmlns="http://www.w3.org/2000/svg"><g data-name="Group 410" transform="translate(-790.028 -397.806)" fill="none" stroke="#000" stroke-miterlimit="10" stroke-width="1.2"><path data-name="Rectangle 36" d="M800.068 398.406h17.223v26h-17.223zM796.868 421.606h-6.24v-20.4h6.24M820.491 401.206h6.24v20.4h-6.24"/><circle data-name="Ellipse 51" cx="4" cy="4" r="4" transform="translate(804.68 407.406)"/><path data-name="Path 678" d="M820.891 409.406a2 2 0 010 4"/><path data-name="Path 679" d="M796.938 413.406a2.001 2.001 0 01-.14-4"/></g></svg><svg viewBox="0 0 37.303 27.2" id="price-red" xmlns="http://www.w3.org/2000/svg"><g data-name="Group 410" transform="translate(-790.028 -397.806)" fill="none" stroke="#a70033" stroke-miterlimit="10" stroke-width="1.2"><path data-name="Rectangle 36" d="M800.068 398.406h17.223v26h-17.223zM796.868 421.606h-6.24v-20.4h6.24M820.491 401.206h6.24v20.4h-6.24"/><circle data-name="Ellipse 51" cx="4" cy="4" r="4" transform="translate(804.68 407.406)"/><path data-name="Path 678" d="M820.891 409.406a2 2 0 010 4"/><path data-name="Path 679" d="M796.938 413.406a2.001 2.001 0 01-.14-4"/></g></svg><svg viewBox="0 0 34.326 25" id="priceW" xmlns="http://www.w3.org/2000/svg"><g data-name="Group 230" transform="translate(-790.128 -397.906)" fill="none" stroke="#fff" stroke-miterlimit="10"><path data-name="Rectangle 36" d="M800.068 398.406h14.446v24h-14.446zM796.868 419.606h-6.24v-18.4h6.24M817.714 401.206h6.24v18.4h-6.24"/><circle data-name="Ellipse 49" cx="4" cy="4" r="4" transform="translate(803.291 406.406)"/><path data-name="Path 291" d="M818.114 408.406a2 2 0 010 4"/><path data-name="Path 292" d="M796.938 412.406a2.001 2.001 0 01-.14-4"/></g></svg><svg viewBox="0 0 23.2 20.2" id="print" xmlns="http://www.w3.org/2000/svg"><g data-name="Group 625" fill="none" stroke="#1665b4" stroke-miterlimit="10" stroke-width="1.2"><path data-name="Rectangle 153" d="M4.6.6h14v4h-14z"/><path data-name="Rectangle 154" d="M4.6 10.6h14v9h-14z"/><path data-name="Path 1015" d="M4.6 14.6h-4v-10h22v10h-4"/></g></svg><svg viewBox="0 0 51.476 39.055" id="pvz" xmlns="http://www.w3.org/2000/svg"><g data-name="Group 661" transform="translate(-259.125 -1318.483)" fill="#931436"><g data-name="Group 660"><path data-name="Path 1031" d="M261.268 1318.848c0 .1-.1.1-.1.2v.1c0 .1-.1.2-.1.3l-.013 4.173a5.412 5.412 0 002.075 4.278.608.608 0 00-.1.4l-.076 27.129h-.995a.994.994 0 00-.005 1.988l1.988.005 5.366.016 12.222.035 24.146.069 1.988.005a.993.993 0 10.005-1.986h-.993l.078-27.227a.371.371 0 00-.1-.3 5.417 5.417 0 002.1-4.266l.013-4.173a.367.367 0 00-.1-.3v-.1c0-.1-.1-.1-.1-.2m-29.227 4.685a3.578 3.578 0 01-7.156-.02l.009-3.18 7.156.02zm1.995-3.173l7.156.02-.009 3.18a3.578 3.578 0 01-7.156-.022zm9.143.025l7.154.02-.009 3.18a3.577 3.577 0 01-7.154-.02zm-27.426-.078l7.154.02-.009 3.18a3.577 3.577 0 11-7.154-.022zm7.252 35l.06-20.668 10.236.029-.06 20.67zm34.383.1l-22.159-.063.062-21.663a.939.939 0 00-.991-1l-12.222-.035a.938.938 0 00-1 .991l-.062 21.661-3.38-.009.076-26.531a4.141 4.141 0 001.59.3 5.687 5.687 0 004.578-2.373 5.428 5.428 0 004.564 2.4 5.687 5.687 0 004.578-2.373 5.43 5.43 0 004.563 2.4 5.69 5.69 0 004.578-2.372 5.429 5.429 0 004.565 2.4 5.681 5.681 0 004.576-2.372 5.432 5.432 0 004.565 2.4 7.723 7.723 0 001.59-.194zm2.078-31.792a3.577 3.577 0 11-7.154-.022l.009-3.178 7.154.02z"/><path data-name="Path 1032" d="M302.16 1336.057l-15.5-.043a.938.938 0 00-1 .991l-.027 9.439a.938.938 0 00.991 1l15.5.045a.94.94 0 001-.991l.027-9.441a.941.941 0 00-.991-1zm-1.022 9.438l-13.514-.038.022-7.454 13.514.04z"/></g><rect data-name="Rectangle 192" width="51.476" height="2.065" rx=".569" transform="translate(259.125 1318.483)"/><rect data-name="Rectangle 193" width="51.476" height="2.065" rx=".569" transform="translate(259.125 1355.472)"/></g></svg><svg data-name="Group 634" viewBox="0 0 42.836 60.155" id="pvz-location" xmlns="http://www.w3.org/2000/svg"><path data-name="Path 925" d="M21.418 0a21.353 21.353 0 0121.414 21.414s.779 18.494-21.414 38.741C-.775 39.909.002 21.414.002 21.414A21.353 21.353 0 0121.418 0" fill="#9e1935"/><circle data-name="Ellipse 59" cx="9.734" cy="9.734" transform="translate(11.684 11.681)" fill="#fff" r="9.734"/></svg><svg viewBox="0 0 28 28" id="quantity" xmlns="http://www.w3.org/2000/svg"><g data-name="Group 653" transform="translate(-106 -1066)"><text data-name="20" transform="translate(120 1084.128)" fill="#707070" font-size="13" font-family="MuseoSansCyrl-700, Museo Sans Cyrl 700" font-weight="700"><tspan x="-7.5" y="0">20</tspan></text><circle data-name="Ellipse 71" cx="13" cy="13" r="13" transform="translate(107 1067)" fill="none" stroke="#707070" stroke-linecap="round" stroke-miterlimit="10" stroke-width="2"/></g></svg><svg viewBox="0 0 58 58" id="red_no" xmlns="http://www.w3.org/2000/svg"><g data-name="Group 948" stroke="#d56a76" stroke-miterlimit="10" stroke-width="3"><g data-name="Rectangle 251" fill="#f7f7f7"><rect width="58" height="58" rx="16" stroke="none"/><rect x="1.5" y="1.5" width="55" height="55" rx="14.5" fill="none"/></g><g data-name="Group 947" fill="none"><path data-name="Line 87" d="M19.575 19.575l18.85 18.85"/><path data-name="Line 88" d="M19.575 38.425l18.85-18.85"/></g></g></svg><svg viewBox="0 0 28 28" id="scheldue" xmlns="http://www.w3.org/2000/svg"><g data-name="Group 654" transform="translate(-106 -1116)" fill="none" stroke="#707070" stroke-linecap="round" stroke-miterlimit="10" stroke-width="2"><circle data-name="Ellipse 72" cx="13" cy="13" r="13" transform="translate(107 1117)"/><path data-name="Line 44" d="M120 1130h5"/><path data-name="Line 45" d="M120 1130v-9"/><path data-name="Line 46" d="M120 1139v-1"/><path data-name="Line 47" d="M112 1130h-1"/><path data-name="Line 48" d="M129 1130h-1"/></g></svg><svg viewBox="0 0 18.872 41.286" id="slick-arrow" xmlns="http://www.w3.org/2000/svg"><path data-name="Path 1005" d="M18.106 40.643l-16.8-20 16.8-20" fill="none" stroke="#fff" stroke-miterlimit="10" stroke-width="2"/></svg><svg viewBox="0 0 67 67" id="star" xmlns="http://www.w3.org/2000/svg"><g data-name="Group 723" transform="translate(-188.5 -196.5)" fill="#f7f7f7" stroke="#9e1935" stroke-width="3"><circle data-name="Ellipse 80" cx="32" cy="32" r="32" transform="translate(190 198)" stroke-miterlimit="10"/><path data-name="Path 1066" d="M222 237.006l-10.507 6.6 3.027-12.031-9.52-7.958 12.377-.839L222 211.266l4.623 11.512 12.377.839-9.52 7.954 3.027 12.031z" stroke-linejoin="bevel"/></g></svg><svg viewBox="0 0 76.619 74.297" id="time" xmlns="http://www.w3.org/2000/svg"><path fill="#164FAD" data-name="Path 1056" d="M34.827 67.332a1.161 1.161 0 010 2.322 34.827 34.827 0 1134.826-34.827 1.161 1.161 0 01-2.322 0 32.5 32.5 0 10-32.5 32.5zM62.688 74.3a13.931 13.931 0 1113.931-13.934A13.931 13.931 0 0162.688 74.3zm0-2.322a11.609 11.609 0 10-11.609-11.612 11.609 11.609 0 0011.609 11.609zm4.984-15.912a1.161 1.161 0 011.641 1.634l-6.965 6.97a1.16 1.16 0 01-1.641 0l-3.483-3.483a1.161 1.161 0 011.641-1.641l2.662 2.662zM47.6 34.827a1.161 1.161 0 010 2.322H33.666a1.161 1.161 0 01-1.166-1.161v-20.9a1.161 1.161 0 012.322 0v19.739z"/></svg></svg>