<?xml version="1.0" encoding="utf-8"?><svg viewBox="0 0 429.916 133.19" xmlns="http://www.w3.org/2000/svg" xmlns:xlink="http://www.w3.org/1999/xlink"><style>:root>svg{display:none}:root>svg:target{display:block}</style><svg viewBox="0 0 67 67" id="check" xmlns="http://www.w3.org/2000/svg"><g data-name="Group 724" transform="translate(-188.5 -22.5)" stroke="#319b3a" stroke-miterlimit="10" stroke-width="3"><circle data-name="Ellipse 81" cx="32" cy="32" r="32" transform="translate(190 24)" fill="#f7f7f7"/><path data-name="Path 1067" d="M208 52l12 14 16-21" fill="none"/></g></svg><svg viewBox="0 0 31.414 31.414" id="close" xmlns="http://www.w3.org/2000/svg"><g data-name="Group 648"><g data-name="Group 647"><g data-name="Group 76"><g data-name="Group 75" fill="none" stroke="#8b8b8b" stroke-miterlimit="10" stroke-width="2"><path data-name="Line 13" d="M.707.707l30 30"/><path data-name="Line 14" d="M30.707.707l-30 30"/></g></g></g></g></svg><svg viewBox="0 0 25.01 25.6" id="download" xmlns="http://www.w3.org/2000/svg"><g data-name="Group 630" fill="none" stroke="#fff" stroke-miterlimit="10" stroke-width="1.2"><path data-name="Path 1018" d="M18.332 13.232l-5.828 5.828-5.828-5.828"/><path data-name="Line 40" d="M12.505 19.048V0"/><path data-name="Path 1019" d="M6.552 4.762H.6V25h23.81V4.762h-5.952"/></g></svg><svg viewBox="0 0 30.533 23.2" id="envelope" xmlns="http://www.w3.org/2000/svg"><g data-name="Group 409" fill="none" stroke="#000" stroke-miterlimit="10" stroke-width="1.2"><path data-name="Rectangle 36" d="M.6.6h29.333v22H.6z"/><path data-name="Path 677" d="M.6.6l14.667 14.431L29.934.6"/></g></svg><svg viewBox="0 0 27.667 21" id="envelopeW" xmlns="http://www.w3.org/2000/svg"><g data-name="Group 231" fill="none" stroke="#fff" stroke-miterlimit="10"><path data-name="Rectangle 36" d="M.5.5h26.667v20H.5z"/><path data-name="Path 372" d="M.5.5l13.333 12.026L27.167.5"/></g></svg><svg viewBox="0 0 17.242 17.244" id="expand" xmlns="http://www.w3.org/2000/svg"><g data-name="Group 624" fill="none" stroke="#1665b4" stroke-miterlimit="10" stroke-width="1.2"><path data-name="Path 1006" d="M11.089.6h5.553v5.554"/><path data-name="Line 18" d="M16.642.6l-6.17 6.171"/><path data-name="Path 1007" d="M.6 6.154V.6h5.553"/><path data-name="Line 19" d="M.6.6l6.17 6.171"/><path data-name="Path 1008" d="M6.153 16.643H.6v-5.554"/><path data-name="Line 20" d="M.6 16.644l6.17-6.171"/><path data-name="Path 1009" d="M16.642 11.09v5.554h-5.553"/><path data-name="Line 21" d="M16.642 16.644l-6.17-6.171"/></g></svg><svg viewBox="0 0 200 30.807" id="footer-logo" xmlns="http://www.w3.org/2000/svg"><g data-name="Group 226"><g data-name="Group 215"><g data-name="Group 210"><path data-name="Path 349" d="M8.792 5.739h3.274c1.781 0 3.026.8 3.026 2.328a2.174 2.174 0 01-1.034 1.893v.025a2 2 0 011.4 2c0 1.943-1.619 2.652-3.387 2.652H8.797zm3.3 3.449a.754.754 0 00.785-.822.725.725 0 00-.823-.76h-1.08V9.19zm.187 3.586a.884.884 0 00.946-.934.856.856 0 00-.934-.909h-1.32v1.843z" fill="#b5b5b5"/></g><g data-name="Group 211"><path data-name="Path 350" d="M20.942 5.59a4.46 4.46 0 014.657 4.545 4.657 4.657 0 11-9.314 0 4.46 4.46 0 014.657-4.545zm0 7.209a2.465 2.465 0 002.4-2.664 2.407 2.407 0 10-4.806 0 2.465 2.465 0 002.406 2.663z" fill="#b5b5b5"/></g><g data-name="Group 212"><path data-name="Path 351" d="M27.357 11.865a3.588 3.588 0 002.142.921c.609 0 .921-.274.921-.623 0-1.257-3.935-1.058-3.935-3.847 0-1.643 1.357-2.727 3.225-2.727a4.206 4.206 0 012.789 1.009l-.922 1.78a3.213 3.213 0 00-1.967-.784c-.659 0-.946.274-.946.635 0 1.27 3.935.971 3.935 3.785 0 1.494-1.108 2.777-3.163 2.777a4.613 4.613 0 01-3.225-1.27z" fill="#b5b5b5"/></g><g data-name="Group 213"><path data-name="Path 352" d="M38.055 5.59a4.788 4.788 0 013.337 1.258l-1.008 1.644a3.637 3.637 0 00-2.229-.91 2.365 2.365 0 00-2.515 2.541 2.487 2.487 0 002.515 2.676 3.514 3.514 0 002.366-1.095l1.12 1.594a4.854 4.854 0 01-3.586 1.494 4.425 4.425 0 01-4.669-4.62 4.485 4.485 0 014.669-4.582z" fill="#b5b5b5"/></g><g data-name="Group 214"><path data-name="Path 353" d="M46.653 5.59a4.459 4.459 0 014.656 4.545 4.657 4.657 0 11-9.313 0 4.459 4.459 0 014.657-4.545zm0 7.209a2.465 2.465 0 002.4-2.664 2.407 2.407 0 10-4.806 0 2.464 2.464 0 002.406 2.663z" fill="#b5b5b5"/></g></g><g data-name="Group 224"><g data-name="Group 216"><path data-name="Path 354" d="M67.815 5.89h1.233v8.791h-1.233z" fill="#b5b5b5"/></g><g data-name="Group 217"><path data-name="Path 355" d="M71.244 5.89h1.22l3.922 5.7c.312.485.723 1.282.723 1.282h.024s-.074-.784-.074-1.282v-5.7h1.22v8.791h-1.205l-3.922-5.7c-.311-.485-.722-1.282-.722-1.282h-.025s.075.784.075 1.282v5.7h-1.233z" fill="#b5b5b5"/></g><g data-name="Group 218"><path data-name="Path 356" d="M82.512 6.959h-3.025V5.89h7.271v1.071h-3.025v7.72h-1.221z" fill="#b5b5b5"/></g><g data-name="Group 219"><path data-name="Path 357" d="M87.965 5.89h5.118v1.071h-3.885v2.752h3.15v1.07h-3.15v2.827h4.1v1.071h-5.329z" fill="#b5b5b5"/></g><g data-name="Group 220"><path data-name="Path 358" d="M94.693 5.89h2.789a3.816 3.816 0 011.632.237 2.378 2.378 0 011.394 2.3 2.463 2.463 0 01-1.569 2.416v.025a2.916 2.916 0 01.249.4l1.868 3.412h-1.394l-1.856-3.5h-1.88v3.5h-1.233zm3 4.221a1.5 1.5 0 001.569-1.618 1.4 1.4 0 00-.822-1.383 2.523 2.523 0 00-1.058-.149h-1.457v3.15z" fill="#b5b5b5"/></g><g data-name="Group 221"><path data-name="Path 359" d="M102.416 5.89h1.221l3.922 5.7c.311.485.722 1.282.722 1.282h.025s-.075-.784-.075-1.282v-5.7h1.22v8.791h-1.208l-3.921-5.7a19.698 19.698 0 01-.723-1.282h-.025s.075.784.075 1.282v5.7h-1.233z" fill="#b5b5b5"/></g><g data-name="Group 222"><path data-name="Path 360" d="M111.669 5.89h5.117v1.071h-3.884v2.752h3.149v1.07h-3.149v2.827h4.1v1.071h-5.329z" fill="#b5b5b5"/></g><g data-name="Group 223"><path data-name="Path 361" d="M120.807 6.959h-3.025V5.89h7.271v1.071h-3.026v7.72h-1.22z" fill="#b5b5b5"/></g></g><g data-name="Group 225" fill="#b5b5b5"><path data-name="Path 362" d="M133.536 10.047v-.025a2.057 2.057 0 001.1-1.893 2.256 2.256 0 00-2.552-2.241h-3.076v8.791h3.15c1.544 0 2.839-.847 2.839-2.5a2.113 2.113 0 00-1.461-2.132zm-3.3-3.088h1.83a1.207 1.207 0 011.307 1.3 1.244 1.244 0 01-1.294 1.332h-1.843zm1.98 6.649h-1.98v-3h1.98a1.415 1.415 0 011.506 1.494 1.4 1.4 0 01-1.505 1.506z"/><path data-name="Path 363" d="M140.621 5.739a4.4 4.4 0 00-4.52 4.482 4.514 4.514 0 109.027 0 4.386 4.386 0 00-4.507-4.482zm0 7.956a3.285 3.285 0 01-3.25-3.474 3.246 3.246 0 116.487 0 3.283 3.283 0 01-3.237 3.474z"/><path data-name="Path 364" d="M152.399 11.541a2.224 2.224 0 01-4.445.012V5.89h-1.233v5.678a3.461 3.461 0 006.911 0V5.89h-1.233z"/><path data-name="Path 365" d="M157.816 14.679h1.22v-7.72h3.025V5.89h-7.271v1.071h3.025z"/><path data-name="Rectangle 105" d="M163.268 5.888h1.233v8.79h-1.233z"/><path data-name="Path 366" d="M175.19 10.234a4.507 4.507 0 00-9.014 0 4.454 4.454 0 004.495 4.594 4.3 4.3 0 002.789-.959v-.005c1.067 1.077 1.553 2.095 1.358 2.882-.226.91-1.333 1.4-2.222 1.656a5.358 5.358 0 00-3.208 2.189.528.528 0 00.922.516 4.447 4.447 0 012.574-1.689c2.1-.6 2.767-1.645 2.959-2.418.293-1.18-.284-2.524-1.654-3.9a4.565 4.565 0 001.001-2.866zm-4.519 3.461a3.3 3.3 0 01-3.225-3.461 3.24 3.24 0 116.474 0 3.568 3.568 0 01-.647 2.066l-1.009-1.033-.709.772 1.033 1.009a3.048 3.048 0 01-1.914.647z"/><path data-name="Path 367" d="M182.501 11.541a2.223 2.223 0 01-4.444.012V5.89h-1.233v5.678a3.461 3.461 0 006.91 0V5.89h-1.233z"/><path data-name="Path 368" d="M187.112 13.608v-2.826h3.15V9.711h-3.15V6.959h3.885V5.89h-5.117v8.79h5.329v-1.071z"/><path data-name="Path 369" d="M172.35 20.479a.528.528 0 00-.614.425l-.605 3.334-10.811 5.163-2.986-6.172 10.811-5.162 1.316.7a.529.529 0 00.5-.932l-1.787-.954-12.249 5.849 3.905 8.074 12.244-5.846.7-3.866a.527.527 0 00-.424-.613z"/><path data-name="Path 370" d="M168.866 20.375a1.126 1.126 0 01.125-.05.528.528 0 10-.326-1 2.1 2.1 0 00-.257.1 2.018 2.018 0 102.474 3.053.528.528 0 00-.835-.647.942.942 0 01-.341.276.962.962 0 01-.84-1.731z"/></g><path data-name="Path 371" d="M0 0v20.38h153.674v-1.056H60.04V1.056h138.9v18.268h-22.089v1.056h23.145V0zm58.985 19.324H1.056V1.056h57.929z" fill="#b5b5b5"/></g></svg><svg id="footer_blank" data-name="Слой 1" viewBox="0 0 107.36 133.19" xmlns="http://www.w3.org/2000/svg"><defs><clipPath id="hclip-path" transform="translate(-24.9 -19.81)"><path class="hcls-1" d="M-695.1 0h1920v140h-1920z"/></clipPath><style>.hcls-1,.hcls-3{fill:none}.hcls-2{clip-path:url(#hclip-path)}.hcls-3{stroke:#a39c9c;stroke-miterlimit:10;stroke-width:4px}</style></defs><g class="hcls-2"><g id="hMask_Group_1" data-name="Mask Group 1"><g id="hGroup_629" data-name="Group 629"><path id="hPath_1016" data-name="Path 1016" class="hcls-3" d="M130.25 47.65V151H26.9V21.81h77.52z" transform="translate(-24.9 -19.81)"/><path id="hLine_36" data-name="Line 36" class="hcls-3" d="M23.53 53.68h60.29"/><path id="hLine_37" data-name="Line 37" class="hcls-3" d="M23.53 27.84h30.15"/><path id="hLine_38" data-name="Line 38" class="hcls-3" d="M23.53 79.52h60.29"/><path id="hLine_39" data-name="Line 39" class="hcls-3" d="M23.53 105.35h60.29"/><path id="hPath_1017" data-name="Path 1017" class="hcls-3" d="M130.25 47.65h-25.84V21.81" transform="translate(-24.9 -19.81)"/></g></g></g></svg><svg viewBox="0 0 25.789 23.857" id="like" xmlns="http://www.w3.org/2000/svg"><g data-name="Group 640"><g data-name="Group 639" fill="#90cbe5"><path data-name="Path 1024" d="M25.355 14.356a2.447 2.447 0 00-.516-1.52 2.458 2.458 0 00.95-1.982 2.491 2.491 0 00-2.5-2.5c-.977 0-2.389 0-3.61.027-.543.027-1.656.027-3.2-.027.652-1.982 1.466-4.506 1.629-5.375a2.441 2.441 0 00-1.846-2.85 2.578 2.578 0 00-3.2 1.3c-.76 1.873-3.149 6.271-5.728 7.872a.72.72 0 00-.163.136 2.034 2.034 0 00-1.3-.489H2.036A2.033 2.033 0 000 10.989v9.963a2.033 2.033 0 002.036 2.036h3.773a2.116 2.116 0 001.574-.733 9.5 9.5 0 005.375 1.6h9.23a2.491 2.491 0 002.5-2.5 2.447 2.447 0 00-.516-1.52 2.524 2.524 0 00.434-3.5 2.539 2.539 0 00.949-1.979zM6.379 20.983a.545.545 0 01-.543.543h-3.8a.545.545 0 01-.543-.543v-9.99a.545.545 0 01.543-.543h3.773a.545.545 0 01.543.543v9.99zm16.912-9.121h-.081a.68.68 0 00-.679.624v.109a.716.716 0 00.516.76 1.04 1.04 0 01.787.869 1.013 1.013 0 01-1 1.113h-.081a.68.68 0 00-.679.624v.109a.716.716 0 00.516.76 1.04 1.04 0 01.787.869 1.013 1.013 0 01-1 1.113h-.081a.68.68 0 00-.679.624v.109a.716.716 0 00.516.76 1.04 1.04 0 01.787.869 1.013 1.013 0 01-1 1.113h-9.23a7.135 7.135 0 01-4.886-1.656l.027-9.773a.433.433 0 01.217-.38c3.149-1.927 5.7-6.977 6.325-8.578.19-.461.842-.57 1.384-.407a.982.982 0 01.814 1.14c-.109.6-.679 2.5-1.574 5.158a1.7 1.7 0 00-.081.516 1.534 1.534 0 001.52 1.52h3.23c1.167-.027 2.579-.027 3.529-.027a1.046 1.046 0 011.032.814.949.949 0 01-.935 1.244z"/><circle data-name="Ellipse 65" cx=".768" cy=".768" r=".768" transform="translate(4.222 18.443)"/></g></g></svg><svg viewBox="0 0 27.199 32.833" id="location" xmlns="http://www.w3.org/2000/svg"><g data-name="Group 413" transform="translate(-766.028 -191.921)" fill="none" stroke="#000" stroke-miterlimit="10" stroke-width="1.2"><circle data-name="Ellipse 53" cx="6" cy="6" r="6" transform="translate(773.628 199.522)"/><path data-name="Path 682" d="M788.82 214.714a13 13 0 10-18.384 0l9.192 9.192z"/></g></svg><svg viewBox="0 0 25 30.177" id="locationW" xmlns="http://www.w3.org/2000/svg"><g data-name="Group 227" transform="translate(-472.644 -75.259)" fill="none" stroke="#fff" stroke-miterlimit="10"><circle data-name="Ellipse 47" cx="5" cy="5" r="5" transform="translate(480.144 82.933)"/><path data-name="Path 289" d="M493.63 96.245a12 12 0 10-16.97 0l8.485 8.485z"/></g></svg><svg viewBox="0 0 429.916 106.753" id="logo" xmlns="http://www.w3.org/2000/svg"><g data-name="Group 582"><path data-name="Path 950" d="M5.519 93.329c8.577-10.889 9.248-26.849 9.248-39.6v-9.621h27V93.33h5.817v13.424H44.45V96.312H3.505v10.441H.299V93.329zm33.039 0V47.091H17.899v6.562c0 13.723-1.193 29.235-8.725 39.676z"/><path data-name="Path 951" d="M80.205 43.212a26.356 26.356 0 0126.4 26.625c0 15.362-11.857 27.37-26.4 27.37s-26.4-12.008-26.4-27.37a26.356 26.356 0 0126.4-26.625zm0 50.937c12.753 0 23.045-10.59 23.045-24.312 0-13.35-10.292-23.567-23.045-23.567S57.161 56.487 57.161 69.837c0 13.722 10.291 24.312 23.044 24.312z"/><path data-name="Path 952" d="M140.424 43.212c6.563 0 13.723 1.939 18.645 6.563l-1.939 2.386c-4.251-3.8-10.739-5.892-16.631-5.892-13.275 0-22.6 10.068-22.6 23.567 0 13.573 9.247 24.312 22.821 24.312a25.439 25.439 0 0017.676-7.085l2.013 2.238a27.346 27.346 0 01-19.688 7.905c-15.661 0-26.177-12.231-26.177-27.37s10.741-26.624 25.88-26.624z"/><path data-name="Path 953" d="M187.709 50.075v46.237h-3.207V50.075zm-22.672-2.984v-2.984h42.137v2.984z"/><path data-name="Path 954" d="M226.386 44.107h3.432l19.539 52.205h-3.431l-6.786-18.048h-22.15l-6.712 18.048h-3.431zm11.635 31.174l-7.905-21.18c-.82-2.237-1.939-6.264-1.939-6.264h-.149s-1.119 4.027-1.939 6.264l-7.979 21.18z"/><path data-name="Path 955" d="M260.761 44.107h17.526c7.607 0 13.2 5.072 13.2 13.052 0 5.667-2.759 9.471-6.787 11.41v.149c5.146 1.416 8.875 6.488 8.875 13.2 0 8.726-6.19 14.394-14.543 14.394h-18.271zm17.452 23.269c5.816 0 9.919-4.027 9.919-10.217 0-6.116-3.878-10.068-9.994-10.068h-14.17v20.285zm.522 25.954c7.01 0 11.484-4.326 11.484-11.411s-4.847-11.56-11.56-11.56h-14.691V93.33z"/><path data-name="Path 956" d="M307.515 44.107h3.207v23.269h9.7l14.915-23.269h3.878l-16.034 24.612v.148l17.079 27.445h-3.879l-15.96-25.954h-9.7v25.954h-3.207z"/><path data-name="Path 957" d="M365.557 44.107h3.432l19.54 52.205h-3.432l-6.79-18.048h-22.15l-6.711 18.048h-3.431zm11.635 31.174l-7.905-21.18c-.82-2.237-1.939-6.264-1.939-6.264h-.149s-1.118 4.027-1.938 6.264l-7.979 21.18z"/><g data-name="Group 581"><g data-name="Group 570"><g data-name="Group 565"><path data-name="Path 958" d="M8.884 5.8h3.31c1.8 0 3.058.806 3.058 2.354a2.2 2.2 0 01-1.044 1.913v.025a2.017 2.017 0 011.41 2.026c0 1.964-1.636 2.68-3.423 2.68H8.884zm3.335 3.486a.761.761 0 00.793-.83.732.732 0 00-.83-.768h-1.1v1.6zm.189 3.624a.893.893 0 00.956-.944.865.865 0 00-.944-.919h-1.334v1.862z" fill="#231f20"/></g><g data-name="Group 566"><path data-name="Path 959" d="M21.169 5.654a4.508 4.508 0 014.707 4.594 4.707 4.707 0 11-9.414 0 4.508 4.508 0 014.707-4.594zm0 7.287a2.492 2.492 0 002.429-2.694 2.434 2.434 0 10-4.858 0 2.493 2.493 0 002.429 2.689z" fill="#231f20"/></g><g data-name="Group 567"><path data-name="Path 960" d="M27.653 11.992a3.627 3.627 0 002.165.932c.616 0 .932-.277.932-.629 0-1.272-3.977-1.07-3.977-3.889 0-1.661 1.371-2.757 3.259-2.757a4.251 4.251 0 012.819 1.02l-.932 1.8a3.246 3.246 0 00-1.988-.793c-.667 0-.956.277-.956.641 0 1.284 3.977.981 3.977 3.826 0 1.51-1.12 2.806-3.2 2.806a4.655 4.655 0 01-3.26-1.284z" fill="#231f20"/></g><g data-name="Group 568"><path data-name="Path 961" d="M38.466 5.654a4.836 4.836 0 013.373 1.272l-1.018 1.661a3.686 3.686 0 00-2.253-.919 2.39 2.39 0 00-2.542 2.568 2.514 2.514 0 002.542 2.706 3.551 3.551 0 002.391-1.107l1.133 1.611a4.91 4.91 0 01-3.625 1.51 4.472 4.472 0 01-4.719-4.669 4.534 4.534 0 014.718-4.633z" fill="#231f20"/></g><g data-name="Group 569"><path data-name="Path 962" d="M47.157 5.654a4.508 4.508 0 014.707 4.594 4.707 4.707 0 11-9.414 0 4.508 4.508 0 014.707-4.594zm0 7.287a2.492 2.492 0 002.429-2.694 2.433 2.433 0 10-4.858 0 2.492 2.492 0 002.429 2.689z" fill="#231f20"/></g></g><g data-name="Group 579"><g data-name="Group 571"><path data-name="Path 963" d="M68.548 5.952h1.246v8.883h-1.246z" fill="#231f20"/></g><g data-name="Group 572"><path data-name="Path 964" d="M72.015 5.952h1.233l3.964 5.764c.315.491.731 1.3.731 1.3h.024s-.075-.794-.075-1.3V5.952h1.233v8.883h-1.221L73.94 9.07c-.315-.49-.73-1.3-.73-1.3h-.025s.075.793.075 1.3v5.765h-1.245z" fill="#231f20"/></g><g data-name="Group 573"><path data-name="Path 965" d="M83.404 7.035h-3.058V5.953h7.35v1.082h-3.058v7.8h-1.234z" fill="#231f20"/></g><g data-name="Group 574"><path data-name="Path 966" d="M88.916 5.952h5.173v1.083h-3.928v2.782h3.185v1.082h-3.185v2.857h4.141v1.079h-5.386z" fill="#231f20"/></g><g data-name="Group 575"><path data-name="Path 967" d="M95.717 5.952h2.819a3.858 3.858 0 011.648.239 2.4 2.4 0 011.41 2.329 2.488 2.488 0 01-1.585 2.441v.025a3.056 3.056 0 01.252.4l1.888 3.449h-1.41l-1.875-3.537h-1.9v3.537h-1.246zm3.034 4.267a1.514 1.514 0 001.586-1.636 1.42 1.42 0 00-.831-1.4 2.543 2.543 0 00-1.07-.151h-1.474v3.185z" fill="#231f20"/></g><g data-name="Group 576"><path data-name="Path 968" d="M103.524 5.952h1.233l3.963 5.764c.316.491.731 1.3.731 1.3h.025s-.076-.794-.076-1.3V5.952h1.233v8.883h-1.221l-3.963-5.765c-.316-.49-.731-1.3-.731-1.3h-.025s.076.793.076 1.3v5.765h-1.246z" fill="#231f20"/></g><g data-name="Group 577"><path data-name="Path 969" d="M112.876 5.952h5.175v1.083h-3.926v2.782h3.184v1.082h-3.184v2.857h4.14v1.079h-5.386z" fill="#231f20"/></g><g data-name="Group 578"><path data-name="Path 970" d="M122.114 7.035h-3.063V5.953h7.35v1.082h-3.05v7.8h-1.233z" fill="#231f20"/></g></g><g data-name="Group 580" fill="#231f20"><path data-name="Path 971" d="M134.98 10.155v-.021a2.079 2.079 0 001.107-1.913 2.281 2.281 0 00-2.58-2.265h-3.109v8.878h3.184c1.561 0 2.87-.857 2.87-2.53a2.136 2.136 0 00-1.472-2.149zm-3.335-3.122h1.85a1.219 1.219 0 011.321 1.309 1.258 1.258 0 01-1.308 1.347h-1.862zm2 6.721h-2v-3.033h2a1.43 1.43 0 011.522 1.51 1.414 1.414 0 01-1.52 1.523z"/><path data-name="Path 972" d="M142.142 5.8a4.444 4.444 0 00-4.569 4.531 4.563 4.563 0 109.124 0 4.433 4.433 0 00-4.555-4.531zm0 8.042a3.32 3.32 0 01-3.285-3.512 3.281 3.281 0 116.557 0 3.317 3.317 0 01-3.272 3.514z"/><path data-name="Path 973" d="M154.046 11.665a2.248 2.248 0 01-4.493.012V5.951h-1.245v5.738a3.5 3.5 0 006.985 0V5.951h-1.246z"/><path data-name="Path 974" d="M159.523 14.834h1.234v-7.8h3.058V5.951h-7.35v1.083h3.058z"/><path data-name="Rectangle 141" d="M165.034 5.951h1.246v8.885h-1.246z"/><path data-name="Path 975" d="M177.084 10.344a4.556 4.556 0 00-9.112 0 4.5 4.5 0 004.544 4.643 4.353 4.353 0 002.819-.968v-.006c1.078 1.089 1.569 2.117 1.372 2.912-.228.92-1.348 1.419-2.247 1.675a5.413 5.413 0 00-3.242 2.213.535.535 0 00.206.727.528.528 0 00.26.068.534.534 0 00.466-.273 4.5 4.5 0 012.6-1.707c2.12-.6 2.8-1.662 2.99-2.444.3-1.193-.287-2.552-1.671-3.94a4.618 4.618 0 001.015-2.9zm-4.568 3.5a3.334 3.334 0 01-3.259-3.5 3.275 3.275 0 116.544 0 3.613 3.613 0 01-.655 2.089l-1.02-1.044-.717.78 1.044 1.019a3.08 3.08 0 01-1.937.656z"/><path data-name="Path 976" d="M184.474 11.665a2.247 2.247 0 01-4.492.012V5.951h-1.246v5.738a3.5 3.5 0 006.985 0V5.951h-1.246z"/><path data-name="Path 977" d="M189.135 13.754v-2.857h3.184V9.815h-3.184V7.034h3.927V5.951h-5.173v8.883h5.387v-1.08z"/><path data-name="Path 978" d="M174.213 20.7a.533.533 0 00-.62.43l-.611 3.37-10.927 5.215-3.018-6.239 10.927-5.218 1.331.711a.534.534 0 00.5-.942l-1.806-.965-12.381 5.913 3.946 8.161 12.38-5.912.709-3.908a.534.534 0 00-.43-.616z"/><path data-name="Path 979" d="M170.692 20.595a1.1 1.1 0 01.126-.051.534.534 0 10-.329-1.015 2.088 2.088 0 00-.26.1 2.04 2.04 0 00.218 3.762 2.032 2.032 0 001.559-.091 2.019 2.019 0 00.723-.585.534.534 0 00-.843-.654.971.971 0 01-1.088.321.972.972 0 01-.106-1.792z"/></g><path data-name="Path 980" d="M0 0v20.6h155.336v-1.068H60.691V1.067h140.4v18.465h-22.324V20.6h23.4V0zm59.623 19.532H1.067V1.067h58.556z" fill="#231f20"/></g><path data-name="Path 981" d="M429.916 78.265h-32.675l-.939-2.983h32.675z"/><path data-name="Path 982" d="M423.846 62.485h-32.675l-.939-2.983h32.675z"/><path data-name="Path 983" d="M417.505 47.09h-32.677l-.939-2.983h32.675z"/></g></svg><svg viewBox="0 0 35.58 37.542" id="phone" xmlns="http://www.w3.org/2000/svg"><g data-name="Group 411"><g data-name="Layer 1-2"><path data-name="Path 680" d="M21.632 34.528l-3.196-.122C12.678 34.237 7.803 26.66 7.63 19.07s4.15-14.883 9.89-14.729l3.193.04a22.611 22.611 0 01-1.063 8.124l-5.173-.818a20.435 20.435 0 00.458 15.073l5.136-.433a23.88 23.88 0 011.561 8.201z" fill="none" stroke="#000" stroke-miterlimit="10" stroke-width="1.2"/></g></g></svg><svg viewBox="0 0 29 29" id="phoneW" xmlns="http://www.w3.org/2000/svg"><g data-name="Group 228" transform="translate(-758.128 -301.057)"><g data-name="Group 21"><g data-name="Layer 1-2"><g data-name="Group 20"><path data-name="Path 25" d="M781.893 321.829l-1.452 1.453a5.761 5.761 0 01-4.169 1.548 13.194 13.194 0 01-8.846-4.032 14.164 14.164 0 01-3.832-6.813c-.56-2.608-.1-4.824 1.322-6.236l1.424-1.471h.833a16.967 16.967 0 013.429 4.717l.137.315-2.787 2.172a14.33 14.33 0 006.723 6.771l2.172-2.8.315.138a16.986 16.986 0 014.717 3.428zm-15.114-14.68l-1.232 1.236c-1.191 1.191-1.572 3.114-1.078 5.412a13.26 13.26 0 003.573 6.371 12.477 12.477 0 008.218 3.771 4.9 4.9 0 003.574-1.286l1.232-1.24a17.269 17.269 0 00-3.886-2.857l-2.155 2.769-.31-.114a14.956 14.956 0 01-7.727-7.7l-.131-.315 2.775-2.157a17.352 17.352 0 00-2.853-3.89z" fill="#fff"/></g></g></g><circle data-name="Ellipse 48" cx="14" cy="14" r="14" transform="translate(758.628 301.557)" fill="none" stroke="#fff" stroke-miterlimit="10"/></g></svg><svg viewBox="0 0 37.303 27.2" id="price" xmlns="http://www.w3.org/2000/svg"><g data-name="Group 410" transform="translate(-790.028 -397.806)" fill="none" stroke="#000" stroke-miterlimit="10" stroke-width="1.2"><path data-name="Rectangle 36" d="M800.068 398.406h17.223v26h-17.223zM796.868 421.606h-6.24v-20.4h6.24M820.491 401.206h6.24v20.4h-6.24"/><circle data-name="Ellipse 51" cx="4" cy="4" r="4" transform="translate(804.68 407.406)"/><path data-name="Path 678" d="M820.891 409.406a2 2 0 010 4"/><path data-name="Path 679" d="M796.938 413.406a2.001 2.001 0 01-.14-4"/></g></svg><svg viewBox="0 0 34.326 25" id="priceW" xmlns="http://www.w3.org/2000/svg"><g data-name="Group 230" transform="translate(-790.128 -397.906)" fill="none" stroke="#fff" stroke-miterlimit="10"><path data-name="Rectangle 36" d="M800.068 398.406h14.446v24h-14.446zM796.868 419.606h-6.24v-18.4h6.24M817.714 401.206h6.24v18.4h-6.24"/><circle data-name="Ellipse 49" cx="4" cy="4" r="4" transform="translate(803.291 406.406)"/><path data-name="Path 291" d="M818.114 408.406a2 2 0 010 4"/><path data-name="Path 292" d="M796.938 412.406a2.001 2.001 0 01-.14-4"/></g></svg><svg viewBox="0 0 23.2 20.2" id="print" xmlns="http://www.w3.org/2000/svg"><g data-name="Group 625" fill="none" stroke="#1665b4" stroke-miterlimit="10" stroke-width="1.2"><path data-name="Rectangle 153" d="M4.6.6h14v4h-14z"/><path data-name="Rectangle 154" d="M4.6 10.6h14v9h-14z"/><path data-name="Path 1015" d="M4.6 14.6h-4v-10h22v10h-4"/></g></svg><svg viewBox="0 0 18.872 41.286" id="slick-arrow" xmlns="http://www.w3.org/2000/svg"><path data-name="Path 1005" d="M18.106 40.643l-16.8-20 16.8-20" fill="none" stroke="#fff" stroke-miterlimit="10" stroke-width="2"/></svg><svg viewBox="0 0 67 67" id="star" xmlns="http://www.w3.org/2000/svg"><g data-name="Group 723" transform="translate(-188.5 -196.5)" fill="#f7f7f7" stroke="#9e1935" stroke-width="3"><circle data-name="Ellipse 80" cx="32" cy="32" r="32" transform="translate(190 198)" stroke-miterlimit="10"/><path data-name="Path 1066" d="M222 237.006l-10.507 6.6 3.027-12.031-9.52-7.958 12.377-.839L222 211.266l4.623 11.512 12.377.839-9.52 7.954 3.027 12.031z" stroke-linejoin="bevel"/></g></svg></svg>